<svg width="56" height="56" viewBox="0 0 56 56" fill="none" xmlns="http://www.w3.org/2000/svg">
<rect x="0.5" y="0.5" width="55" height="55" rx="7.5" fill="#D6B271" fill-opacity="0.15"/>
<rect x="0.5" y="0.5" width="55" height="55" rx="7.5" stroke="#CFD6D3"/>
<rect width="24" height="24" transform="translate(16 16)" fill="white" fill-opacity="0.01" style="mix-blend-mode:multiply"/>
<path d="M37 37H19C18.6023 36.9996 18.221 36.8414 17.9398 36.5602C17.6586 36.279 17.5004 35.8977 17.5 35.5V31.75H19V35.5H37V31.75H38.5V35.5C38.4996 35.8977 38.3414 36.279 38.0602 36.5602C37.779 36.8414 37.3977 36.9996 37 37Z" fill="#A69577"/>
<path d="M34.75 31.75H21.25V33.25H34.75V31.75Z" fill="#A69577"/>
<path d="M34.75 28H21.25V29.5H34.75V28Z" fill="#A69577"/>
<path d="M34.75 24.25H21.25V25.75H34.75V24.25Z" fill="#A69577"/>
<path d="M34.75 20.5H21.25V22H34.75V20.5Z" fill="#A69577"/>
</svg>
