<svg width="56" height="56" viewBox="0 0 56 56" fill="none" xmlns="http://www.w3.org/2000/svg">
<rect x="0.5" y="0.5" width="55" height="55" rx="7.5" fill="#D6B271" fill-opacity="0.15"/>
<rect x="0.5" y="0.5" width="55" height="55" rx="7.5" stroke="#CFD6D3"/>
<rect width="24" height="24" transform="translate(16 16)" fill="white" fill-opacity="0.01" style="mix-blend-mode:multiply"/>
<path d="M35.5003 37.75H35.3728C20.6353 36.9025 18.5428 24.4675 18.2503 20.6725C18.2267 20.3774 18.2616 20.0806 18.353 19.7991C18.4443 19.5175 18.5903 19.2567 18.7826 19.0317C18.9749 18.8067 19.2097 18.6218 19.4736 18.4876C19.7374 18.3535 20.0252 18.2727 20.3203 18.25H24.4528C24.7532 18.2497 25.0468 18.3396 25.2955 18.5081C25.5443 18.6766 25.7367 18.9159 25.8478 19.195L26.9878 22C27.0976 22.2727 27.1248 22.5716 27.0661 22.8596C27.0075 23.1476 26.8655 23.412 26.6578 23.62L25.0603 25.2325C25.3098 26.6506 25.9889 27.9578 27.0057 28.9772C28.0225 29.9967 29.3279 30.6792 30.7453 30.9325L32.3728 29.32C32.5839 29.1146 32.8508 28.9759 33.1403 28.9213C33.4297 28.8666 33.7288 28.8983 34.0003 29.0125L36.8278 30.145C37.1027 30.2597 37.3372 30.4536 37.5015 30.702C37.6658 30.9504 37.7524 31.2422 37.7503 31.54V35.5C37.7503 36.0967 37.5133 36.669 37.0913 37.091C36.6693 37.5129 36.097 37.75 35.5003 37.75ZM20.5003 19.75C20.3014 19.75 20.1106 19.829 19.97 19.9697C19.8293 20.1103 19.7503 20.3011 19.7503 20.5V20.56C20.0953 25 22.3078 35.5 35.4553 36.25C35.5538 36.2561 35.6526 36.2427 35.7459 36.2105C35.8393 36.1783 35.9253 36.1281 35.9992 36.0626C36.073 35.9971 36.1333 35.9176 36.1763 35.8288C36.2194 35.74 36.2446 35.6436 36.2503 35.545V31.54L33.4228 30.4075L31.2703 32.545L30.9103 32.5C24.3853 31.6825 23.5003 25.1575 23.5003 25.09L23.4553 24.73L25.5853 22.5775L24.4603 19.75H20.5003Z" fill="#A69577"/>
</svg>
