<svg width="229" height="63" viewBox="0 0 229 63" fill="none" xmlns="http://www.w3.org/2000/svg">
<g opacity="0.8">
<rect x="-0.000137329" width="4.82994" height="63" rx="1" fill="white" fill-opacity="0.6"/>
<rect x="8.69415" width="1.93198" height="63" rx="0.965988" fill="white" fill-opacity="0.6"/>
<rect x="14.49" width="3.86395" height="63" rx="1" fill="white" fill-opacity="0.6"/>
<rect x="22.2166" width="0.965988" height="63" rx="0.482994" fill="white" fill-opacity="0.6"/>
<rect x="27.0476" width="0.965988" height="63" rx="0.482994" fill="white" fill-opacity="0.6"/>
<rect x="31.8779" width="9.41838" height="63" rx="1" fill="white" fill-opacity="0.6"/>
<rect x="45.1608" width="4.34694" height="63" rx="1" fill="white" fill-opacity="0.6"/>
<rect x="53.3706" width="2.65647" height="63" rx="1" fill="white" fill-opacity="0.6"/>
<rect x="59.891" width="0.724491" height="63" rx="0.362245" fill="white" fill-opacity="0.6"/>
<rect x="64.4788" width="0.724491" height="63" rx="0.362245" fill="white" fill-opacity="0.6"/>
<rect x="69.0679" width="1.93198" height="63" rx="0.965988" fill="white" fill-opacity="0.6"/>
<rect x="78.9999" width="4.82987" height="63" rx="1" fill="white" fill-opacity="0.6"/>
<rect x="87.6931" width="1.93195" height="63" rx="0.965974" fill="white" fill-opacity="0.6"/>
<rect x="93.4882" width="3.8639" height="63" rx="1" fill="white" fill-opacity="0.6"/>
<rect x="101.217" width="0.965974" height="63" rx="0.482987" fill="white" fill-opacity="0.6"/>
<rect x="106.045" width="0.965974" height="63" rx="0.482987" fill="white" fill-opacity="0.6"/>
<rect x="110.876" width="9.41825" height="63" rx="1" fill="white" fill-opacity="0.6"/>
<rect x="124.159" width="4.34688" height="63" rx="1" fill="white" fill-opacity="0.6"/>
<rect x="132.37" width="2.65643" height="63" rx="1" fill="white" fill-opacity="0.6"/>
<rect x="138.891" width="0.724481" height="63" rx="0.36224" fill="white" fill-opacity="0.6"/>
<rect x="143.478" width="0.724481" height="63" rx="0.36224" fill="white" fill-opacity="0.6"/>
<rect x="148.068" width="1.93195" height="63" rx="0.965974" fill="white" fill-opacity="0.6"/>
<rect x="158" width="4.82987" height="63" rx="1" fill="white" fill-opacity="0.6"/>
<rect x="166.693" width="1.93195" height="63" rx="0.965974" fill="white" fill-opacity="0.6"/>
<rect x="172.488" width="3.8639" height="63" rx="1" fill="white" fill-opacity="0.6"/>
<rect x="180.217" width="0.965974" height="63" rx="0.482987" fill="white" fill-opacity="0.6"/>
<rect x="185.045" width="0.965974" height="63" rx="0.482987" fill="white" fill-opacity="0.6"/>
<rect x="189.876" width="9.41825" height="63" rx="1" fill="white" fill-opacity="0.6"/>
<rect x="203.159" width="4.34688" height="63" rx="1" fill="white" fill-opacity="0.6"/>
<rect x="211.37" width="2.65643" height="63" rx="1" fill="white" fill-opacity="0.6"/>
<rect x="217.891" width="0.724481" height="63" rx="0.36224" fill="white" fill-opacity="0.6"/>
<rect x="222.478" width="0.724481" height="63" rx="0.36224" fill="white" fill-opacity="0.6"/>
<rect x="227.068" width="1.93195" height="63" rx="0.965974" fill="white" fill-opacity="0.6"/>
</g>
</svg>
