<svg width="684" height="352" viewBox="0 0 684 352" fill="none" xmlns="http://www.w3.org/2000/svg">
<path opacity="0.15" d="M-220.713 -173.184L-220.713 871.648M-107.634 -173.184L-107.634 871.648M5.44518 -173.184L5.4451 871.648M118.524 -173.184L118.524 871.648M231.604 -173.184L231.604 871.648M344.683 -173.184L344.683 871.648M457.762 -173.184L457.762 871.648M570.841 -173.184L570.841 871.648M683.921 -173.184L683.921 871.648M797 -173.184L797 871.648M-221 871.48H796.713M-221 755.387H796.713M-221 639.295H796.713M-221 523.202H796.713M-221 407.11L796.713 407.11M-221 291.018L796.713 291.018M-221 174.925L796.713 174.925M-221 58.8328L796.713 58.8328M-221 -57.2596L796.713 -57.2596M-221 -173.352L796.713 -173.352" stroke="url(#paint0_linear_2435_25701)" stroke-width="0.306196"/>
<defs>
<linearGradient id="paint0_linear_2435_25701" x1="271.5" y1="-182.852" x2="281" y2="288.148" gradientUnits="userSpaceOnUse">
<stop stop-color="white" stop-opacity="0"/>
<stop offset="1" stop-color="#172329"/>
</linearGradient>
</defs>
</svg>
