<svg width="444" height="138" viewBox="0 0 444 138" fill="none" xmlns="http://www.w3.org/2000/svg">
<g clip-path="url(#clip0_3693_10587)">
<path fill-rule="evenodd" clip-rule="evenodd" d="M430.873 0H13.8856C14.4481 1.34804 14.7588 2.82745 14.7588 4.37942C14.7588 10.6641 9.66409 15.7588 3.37942 15.7588C2.20268 15.7588 1.06767 15.5802 0 15.2486V120.006C0.125965 120.002 0.252448 120 0.379416 120C6.66409 120 11.7588 125.095 11.7588 131.379C11.7588 137.664 6.66409 142.759 0.379416 142.759C0.252448 142.759 0.125965 142.757 0 142.753V249H444V142.753C437.891 142.552 433 137.537 433 131.379C433 125.222 437.891 120.206 444 120.006V15.4556C443.159 15.6539 442.281 15.7588 441.379 15.7588C435.095 15.7588 430 10.6641 430 4.37942C430 2.82745 430.311 1.34804 430.873 0Z" fill="#A38753"/>
<path d="M14 0L431 0" stroke="white"/>
</g>
<defs>
<clipPath id="clip0_3693_10587">
<path d="M0 4C0 1.79086 1.79086 0 4 0H440C442.209 0 444 1.79086 444 4V138H0V4Z" fill="white"/>
</clipPath>
</defs>
</svg>
