<svg width="32" height="33" viewBox="0 0 32 33" fill="none" xmlns="http://www.w3.org/2000/svg">
<rect width="32" height="32" transform="translate(0 0.5)" fill="white" fill-opacity="0.01" style="mix-blend-mode:multiply"/>
<path d="M16 2.5C13.2311 2.5 10.5243 3.32109 8.22202 4.85943C5.91973 6.39777 4.12532 8.58427 3.06569 11.1424C2.00607 13.7006 1.72882 16.5155 2.26901 19.2313C2.80921 21.947 4.14258 24.4416 6.10051 26.3995C8.05845 28.3574 10.553 29.6908 13.2687 30.231C15.9845 30.7712 18.7994 30.4939 21.3576 29.4343C23.9157 28.3747 26.1022 26.5803 27.6406 24.278C29.1789 21.9757 30 19.2689 30 16.5C30 12.787 28.525 9.22601 25.8995 6.6005C23.274 3.975 19.713 2.5 16 2.5ZM16 28.5C13.6266 28.5 11.3066 27.7962 9.33316 26.4776C7.35977 25.1591 5.8217 23.2849 4.91345 21.0922C4.0052 18.8995 3.76756 16.4867 4.23058 14.1589C4.69361 11.8311 5.83649 9.69295 7.51472 8.01472C9.19296 6.33649 11.3312 5.1936 13.6589 4.73058C15.9867 4.26755 18.3995 4.50519 20.5922 5.41345C22.7849 6.3217 24.6591 7.85977 25.9776 9.83316C27.2962 11.8065 28 14.1266 28 16.5C28 19.6826 26.7357 22.7348 24.4853 24.9853C22.2348 27.2357 19.1826 28.5 16 28.5Z" fill="#1C55C2"/>
<path d="M11.5 11.5C11.0056 11.5 10.5222 11.6466 10.1111 11.9213C9.69996 12.196 9.37953 12.5865 9.19031 13.0433C9.00109 13.5001 8.95158 14.0028 9.04804 14.4877C9.14451 14.9727 9.38261 15.4181 9.73224 15.7678C10.0819 16.1174 10.5273 16.3555 11.0123 16.452C11.4972 16.5484 11.9999 16.4989 12.4567 16.3097C12.9135 16.1205 13.304 15.8 13.5787 15.3889C13.8534 14.9778 14 14.4945 14 14C14.0027 13.671 13.9398 13.3447 13.8151 13.0401C13.6904 12.7356 13.5064 12.459 13.2737 12.2263C13.041 11.9936 12.7644 11.8096 12.4599 11.6849C12.1553 11.5602 11.8291 11.4973 11.5 11.5Z" fill="#1C55C2"/>
<path d="M20.5 11.5C20.0056 11.5 19.5222 11.6466 19.1111 11.9213C18.7 12.196 18.3795 12.5865 18.1903 13.0433C18.0011 13.5001 17.9516 14.0028 18.048 14.4877C18.1445 14.9727 18.3826 15.4181 18.7322 15.7678C19.0819 16.1174 19.5273 16.3555 20.0123 16.452C20.4972 16.5484 20.9999 16.4989 21.4567 16.3097C21.9135 16.1205 22.304 15.8 22.5787 15.3889C22.8534 14.9778 23 14.4945 23 14C23.0027 13.671 22.9398 13.3447 22.8151 13.0401C22.6904 12.7356 22.5064 12.459 22.2737 12.2263C22.041 11.9936 21.7644 11.8096 21.4599 11.6849C21.1553 11.5602 20.8291 11.4973 20.5 11.5Z" fill="#1C55C2"/>
<path d="M16 24.5C17.3804 24.4977 18.7367 24.1382 19.937 23.4566C21.1373 22.7749 22.1408 21.7943 22.85 20.61L21.14 19.61C20.6063 20.4962 19.8526 21.2294 18.952 21.7383C18.0514 22.2473 17.0345 22.5148 16 22.5148C14.9655 22.5148 13.9486 22.2473 13.048 21.7383C12.1474 21.2294 11.3937 20.4962 10.86 19.61L9.15001 20.61C9.85917 21.7943 10.8627 22.7749 12.063 23.4566C13.2634 24.1382 14.6196 24.4977 16 24.5Z" fill="#1C55C2"/>
</svg>
