<svg width="40" height="40" viewBox="0 0 40 40" fill="none" xmlns="http://www.w3.org/2000/svg">
<rect width="40" height="40" rx="4" fill="#A38753"/>
<rect width="24" height="24" transform="translate(8 8)" fill="white" fill-opacity="0.01" style="mix-blend-mode:multiply"/>
<path d="M27.5 15.5H26V12.5H24.5V15.5H23V24.5H24.5V27.5H26V24.5H27.5V15.5ZM26 23H24.5V17H26V23Z" fill="white"/>
<path d="M18.5 14H17V11H15.5V14H14V21.5H15.5V24.5H17V21.5H18.5V14ZM17 20H15.5V15.5H17V20Z" fill="white"/>
<path d="M30.5 30.5H11C10.6022 30.5 10.2206 30.342 9.93934 30.0607C9.65804 29.7794 9.5 29.3978 9.5 29V9.5H11V29H30.5V30.5Z" fill="white"/>
</svg>
