<svg width="32" height="33" viewBox="0 0 32 33" fill="none" xmlns="http://www.w3.org/2000/svg">
<rect width="32" height="32" transform="translate(0 0.5)" fill="white" fill-opacity="0.01" style="mix-blend-mode:multiply"/>
<path d="M20 30.5H17C16.4697 30.4994 15.9614 30.2886 15.5864 29.9136C15.2114 29.5386 15.0006 29.0303 15 28.5V23.5H17V28.5H20V23.5H22V19.5C21.9997 19.2349 21.8943 18.9807 21.7068 18.7932C21.5193 18.6057 21.2651 18.5003 21 18.5H12.2793L10.2793 12.5H4C3.73487 12.5003 3.48069 12.6057 3.29321 12.7932C3.10574 12.9807 3.00029 13.2349 3 13.5V19.5H5V28.5H9V21.5H11V28.5C10.9994 29.0303 10.7886 29.5386 10.4136 29.9136C10.0386 30.2886 9.53026 30.4994 9 30.5H5C4.46974 30.4994 3.96135 30.2886 3.5864 29.9136C3.21145 29.5386 3.00056 29.0303 3 28.5V21.5C2.46974 21.4994 1.96135 21.2886 1.5864 20.9136C1.21145 20.5386 1.00056 20.0303 1 19.5V13.5C1.00087 12.7046 1.31722 11.9421 1.87964 11.3796C2.44206 10.8172 3.20462 10.5009 4 10.5H10.2793C10.6991 10.4997 11.1084 10.6316 11.449 10.877C11.7897 11.1225 12.0443 11.469 12.1768 11.8674L13.7207 16.5H21C21.7954 16.5009 22.5579 16.8172 23.1204 17.3796C23.6828 17.9421 23.9991 18.7046 24 19.5V23.5C23.9994 24.0303 23.7886 24.5386 23.4136 24.9136C23.0386 25.2886 22.5303 25.4994 22 25.5V28.5C21.9994 29.0303 21.7886 29.5386 21.4136 29.9136C21.0386 30.2886 20.5303 30.4994 20 30.5Z" fill="#1C55C2"/>
<path d="M28 30.5H26V19.5H29V13.5C28.9997 13.2349 28.8943 12.9807 28.7068 12.7932C28.5193 12.6057 28.2651 12.5003 28 12.5H24V10.5H28C28.7954 10.5009 29.5579 10.8172 30.1204 11.3796C30.6828 11.9421 30.9991 12.7046 31 13.5V19.5C30.9994 20.0303 30.7886 20.5386 30.4136 20.9136C30.0386 21.2886 29.5303 21.4994 29 21.5H28V30.5Z" fill="#1C55C2"/>
<path d="M7 9.5C6.20887 9.5 5.43552 9.26541 4.77772 8.82588C4.11992 8.38635 3.60723 7.76164 3.30448 7.03074C3.00173 6.29983 2.92252 5.49556 3.07686 4.71964C3.2312 3.94372 3.61216 3.23098 4.17157 2.67157C4.73098 2.11216 5.44372 1.7312 6.21964 1.57686C6.99556 1.42252 7.79983 1.50173 8.53073 1.80448C9.26164 2.10723 9.88635 2.61992 10.3259 3.27772C10.7654 3.93552 11 4.70888 11 5.5C10.9988 6.5605 10.577 7.57723 9.82711 8.32711C9.07722 9.077 8.0605 9.49881 7 9.5ZM7 3.5C6.60444 3.5 6.21776 3.6173 5.88886 3.83706C5.55996 4.05683 5.30362 4.36918 5.15224 4.73463C5.00087 5.10009 4.96126 5.50222 5.03843 5.89018C5.1156 6.27814 5.30608 6.63451 5.58579 6.91422C5.86549 7.19392 6.22186 7.3844 6.60982 7.46157C6.99778 7.53874 7.39992 7.49914 7.76537 7.34776C8.13082 7.19639 8.44318 6.94004 8.66294 6.61114C8.8827 6.28224 9 5.89556 9 5.5C8.99944 4.96974 8.78855 4.46135 8.4136 4.0864C8.03865 3.71145 7.53026 3.50056 7 3.5Z" fill="#1C55C2"/>
<path d="M25 9.5C24.2089 9.5 23.4355 9.26541 22.7777 8.82588C22.1199 8.38635 21.6072 7.76164 21.3045 7.03074C21.0017 6.29983 20.9225 5.49556 21.0769 4.71964C21.2312 3.94372 21.6122 3.23098 22.1716 2.67157C22.731 2.11216 23.4437 1.7312 24.2196 1.57686C24.9956 1.42252 25.7998 1.50173 26.5307 1.80448C27.2616 2.10723 27.8864 2.61992 28.3259 3.27772C28.7654 3.93552 29 4.70888 29 5.5C28.9988 6.5605 28.577 7.57723 27.8271 8.32711C27.0772 9.077 26.0605 9.49881 25 9.5ZM25 3.5C24.6044 3.5 24.2178 3.6173 23.8889 3.83706C23.56 4.05683 23.3036 4.36918 23.1522 4.73463C23.0009 5.10009 22.9613 5.50222 23.0384 5.89018C23.1156 6.27814 23.3061 6.63451 23.5858 6.91422C23.8655 7.19392 24.2219 7.3844 24.6098 7.46157C24.9978 7.53874 25.3999 7.49914 25.7654 7.34776C26.1308 7.19639 26.4432 6.94004 26.6629 6.61114C26.8827 6.28224 27 5.89556 27 5.5C26.9994 4.96974 26.7886 4.46135 26.4136 4.0864C26.0386 3.71145 25.5303 3.50056 25 3.5Z" fill="#1C55C2"/>
<path d="M18.5 15.5C17.8078 15.5 17.1311 15.2947 16.5555 14.9101C15.9799 14.5256 15.5313 13.9789 15.2664 13.3394C15.0015 12.6999 14.9322 11.9961 15.0673 11.3172C15.2023 10.6383 15.5356 10.0146 16.0251 9.52513C16.5146 9.03564 17.1383 8.7023 17.8172 8.56725C18.4961 8.4322 19.1999 8.50152 19.8394 8.76642C20.4789 9.03133 21.0256 9.47993 21.4101 10.0555C21.7947 10.6311 22 11.3078 22 12C21.9989 12.9279 21.6298 13.8175 20.9737 14.4737C20.3175 15.1298 19.4279 15.4989 18.5 15.5ZM18.5 10.5C18.2033 10.5 17.9133 10.588 17.6666 10.7528C17.42 10.9176 17.2277 11.1519 17.1142 11.426C17.0007 11.7001 16.9709 12.0017 17.0288 12.2926C17.0867 12.5836 17.2296 12.8509 17.4393 13.0607C17.6491 13.2704 17.9164 13.4133 18.2074 13.4712C18.4983 13.5291 18.7999 13.4994 19.074 13.3858C19.3481 13.2723 19.5824 13.08 19.7472 12.8334C19.912 12.5867 20 12.2967 20 12C19.9995 11.6023 19.8414 11.221 19.5602 10.9398C19.279 10.6586 18.8977 10.5005 18.5 10.5Z" fill="#1C55C2"/>
</svg>
