<svg width="19" height="15" viewBox="0 0 19 15" fill="none" xmlns="http://www.w3.org/2000/svg">
<path opacity="0.89" d="M7.50095 0.980347L7.70926 1.5525C4.86226 2.91137 3.61236 4.62782 3.61236 6.48733C3.61236 8.20378 4.72338 9.56265 7.43151 9.84873C8.26478 12.3519 7.15375 14.9981 4.30675 14.9981C1.87638 15.0696 0.0709689 13.1386 0.00152976 9.99176C-0.0679092 6.34428 2.22358 2.91137 7.50095 0.980347ZM18.1251 0.980347L18.3334 1.5525C15.417 2.91137 14.1671 4.62782 14.1671 6.48733C14.1671 8.20378 15.3476 9.56265 18.0557 9.84873C18.8889 12.3519 17.7779 14.9981 14.8615 14.9981C12.4311 15.0696 10.6257 13.1386 10.5563 9.99176C10.4868 6.34428 12.7783 2.91137 18.1251 0.980347Z" fill="white"/>
</svg>
