<svg width="38" height="34" viewBox="0 0 38 34" fill="none" xmlns="http://www.w3.org/2000/svg">
<rect x="0.5" y="0.608398" width="36.9851" height="32.4756" rx="2" fill="#303F48"/>
<rect x="0.789961" y="0.898359" width="36.4052" height="31.8957" rx="1.71004" stroke="#DADADA" stroke-opacity="0.9" stroke-width="0.579921"/>
<path d="M24.4763 23.8048C23.1773 23.8048 22.101 23.378 21.2473 22.5244C20.4308 21.6707 20.0225 20.4459 20.0225 18.85C20.0225 17.1427 20.505 15.454 21.47 13.7838C22.4721 12.1136 23.8639 10.8146 25.6454 9.88672L26.9259 11.8353C24.9959 13.1714 23.8454 14.8601 23.4742 16.9014C23.8083 16.753 24.198 16.6788 24.6434 16.6788C25.6826 16.6788 26.5362 17.0128 27.2043 17.6809C27.8723 18.3489 28.2064 19.2026 28.2064 20.2418C28.2064 21.281 27.8538 22.1347 27.1486 22.8027C26.4434 23.4708 25.5527 23.8048 24.4763 23.8048ZM14.2326 23.8048C12.9336 23.8048 11.8573 23.378 11.0036 22.5244C10.1871 21.6707 9.77881 20.4459 9.77881 18.85C9.77881 17.1427 10.2613 15.454 11.2263 13.7838C12.2284 12.1136 13.6202 10.8146 15.4017 9.88672L16.6822 11.8353C14.7522 13.1714 13.6017 14.8601 13.2305 16.9014C13.5645 16.753 13.9543 16.6788 14.3996 16.6788C15.4389 16.6788 16.2925 17.0128 16.9605 17.6809C17.6286 18.3489 17.9627 19.2026 17.9627 20.2418C17.9627 21.281 17.6101 22.1347 16.9049 22.8027C16.1997 23.4708 15.3089 23.8048 14.2326 23.8048Z" fill="#FDFBF4"/>
</svg>
