<svg width="40" height="40" viewBox="0 0 40 40" fill="none" xmlns="http://www.w3.org/2000/svg">
<rect width="40" height="40" rx="4" fill="#A38753"/>
<rect width="24" height="24" transform="translate(8 8)" fill="white" fill-opacity="0.01" style="mix-blend-mode:multiply"/>
<path d="M20 12.89L22.07 17.075L22.415 17.825L23.165 17.9375L27.785 18.605L24.5 21.83L23.9375 22.3775L24.0725 23.1275L24.86 27.725L20.7275 25.5575L20 25.25L19.3025 25.6175L15.17 27.755L15.92 23.1575L16.055 22.4075L15.5 21.83L12.185 18.5675L16.805 17.9L17.555 17.7875L17.9 17.0375L20 12.89ZM20 9.5L16.5875 16.415L8.95996 17.5175L14.48 22.9025L13.175 30.5L20 26.915L26.825 30.5L25.52 22.9025L31.04 17.525L23.4125 16.415L20 9.5Z" fill="white"/>
</svg>
