<svg width="40" height="40" viewBox="0 0 40 40" fill="none" xmlns="http://www.w3.org/2000/svg">
<rect width="40" height="40" rx="4" fill="#A38753"/>
<rect width="24" height="24" transform="translate(8 8)" fill="white" fill-opacity="0.01" style="mix-blend-mode:multiply"/>
<path d="M30.5 30.5H29V26.75C28.9989 25.7558 28.6034 24.8026 27.9004 24.0996C27.1974 23.3966 26.2442 23.0011 25.25 23V21.5C26.6419 21.5015 27.9764 22.0552 28.9606 23.0394C29.9448 24.0236 30.4985 25.3581 30.5 26.75V30.5Z" fill="white"/>
<path d="M24.5 30.5H23V26.75C22.9988 25.7558 22.6034 24.8027 21.9004 24.0996C21.1973 23.3966 20.2442 23.0012 19.25 23H14.75C13.7558 23.0012 12.8027 23.3966 12.0996 24.0996C11.3966 24.8027 11.0012 25.7558 11 26.75V30.5H9.5V26.75C9.50163 25.3581 10.0553 24.0237 11.0395 23.0395C12.0237 22.0553 13.3581 21.5016 14.75 21.5H19.25C20.6419 21.5016 21.9763 22.0553 22.9605 23.0395C23.9447 24.0237 24.4984 25.3581 24.5 26.75V30.5Z" fill="white"/>
<path d="M23 9.5V11C23.9946 11 24.9484 11.3951 25.6516 12.0983C26.3549 12.8016 26.75 13.7554 26.75 14.75C26.75 15.7446 26.3549 16.6984 25.6516 17.4017C24.9484 18.1049 23.9946 18.5 23 18.5V20C24.3924 20 25.7277 19.4469 26.7123 18.4623C27.6969 17.4777 28.25 16.1424 28.25 14.75C28.25 13.3576 27.6969 12.0223 26.7123 11.0377C25.7277 10.0531 24.3924 9.5 23 9.5Z" fill="white"/>
<path d="M17 11C17.7417 11 18.4667 11.2199 19.0834 11.632C19.7001 12.044 20.1807 12.6297 20.4645 13.3149C20.7484 14.0002 20.8226 14.7542 20.6779 15.4816C20.5333 16.209 20.1761 16.8772 19.6517 17.4017C19.1272 17.9261 18.459 18.2833 17.7316 18.4279C17.0042 18.5726 16.2502 18.4984 15.5649 18.2145C14.8797 17.9307 14.294 17.4501 13.882 16.8334C13.4699 16.2167 13.25 15.4917 13.25 14.75C13.25 13.7554 13.6451 12.8016 14.3483 12.0983C15.0516 11.3951 16.0054 11 17 11ZM17 9.5C15.9616 9.5 14.9466 9.80791 14.0833 10.3848C13.2199 10.9617 12.547 11.7816 12.1496 12.7409C11.7523 13.7002 11.6483 14.7558 11.8509 15.7742C12.0534 16.7926 12.5535 17.7281 13.2877 18.4623C14.0219 19.1965 14.9574 19.6966 15.9758 19.8991C16.9942 20.1017 18.0498 19.9977 19.0091 19.6004C19.9684 19.203 20.7883 18.5301 21.3652 17.6667C21.9421 16.8034 22.25 15.7884 22.25 14.75C22.25 13.3576 21.6969 12.0223 20.7123 11.0377C19.7277 10.0531 18.3924 9.5 17 9.5Z" fill="white"/>
</svg>
