<svg width="37" height="37" viewBox="0 0 37 37" fill="none" xmlns="http://www.w3.org/2000/svg">
  <path d="M0 9.192V36.292H8.14502L11.797 31.5231V36.292H18.797C15.944 30.72 13.2299 25.4201 10.4019 19.8921C11.6019 19.8921 12.719 19.8731 13.802 19.8921H15.207L16.4069 22.2361L18.4329 26.1751L20.869 30.912L20.1119 32.871L20.029 33.087C19.798 33.692 19.5559 34.31 19.3049 34.958L18.785 36.29H25.124V20.1021H28.9809V36.29H32.625L36.2769 31.521V0H9.177C6.74189 0.0045 4.40798 0.97496 2.6875 2.69824C0.967021 4.42153 0.000526 6.7569 0 9.192Z" fill="url(#paint0_linear_272_159)"/>
  <defs>
    <linearGradient id="paint0_linear_272_159" x1="18.1384" y1="0" x2="18.1384" y2="36.292" gradientUnits="userSpaceOnUse">
      <stop stop-color="#D8B05C"/>
      <stop offset="1" stop-color="#8D7034"/>
    </linearGradient>
  </defs>
</svg>