<svg width="38" height="43" viewBox="0 0 38 43" fill="none" xmlns="http://www.w3.org/2000/svg">
<path d="M18.5851 0.140778C7.83504 0.140778 0.0912178 7.94867 0.0912178 18.3787C0.00744238 22.9129 1.63351 27.3208 4.66409 30.7747L4.46167 42.1408C4.46167 42.1408 14.5184 36.5053 14.7948 36.3442L14.7465 36.3208C16.0127 36.5515 17.2983 36.6672 18.5867 36.6665C29.3443 36.6665 37.0881 28.8586 37.0881 18.3802C37.0881 7.90179 29.3428 0.140778 18.5851 0.140778ZM28.379 18.9266C28.3019 19.0833 28.2279 19.2371 28.1358 19.3983C27.1371 21.1352 25.8037 22.6698 24.208 23.919C22.6164 25.222 20.9006 26.3752 19.0837 27.3629C18.9509 27.4285 18.7969 27.4411 18.6546 27.3981C15.8542 25.99 13.3259 24.1231 11.1812 21.8798C10.4218 21.0471 9.79493 20.109 9.32156 19.0965C8.98922 18.3757 8.75365 17.6166 8.6206 16.8376C8.33812 15.4 8.61985 13.9118 9.41052 12.6651C10.2012 11.4185 11.4437 10.5033 12.8944 10.0991C13.7197 9.91348 14.5844 9.98631 15.3643 10.3071C16.4658 10.7106 17.4816 11.3064 18.3616 12.065C18.5126 12.191 18.6728 12.3126 18.8631 12.4576C19.6653 11.7037 20.6027 11.098 21.6292 10.6704C22.7205 10.1621 23.9682 10.067 25.128 10.4038C25.2823 10.4513 25.4337 10.5075 25.5812 10.5723C26.6668 11.0348 27.5852 11.8011 28.2188 12.7731C28.8524 13.745 29.1722 14.8782 29.1373 16.0276C29.0804 17.0324 28.8229 18.0169 28.379 18.9266Z" fill="white"/>
</svg>
