<svg width="457" height="86" viewBox="0 0 457 86" fill="none" xmlns="http://www.w3.org/2000/svg">
  <g opacity="0.03">
    <path fill-rule="evenodd" clip-rule="evenodd" d="M370.041 0.483455H348.916C345.364 0.483455 342.484 3.36289 342.484 6.91486V28.0404H370.041V0.483455ZM348.916 0C345.097 0 342.001 3.09589 342.001 6.91486V28.0404V28.5238H342.484H370.041H370.525V28.0404V0.483455V0H370.041H348.916Z" fill="#0A0A0A"/>
  </g>
  <g opacity="0.02">
    <path fill-rule="evenodd" clip-rule="evenodd" d="M398.563 0.482967H377.437C373.885 0.482967 371.006 3.3624 371.006 6.91438V28.0399H398.563V0.482967ZM377.437 -0.000488281C373.618 -0.000488281 370.522 3.0954 370.522 6.91438V28.0399V28.5234H371.006H398.563H399.046V28.0399V0.482967V-0.000488281H398.563H377.437Z" fill="#0A0A0A"/>
  </g>
  <g opacity="0.03">
    <path fill-rule="evenodd" clip-rule="evenodd" d="M427.088 0.482967H405.963C402.411 0.482967 399.531 3.3624 399.531 6.91438V28.0399H427.088V0.482967ZM405.963 -0.000488281C402.144 -0.000488281 399.048 3.0954 399.048 6.91438V28.0399V28.5234H399.531H427.088H427.572V28.0399V0.482967V-0.000488281H427.088H405.963Z" fill="#0A0A0A"/>
  </g>
  <g opacity="0.03">
    <path fill-rule="evenodd" clip-rule="evenodd" d="M455.612 0.482967H434.486C430.934 0.482967 428.055 3.3624 428.055 6.91438V28.0399H455.612V0.482967ZM434.486 -0.000488281C430.667 -0.000488281 427.571 3.0954 427.571 6.91438V28.0399V28.5234H428.055H455.612H456.095V28.0399V0.482967V-0.000488281H455.612H434.486Z" fill="#0A0A0A"/>
  </g>
  <g opacity="0.03">
    <path fill-rule="evenodd" clip-rule="evenodd" d="M370.041 29.0049H348.916C345.364 29.0049 342.484 31.8844 342.484 35.4363V56.5619H370.041V29.0049ZM348.916 28.5215C345.097 28.5215 342.001 31.6174 342.001 35.4363V56.5619V57.0453H342.484H370.041H370.525V56.5619V29.0049V28.5215H370.041H348.916Z" fill="#0A0A0A"/>
  </g>
  <g opacity="0.03">
    <path fill-rule="evenodd" clip-rule="evenodd" d="M398.564 29.0049H377.438C373.886 29.0049 371.007 31.8844 371.007 35.4363V56.5619H398.564V29.0049ZM377.438 28.5215C373.619 28.5215 370.523 31.6174 370.523 35.4363V56.5619V57.0453H371.007H398.564H399.047V56.5619V29.0049V28.5215H398.564H377.438Z" fill="#0A0A0A"/>
  </g>
  <g opacity="0.03">
    <path fill-rule="evenodd" clip-rule="evenodd" d="M427.086 29.0049H405.961C402.409 29.0049 399.529 31.8844 399.529 35.4363V56.5619H427.086V29.0049ZM405.961 28.5215C402.142 28.5215 399.046 31.6174 399.046 35.4363V56.5619V57.0453H399.529H427.086H427.57V56.5619V29.0049V28.5215H427.086H405.961Z" fill="#0A0A0A"/>
  </g>
  <g opacity="0.03">
    <path fill-rule="evenodd" clip-rule="evenodd" d="M455.614 29.0049H434.488C430.936 29.0049 428.057 31.8844 428.057 35.4363V56.5619H455.614V29.0049ZM434.488 28.5215C430.669 28.5215 427.573 31.6174 427.573 35.4363V56.5619V57.0453H428.057H455.614H456.097V56.5619V29.0049V28.5215H455.614H434.488Z" fill="#0A0A0A"/>
  </g>
  <g opacity="0.03">
    <path fill-rule="evenodd" clip-rule="evenodd" d="M370.041 57.5337H348.916C345.364 57.5337 342.484 60.4132 342.484 63.9652V85.0907H370.041V57.5337ZM348.916 57.0503C345.097 57.0503 342.001 60.1462 342.001 63.9652V85.0907V85.5741H342.484H370.041H370.525V85.0907V57.5337V57.0503H370.041H348.916Z" fill="#0A0A0A"/>
  </g>
  <g opacity="0.03">
    <path fill-rule="evenodd" clip-rule="evenodd" d="M398.564 57.5333H377.438C373.886 57.5333 371.007 60.4127 371.007 63.9647V85.0902H398.564V57.5333ZM377.438 57.0498C373.619 57.0498 370.523 60.1457 370.523 63.9647V85.0902V85.5736H371.007H398.564H399.047V85.0902V57.5333V57.0498H398.564H377.438Z" fill="#0A0A0A"/>
  </g>
  <g opacity="0.03">
    <path fill-rule="evenodd" clip-rule="evenodd" d="M427.086 57.5337H405.961C402.409 57.5337 399.529 60.4132 399.529 63.9652V85.0907H427.086V57.5337ZM405.961 57.0503C402.142 57.0503 399.046 60.1462 399.046 63.9652V85.0907V85.5741H399.529H427.086H427.57V85.0907V57.5337V57.0503H427.086H405.961Z" fill="#0A0A0A"/>
  </g>
  <g opacity="0.03">
    <path fill-rule="evenodd" clip-rule="evenodd" d="M455.614 57.5333H434.488C430.936 57.5333 428.057 60.4127 428.057 63.9647V85.0902H455.614V57.5333ZM434.488 57.0498C430.669 57.0498 427.573 60.1457 427.573 63.9647V85.0902V85.5736H428.057H455.614H456.097V85.0902V57.5333V57.0498H455.614H434.488Z" fill="#0A0A0A"/>
  </g>
  <g opacity="0.07">
    <path fill-rule="evenodd" clip-rule="evenodd" d="M256.039 0.483455H234.914C231.362 0.483455 228.482 3.36289 228.482 6.91486V28.0404H256.039V0.483455ZM234.914 0C231.095 0 227.999 3.09589 227.999 6.91486V28.0404V28.5238H228.482H256.039H256.523V28.0404V0.483455V0H256.039H234.914Z" fill="#0A0A0A"/>
  </g>
  <g opacity="0.07">
    <path fill-rule="evenodd" clip-rule="evenodd" d="M284.564 0.482967H263.438C259.886 0.482967 257.007 3.3624 257.007 6.91438V28.0399H284.564V0.482967ZM263.438 -0.000488281C259.619 -0.000488281 256.523 3.0954 256.523 6.91438V28.0399V28.5234H257.007H284.564H285.047V28.0399V0.482967V-0.000488281H284.564H263.438Z" fill="#0A0A0A"/>
  </g>
  <g opacity="0.07">
    <path fill-rule="evenodd" clip-rule="evenodd" d="M313.088 0.482967H291.963C288.411 0.482967 285.531 3.3624 285.531 6.91438V28.0399H313.088V0.482967ZM291.963 -0.000488281C288.144 -0.000488281 285.048 3.0954 285.048 6.91438V28.0399V28.5234H285.531H313.088H313.572V28.0399V0.482967V-0.000488281H313.088H291.963Z" fill="#0A0A0A"/>
  </g>
  <g opacity="0.07">
    <path fill-rule="evenodd" clip-rule="evenodd" d="M341.613 0.482967H320.487C316.935 0.482967 314.056 3.3624 314.056 6.91438V28.0399H341.613V0.482967ZM320.487 -0.000488281C316.668 -0.000488281 313.572 3.0954 313.572 6.91438V28.0399V28.5234H314.056H341.613H342.096V28.0399V0.482967V-0.000488281H341.613H320.487Z" fill="#0A0A0A"/>
  </g>
  <g opacity="0.07">
    <path fill-rule="evenodd" clip-rule="evenodd" d="M256.041 29.0049H234.916C231.364 29.0049 228.484 31.8844 228.484 35.4363V56.5619H256.041V29.0049ZM234.916 28.5215C231.097 28.5215 228.001 31.6174 228.001 35.4363V56.5619V57.0453H228.484H256.041H256.525V56.5619V29.0049V28.5215H256.041H234.916Z" fill="#0A0A0A"/>
  </g>
  <g opacity="0.07">
    <path fill-rule="evenodd" clip-rule="evenodd" d="M284.564 29.0049H263.438C259.886 29.0049 257.007 31.8844 257.007 35.4363V56.5619H284.564V29.0049ZM263.438 28.5215C259.619 28.5215 256.523 31.6174 256.523 35.4363V56.5619V57.0453H257.007H284.564H285.047V56.5619V29.0049V28.5215H284.564H263.438Z" fill="#0A0A0A"/>
  </g>
  <g opacity="0.07">
    <path fill-rule="evenodd" clip-rule="evenodd" d="M313.088 29.0049H291.963C288.411 29.0049 285.531 31.8844 285.531 35.4363V56.5619H313.088V29.0049ZM291.963 28.5215C288.144 28.5215 285.048 31.6174 285.048 35.4363V56.5619V57.0453H285.531H313.088H313.572V56.5619V29.0049V28.5215H313.088H291.963Z" fill="#0A0A0A"/>
  </g>
  <g opacity="0.07">
    <path fill-rule="evenodd" clip-rule="evenodd" d="M341.613 29.0049H320.487C316.935 29.0049 314.056 31.8844 314.056 35.4363V56.5619H341.613V29.0049ZM320.487 28.5215C316.668 28.5215 313.572 31.6174 313.572 35.4363V56.5619V57.0453H314.056H341.613H342.096V56.5619V29.0049V28.5215H341.613H320.487Z" fill="#0A0A0A"/>
  </g>
  <g opacity="0.07">
    <path fill-rule="evenodd" clip-rule="evenodd" d="M256.041 57.5337H234.916C231.364 57.5337 228.484 60.4132 228.484 63.9652V85.0907H256.041V57.5337ZM234.916 57.0503C231.097 57.0503 228.001 60.1462 228.001 63.9652V85.0907V85.5741H228.484H256.041H256.525V85.0907V57.5337V57.0503H256.041H234.916Z" fill="#0A0A0A"/>
  </g>
  <g opacity="0.07">
    <path fill-rule="evenodd" clip-rule="evenodd" d="M284.564 57.5337H263.438C259.886 57.5337 257.007 60.4132 257.007 63.9652V85.0907H284.564V57.5337ZM263.438 57.0503C259.619 57.0503 256.523 60.1462 256.523 63.9652V85.0907V85.5741H257.007H284.564H285.047V85.0907V57.5337V57.0503H284.564H263.438Z" fill="#0A0A0A"/>
  </g>
  <g opacity="0.07">
    <path fill-rule="evenodd" clip-rule="evenodd" d="M313.09 57.5337H291.965C288.413 57.5337 285.533 60.4132 285.533 63.9652V85.0907H313.09V57.5337ZM291.965 57.0503C288.146 57.0503 285.05 60.1462 285.05 63.9652V85.0907V85.5741H285.533H313.09H313.574V85.0907V57.5337V57.0503H313.09H291.965Z" fill="#0A0A0A"/>
  </g>
  <g opacity="0.07">
    <path fill-rule="evenodd" clip-rule="evenodd" d="M341.613 57.5333H320.487C316.935 57.5333 314.056 60.4127 314.056 63.9647V85.0902H341.613V57.5333ZM320.487 57.0498C316.668 57.0498 313.572 60.1457 313.572 63.9647V85.0902V85.5736H314.056H341.613H342.096V85.0902V57.5333V57.0498H341.613H320.487Z" fill="#0A0A0A"/>
  </g>
  <g opacity="0.07">
    <path fill-rule="evenodd" clip-rule="evenodd" d="M142.039 0.483455H120.914C117.362 0.483455 114.482 3.36289 114.482 6.91486V28.0404H142.039V0.483455ZM120.914 0C117.095 0 113.999 3.09589 113.999 6.91486V28.0404V28.5238H114.482H142.039H142.523V28.0404V0.483455V0H142.039H120.914Z" fill="#0A0A0A"/>
  </g>
  <g opacity="0.07">
    <path fill-rule="evenodd" clip-rule="evenodd" d="M170.564 0.482967H149.438C145.886 0.482967 143.007 3.3624 143.007 6.91438V28.0399H170.564V0.482967ZM149.438 -0.000488281C145.619 -0.000488281 142.523 3.0954 142.523 6.91438V28.0399V28.5234H143.007H170.564H171.047V28.0399V0.482967V-0.000488281H170.564H149.438Z" fill="#0A0A0A"/>
  </g>
  <g opacity="0.07">
    <path fill-rule="evenodd" clip-rule="evenodd" d="M199.088 0.482967H177.963C174.411 0.482967 171.531 3.3624 171.531 6.91438V28.0399H199.088V0.482967ZM177.963 -0.000488281C174.144 -0.000488281 171.048 3.0954 171.048 6.91438V28.0399V28.5234H171.531H199.088H199.572V28.0399V0.482967V-0.000488281H199.088H177.963Z" fill="#0A0A0A"/>
  </g>
  <g opacity="0.07">
    <path fill-rule="evenodd" clip-rule="evenodd" d="M227.613 0.482967H206.487C202.935 0.482967 200.056 3.3624 200.056 6.91438V28.0399H227.613V0.482967ZM206.487 -0.000488281C202.668 -0.000488281 199.572 3.0954 199.572 6.91438V28.0399V28.5234H200.056H227.613H228.096V28.0399V0.482967V-0.000488281H227.613H206.487Z" fill="#0A0A0A"/>
  </g>
  <g opacity="0.07">
    <path fill-rule="evenodd" clip-rule="evenodd" d="M142.041 29.0049H120.916C117.364 29.0049 114.484 31.8844 114.484 35.4363V56.5619H142.041V29.0049ZM120.916 28.5215C117.097 28.5215 114.001 31.6174 114.001 35.4363V56.5619V57.0453H114.484H142.041H142.525V56.5619V29.0049V28.5215H142.041H120.916Z" fill="#0A0A0A"/>
  </g>
  <g opacity="0.07">
    <path fill-rule="evenodd" clip-rule="evenodd" d="M170.564 29.0049H149.438C145.886 29.0049 143.007 31.8844 143.007 35.4363V56.5619H170.564V29.0049ZM149.438 28.5215C145.619 28.5215 142.523 31.6174 142.523 35.4363V56.5619V57.0453H143.007H170.564H171.047V56.5619V29.0049V28.5215H170.564H149.438Z" fill="#0A0A0A"/>
  </g>
  <g opacity="0.07">
    <path fill-rule="evenodd" clip-rule="evenodd" d="M199.088 29.0049H177.963C174.411 29.0049 171.531 31.8844 171.531 35.4363V56.5619H199.088V29.0049ZM177.963 28.5215C174.144 28.5215 171.048 31.6174 171.048 35.4363V56.5619V57.0453H171.531H199.088H199.572V56.5619V29.0049V28.5215H199.088H177.963Z" fill="#0A0A0A"/>
  </g>
  <g opacity="0.07">
    <path fill-rule="evenodd" clip-rule="evenodd" d="M227.613 29.0049H206.487C202.935 29.0049 200.056 31.8844 200.056 35.4363V56.5619H227.613V29.0049ZM206.487 28.5215C202.668 28.5215 199.572 31.6174 199.572 35.4363V56.5619V57.0453H200.056H227.613H228.096V56.5619V29.0049V28.5215H227.613H206.487Z" fill="#0A0A0A"/>
  </g>
  <g opacity="0.07">
    <path fill-rule="evenodd" clip-rule="evenodd" d="M142.041 57.5337H120.916C117.364 57.5337 114.484 60.4132 114.484 63.9652V85.0907H142.041V57.5337ZM120.916 57.0503C117.097 57.0503 114.001 60.1462 114.001 63.9652V85.0907V85.5741H114.484H142.041H142.525V85.0907V57.5337V57.0503H142.041H120.916Z" fill="#0A0A0A"/>
  </g>
  <g opacity="0.07">
    <path fill-rule="evenodd" clip-rule="evenodd" d="M170.564 57.5337H149.438C145.886 57.5337 143.007 60.4132 143.007 63.9652V85.0907H170.564V57.5337ZM149.438 57.0503C145.619 57.0503 142.523 60.1462 142.523 63.9652V85.0907V85.5741H143.007H170.564H171.047V85.0907V57.5337V57.0503H170.564H149.438Z" fill="#0A0A0A"/>
  </g>
  <g opacity="0.07">
    <path fill-rule="evenodd" clip-rule="evenodd" d="M199.09 57.5337H177.965C174.413 57.5337 171.533 60.4132 171.533 63.9652V85.0907H199.09V57.5337ZM177.965 57.0503C174.146 57.0503 171.05 60.1462 171.05 63.9652V85.0907V85.5741H171.533H199.09H199.574V85.0907V57.5337V57.0503H199.09H177.965Z" fill="#0A0A0A"/>
  </g>
  <g opacity="0.07">
    <path fill-rule="evenodd" clip-rule="evenodd" d="M227.613 57.5333H206.487C202.935 57.5333 200.056 60.4127 200.056 63.9647V85.0902H227.613V57.5333ZM206.487 57.0498C202.668 57.0498 199.572 60.1457 199.572 63.9647V85.0902V85.5736H200.056H227.613H228.096V85.0902V57.5333V57.0498H227.613H206.487Z" fill="#0A0A0A"/>
  </g>
  <g opacity="0.03">
    <path fill-rule="evenodd" clip-rule="evenodd" d="M28.0404 0.483455H6.91487C3.3629 0.483455 0.483455 3.36289 0.483455 6.91486V28.0404H28.0404V0.483455ZM6.91487 0C3.09589 0 0 3.09589 0 6.91486V28.0404V28.5238H0.483455H28.0404H28.5238V28.0404V0.483455V0H28.0404H6.91487Z" fill="#0A0A0A"/>
  </g>
  <g opacity="0.02">
    <path fill-rule="evenodd" clip-rule="evenodd" d="M56.5638 0.482967H35.4383C31.8863 0.482967 29.0069 3.3624 29.0069 6.91438V28.0399H56.5638V0.482967ZM35.4383 -0.000488281C31.6193 -0.000488281 28.5234 3.0954 28.5234 6.91438V28.0399V28.5234H29.0069H56.5638H57.0473V28.0399V0.482967V-0.000488281H56.5638H35.4383Z" fill="#0A0A0A"/>
  </g>
  <g opacity="0.03">
    <path fill-rule="evenodd" clip-rule="evenodd" d="M85.0892 0.482967H63.9637C60.4117 0.482967 57.5323 3.3624 57.5323 6.91438V28.0399H85.0892V0.482967ZM63.9637 -0.000488281C60.1447 -0.000488281 57.0488 3.0954 57.0488 6.91438V28.0399V28.5234H57.5323H85.0892H85.5727V28.0399V0.482967V-0.000488281H85.0892H63.9637Z" fill="#0A0A0A"/>
  </g>
  <g opacity="0.03">
    <path fill-rule="evenodd" clip-rule="evenodd" d="M113.611 0.482967H92.4852C88.9332 0.482967 86.0538 3.3624 86.0538 6.91438V28.0399H113.611V0.482967ZM92.4852 -0.000488281C88.6662 -0.000488281 85.5703 3.0954 85.5703 6.91438V28.0399V28.5234H86.0538H113.611H114.094V28.0399V0.482967V-0.000488281H113.611H92.4852Z" fill="#0A0A0A"/>
  </g>
  <g opacity="0.03">
    <path fill-rule="evenodd" clip-rule="evenodd" d="M28.0414 29.0045H6.91585C3.36387 29.0045 0.484432 31.8839 0.484432 35.4359V56.5614H28.0414V29.0045ZM6.91585 28.521C3.09687 28.521 0.000976562 31.6169 0.000976562 35.4359V56.5614V57.0448H0.484432H28.0414H28.5248V56.5614V29.0045V28.521H28.0414H6.91585Z" fill="#0A0A0A"/>
  </g>
  <g opacity="0.03">
    <path fill-rule="evenodd" clip-rule="evenodd" d="M56.5628 29.0045H35.4373C31.8854 29.0045 29.0059 31.8839 29.0059 35.4359V56.5614H56.5628V29.0045ZM35.4373 28.521C31.6184 28.521 28.5225 31.6169 28.5225 35.4359V56.5614V57.0448H29.0059H56.5628H57.0463V56.5614V29.0045V28.521H56.5628H35.4373Z" fill="#0A0A0A"/>
  </g>
  <g opacity="0.03">
    <path fill-rule="evenodd" clip-rule="evenodd" d="M85.0892 29.0045H63.9637C60.4117 29.0045 57.5323 31.8839 57.5323 35.4359V56.5614H85.0892V29.0045ZM63.9637 28.521C60.1447 28.521 57.0488 31.6169 57.0488 35.4359V56.5614V57.0448H57.5323H85.0892H85.5727V56.5614V29.0045V28.521H85.0892H63.9637Z" fill="#0A0A0A"/>
  </g>
  <g opacity="0.03">
    <path fill-rule="evenodd" clip-rule="evenodd" d="M113.611 29.0045H92.4852C88.9332 29.0045 86.0538 31.8839 86.0538 35.4359V56.5614H113.611V29.0045ZM92.4852 28.521C88.6662 28.521 85.5703 31.6169 85.5703 35.4359V56.5614V57.0448H86.0538H113.611H114.094V56.5614V29.0045V28.521H113.611H92.4852Z" fill="#0A0A0A"/>
  </g>
  <g opacity="0.03">
    <path fill-rule="evenodd" clip-rule="evenodd" d="M28.0433 57.5337H6.9178C3.36583 57.5337 0.486385 60.4132 0.486385 63.9652V85.0907H28.0433V57.5337ZM6.9178 57.0503C3.09882 57.0503 0.00292969 60.1462 0.00292969 63.9652V85.0907V85.5741H0.486385H28.0433H28.5268V85.0907V57.5337V57.0503H28.0433H6.9178Z" fill="#0A0A0A"/>
  </g>
  <g opacity="0.03">
    <path fill-rule="evenodd" clip-rule="evenodd" d="M56.5638 57.5337H35.4383C31.8863 57.5337 29.0069 60.4132 29.0069 63.9652V85.0907H56.5638V57.5337ZM35.4383 57.0503C31.6193 57.0503 28.5234 60.1462 28.5234 63.9652V85.0907V85.5741H29.0069H56.5638H57.0473V85.0907V57.5337V57.0503H56.5638H35.4383Z" fill="#0A0A0A"/>
  </g>
  <g opacity="0.03">
    <path fill-rule="evenodd" clip-rule="evenodd" d="M85.0892 57.5333H63.9637C60.4117 57.5333 57.5323 60.4127 57.5323 63.9647V85.0902H85.0892V57.5333ZM63.9637 57.0498C60.1447 57.0498 57.0488 60.1457 57.0488 63.9647V85.0902V85.5736H57.5323H85.0892H85.5727V85.0902V57.5333V57.0498H85.0892H63.9637Z" fill="#0A0A0A"/>
  </g>
  <g opacity="0.03">
    <path fill-rule="evenodd" clip-rule="evenodd" d="M113.611 57.5333H92.4852C88.9332 57.5333 86.0538 60.4127 86.0538 63.9647V85.0902H113.611V57.5333ZM92.4852 57.0498C88.6662 57.0498 85.5703 60.1457 85.5703 63.9647V85.0902V85.5736H86.0538H113.611H114.094V85.0902V57.5333V57.0498H113.611H92.4852Z" fill="#0A0A0A"/>
  </g>
</svg>