<svg width="191" height="20" viewBox="0 0 191 20" fill="none" xmlns="http://www.w3.org/2000/svg">
<path d="M43.0194 3.93328C43.6771 3.91172 44.331 4.03811 44.9299 4.30252C45.5287 4.56693 46.0561 4.96216 46.4707 5.45719L49.9871 3.22881C49.1682 2.1995 48.1109 1.37112 46.9005 0.810518C45.6901 0.249919 44.3607 -0.0271851 43.0194 0.00157464C37.9267 0.00157464 34.2623 3.69361 34.2623 8.62624C34.2623 13.5589 37.9267 17.2731 43.0194 17.2731C44.361 17.3032 45.691 17.0255 46.9006 16.4626C48.1103 15.8996 49.1652 15.0675 49.9793 14.0341L46.4628 11.7946C46.0547 12.2982 45.5291 12.701 44.9291 12.9698C44.3292 13.2387 43.672 13.366 43.0115 13.3414C40.0078 13.3414 38.4867 10.9862 38.4867 8.62624C38.4867 6.26625 40.0186 3.93328 43.0194 3.93328Z" fill="white"/>
<path d="M56.0288 0.28763H51.8237V16.9634H56.0288V0.28763Z" fill="white"/>
<path d="M68.9137 0.289705H63.9477L57.7502 16.9634H62.1777L63.186 13.8678H69.7054L70.7137 16.9634H75.1241L68.9137 0.289705ZM64.1679 10.7735L66.4307 3.84251L68.6992 10.7735H64.1679Z" fill="white"/>
<path d="M81.0684 0.28763H76.8382V16.9634H87.4876V13.128H81.0684V0.28763Z" fill="white"/>
<path d="M103.348 7.05867C102.02 6.70194 99.9793 6.39161 99.9793 5.08104C99.9793 4.1286 100.79 3.48786 102.02 3.48786C102.558 3.43516 103.098 3.56892 103.544 3.8654C103.991 4.16189 104.314 4.60191 104.457 5.10737L108.339 4.17639C107.682 1.52547 105.174 0.0015583 102.221 0.0015583C98.632 0.0015583 95.8944 1.90714 95.8944 5.09975C95.8944 7.88574 97.4434 9.43598 100.88 10.2457C102.822 10.7209 104.523 10.9128 104.523 12.1513C104.523 13.2472 103.441 13.7951 101.99 13.7951C100.12 13.7951 99.2091 12.772 98.986 11.8188L95.0991 12.9853C95.8679 16.083 98.8744 17.2738 102.048 17.2738C106.35 17.2738 108.785 14.796 108.785 12.0737C108.789 9.48447 107.567 8.19745 103.348 7.05867Z" fill="white"/>
<path d="M114.962 10.3649H120.57V6.72132H114.962V4.1466H121.356V0.28763H110.755V16.9634H121.579V13.128H114.962V10.3649Z" fill="white"/>
<path d="M128.269 0.28763H124.039V16.9634H134.688V13.128H128.269L128.269 0.28763Z" fill="white"/>
<path d="M141.133 0.28763H136.901V16.9634H147.553V13.128H141.134L141.133 0.28763Z" fill="white"/>
<path d="M153.972 0.28763H149.767V16.9634H153.972V0.28763Z" fill="white"/>
<path d="M167.327 10.0081L160.612 0.28763H156.923V16.9634H161.155V7.24292L167.868 16.9634H171.558V0.28763H167.327V10.0081Z" fill="white"/>
<path d="M182.65 7.31498V10.5561H186.857C186.583 11.4119 186.018 12.1529 185.255 12.6586C184.491 13.1644 183.573 13.4052 182.65 13.3421C179.647 13.3421 178.101 10.9869 178.101 8.62694C178.101 6.26695 179.65 3.90211 182.65 3.90211C183.31 3.88225 183.966 4.01172 184.565 4.28023C185.164 4.54874 185.69 4.94889 186.102 5.44888L189.593 3.2205C188.779 2.19234 187.726 1.36489 186.52 0.805523C185.313 0.246158 183.988 -0.0293015 182.65 0.0015761C177.535 0.0015761 173.893 3.69361 173.893 8.62624C173.893 13.5589 177.534 17.2731 182.65 17.2731C183.702 17.327 184.751 17.1392 185.713 16.7251C186.675 16.3109 187.522 15.6822 188.184 14.8902L188.757 16.9628H190.772V7.31498H182.65Z" fill="white"/>
<path d="M8.24502 7.05869C6.91197 6.69642 4.8702 6.38678 4.8702 5.07552C4.8702 4.12308 5.68119 3.48234 6.91197 3.48234C7.44939 3.43101 7.98824 3.56542 8.43322 3.8618C8.8782 4.15817 9.20063 4.59742 9.3435 5.10185L13.2304 4.17087C12.5688 1.52549 10.0587 0.00157928 7.10792 0.00157928C3.51642 0.00157928 0.780234 1.90717 0.780234 5.09977C0.780234 7.88576 2.32926 9.436 5.76558 10.2458C7.71008 10.7209 9.40858 10.9128 9.40858 12.1513C9.40858 13.2472 8.32512 13.7951 6.8755 13.7951C5.00608 13.7951 4.09498 12.772 3.87185 11.8188L0 12.9853C0.766646 16.083 3.76386 17.2738 6.937 17.2738C11.2394 17.2738 13.6745 14.796 13.6745 12.0738C13.6752 9.48449 12.4437 8.19747 8.24502 7.05869Z" fill="white"/>
<path d="M23.8446 0.140779C18.7556 0.140779 15.0897 3.83281 15.0897 8.76475C15.05 10.9088 15.8198 12.9931 17.2545 14.6263L17.1586 20.0009C17.1586 20.0009 21.9194 17.3361 22.0503 17.2599L22.0274 17.2488C22.6268 17.3579 23.2354 17.4126 23.8453 17.4123C28.938 17.4123 32.6038 13.7202 32.6038 8.76545C32.6038 3.81064 28.9372 0.140779 23.8446 0.140779ZM28.481 9.02382C28.4445 9.09794 28.4095 9.17067 28.3658 9.24687C27.8931 10.0682 27.2618 10.7939 26.5064 11.3845C25.753 12.0006 24.9407 12.5459 24.0806 13.013C24.0178 13.044 23.9449 13.05 23.8775 13.0296C22.5518 12.3638 21.3549 11.481 20.3397 10.4203C19.9801 10.0265 19.6834 9.58292 19.4593 9.10417C19.302 8.76334 19.1904 8.40437 19.1275 8.03605C18.9937 7.35622 19.1271 6.65253 19.5014 6.06303C19.8757 5.47353 20.4639 5.04078 21.1506 4.84968C21.5413 4.76189 21.9507 4.79633 22.3199 4.94804C22.8413 5.13882 23.3222 5.42055 23.7388 5.77927C23.8103 5.83884 23.8861 5.89633 23.9762 5.96491C24.356 5.6084 24.7997 5.32202 25.2857 5.11983C25.8023 4.87944 26.3929 4.83449 26.942 4.99376C27.015 5.01619 27.0867 5.04279 27.1565 5.07342C27.6704 5.29212 28.1052 5.65449 28.4051 6.11407C28.7051 6.57366 28.8565 7.10952 28.84 7.65299C28.813 8.12813 28.6911 8.59368 28.481 9.02382Z" fill="white"/>
</svg>
