<svg width="179" height="35" viewBox="0 0 179 35" fill="none" xmlns="http://www.w3.org/2000/svg">
  <path d="M53.5934 13.8052H53.8188L53.0206 18.0986H41.8672V17.8724L42.6242 17.7495C43.2182 17.6671 43.3407 17.5233 43.3407 17.0507V4.76619C43.3407 4.29365 43.2178 4.1498 42.6242 4.06782L41.8672 3.94446V3.71863H48.2527V3.94446L47.2087 4.06782C46.6359 4.1498 46.513 4.31415 46.513 4.76619V16.8033C46.513 17.5426 46.7383 17.8095 47.5361 17.7483L49.8691 17.6272C51.1376 17.5244 51.4654 17.0932 52.5498 15.3879L53.5934 13.8052Z" fill="white"/>
  <path d="M55.7785 12.8805V4.76606C55.7785 4.29352 55.6148 4.19066 55.042 4.06769L54.4688 3.94433V3.7185H60.7105V3.94433L59.6465 4.08818C59.0733 4.14967 58.9505 4.33451 58.9505 4.78656V12.778C58.9505 15.5923 60.1384 17.1754 62.6548 17.1754C65.0902 17.1754 66.6045 15.6758 66.5636 12.7381L66.4408 5.50841C66.4408 4.6047 66.1746 4.2965 65.3972 4.11166L64.5177 3.94433V3.7185H68.5272V3.94433L67.9332 4.10868C67.2579 4.31402 67.1164 4.72507 67.0942 5.48493L66.9523 12.8197C66.8707 16.2091 65.1703 18.3046 61.5291 18.3046C57.6203 18.3039 55.7785 16.3317 55.7785 12.8805ZM58.6438 1.3968C58.6423 1.21294 58.6772 1.03062 58.7466 0.860468C58.816 0.690311 58.9184 0.535722 59.0479 0.405714C59.1774 0.275706 59.3314 0.172881 59.501 0.103233C59.6705 0.0335853 59.8521 -0.00149126 60.0352 4.85857e-05C60.8334 4.85857e-05 61.4679 0.616436 61.4679 1.3968C61.4679 2.17716 60.8334 2.79504 60.0352 2.79504C59.852 2.79658 59.6702 2.76145 59.5006 2.69171C59.331 2.62197 59.1769 2.51901 59.0474 2.38885C58.9179 2.25868 58.8155 2.10391 58.7462 1.93358C58.6769 1.76325 58.6421 1.58077 58.6438 1.3968ZM62.4502 1.3968C62.4487 1.21296 62.4837 1.03066 62.5531 0.860527C62.6225 0.690393 62.7249 0.535824 62.8544 0.405827C62.984 0.275829 63.1379 0.173001 63.3074 0.103336C63.4769 0.0336701 63.6585 -0.00144086 63.8417 4.85857e-05C64.6398 4.85857e-05 65.2743 0.616436 65.2743 1.3968C65.2743 2.17716 64.6398 2.79504 63.8417 2.79504C63.6584 2.79653 63.4767 2.76137 63.3071 2.69161C63.1375 2.62185 62.9834 2.51889 62.8539 2.38873C62.7244 2.25858 62.622 2.10383 62.5527 1.93352C62.4834 1.76322 62.4485 1.58076 62.4502 1.3968Z" fill="white"/>
  <path d="M84.1867 10.6212C84.1867 15.2024 80.851 18.0991 76.1236 18.0991H69.3906V17.8729L70.1476 17.75C70.7416 17.6676 70.8641 17.5237 70.8641 17.0512V4.76631C70.8641 4.29377 70.7412 4.14992 70.1476 4.06794L69.3906 3.94458V3.71875H76.1039C80.544 3.71875 84.1867 6.06058 84.1867 10.6212ZM76.1848 17.7082C78.8452 17.7082 80.8098 15.0582 80.8098 10.9291C80.8098 6.45076 78.6195 4.1093 75.4267 4.1093H74.0361V16.5992C74.0361 17.4619 74.1589 17.7082 75.0184 17.7082H76.1848Z" fill="white"/>
  <path d="M100.39 10.6212C100.39 15.2024 97.0542 18.0991 92.3267 18.0991H85.5938V17.8729L86.3507 17.75C86.9447 17.6676 87.0672 17.5237 87.0672 17.0512V4.76631C87.0672 4.29377 86.9443 4.14992 86.3507 4.06794L85.5938 3.94458V3.71875H92.3063C96.7472 3.71875 100.39 6.06058 100.39 10.6212ZM92.388 17.7082C95.0483 17.7082 97.013 15.0582 97.013 10.9291C97.013 6.45076 94.8226 4.1093 91.6299 4.1093H90.2384V16.5992C90.2384 17.4619 90.3613 17.7082 91.2208 17.7082H92.388Z" fill="white"/>
  <path d="M113.429 13.8873H113.654L112.917 18.0984H101.805V17.8722L102.562 17.7492C103.156 17.6668 103.278 17.523 103.278 17.0505V4.76631C103.278 4.29377 103.156 4.14992 102.562 4.06794L101.805 3.94458V3.71875H112.917L113.245 7.76552H113.02L111.976 6.0002C111.157 4.68544 110.851 4.25427 109.582 4.17191L106.45 4.02508V10.5799L110.973 10.1073L111.075 10.1897V11.0114L106.45 10.8471V16.8045C106.45 17.5439 106.675 17.8107 107.474 17.7496L109.807 17.6262C111.035 17.5234 111.362 17.0717 112.405 15.4074L113.429 13.8873Z" fill="white"/>
  <path d="M114.617 18.0988V17.8726L115.313 17.7082C115.947 17.5647 116.093 17.1537 116.132 16.4758L116.827 4.76631C116.868 4.29377 116.705 4.14992 116.132 4.06794L115.352 3.94458V3.71875H120.182L124.336 15.7156H124.44L128.411 3.71875H133.22V3.94458L132.483 4.06794C131.91 4.17042 131.767 4.31427 131.787 4.76631L132.401 17.0508C132.421 17.5439 132.524 17.6471 133.097 17.7496L133.834 17.8726V18.0988H127.633V17.8726L128.39 17.7496C129.086 17.6262 129.25 17.5234 129.23 17.0508L128.656 4.88966H128.554L124.032 18.0988H121.904L117.257 4.88966H117.155L116.705 16.4553C116.664 17.2565 116.991 17.5647 117.789 17.7082L118.69 17.8726V18.0988H114.617Z" fill="white"/>
  <path d="M147.629 16.7221C147.915 17.4824 148.202 17.7082 149.039 17.8726V18.0988H142.574V17.8726C144.356 17.6672 144.6 17.4626 144.272 16.5992L142.738 12.47H137.867L136.496 16.3525C136.127 17.4209 136.291 17.6672 138.215 17.8726V18.0988H134.102V17.8726C135.002 17.6862 135.309 17.4414 135.718 16.4143L140.057 5.27984L139.504 3.82123L139.586 3.71875H142.738L147.629 16.7221ZM138.01 12.0795H142.594L140.282 5.89623H140.179L138.01 12.0795Z" fill="white"/>
  <path d="M159.621 3.71875H163.591V3.94458L163.039 4.10893C162.364 4.33477 162.2 4.72532 162.2 5.48518L162.036 18.0988H160.215L151.456 5.34133H151.333L151.497 16.3115C151.517 17.2152 151.783 17.5234 152.561 17.7082L153.441 17.8726V18.0988H149.391V17.8726L150.025 17.7082C150.7 17.5219 150.864 17.0922 150.864 16.332L151.007 4.72532C150.7 4.37613 150.332 4.17042 149.882 4.04744L149.554 3.94458V3.71875H154.118L161.608 14.5633H161.731L161.545 5.50381C161.545 4.6001 161.259 4.29191 160.502 4.10707L159.621 3.94272L159.621 3.71875Z" fill="white"/>
  <path d="M174.576 3.71875H178.546V3.94458L177.994 4.10893C177.319 4.33477 177.155 4.72532 177.155 5.48518L176.991 18.0988H175.17L166.41 5.34133H166.288L166.452 16.3115C166.472 17.2152 166.738 17.5234 167.516 17.7082L168.396 17.8726V18.0988H164.344V17.8726L164.978 17.7082C165.654 17.5219 165.817 17.0922 165.817 16.332L165.961 4.72532C165.654 4.37613 165.285 4.17042 164.835 4.04744L164.507 3.94458V3.71875H169.071L176.561 14.5633H176.684L176.498 5.50381C176.498 4.6001 176.212 4.29191 175.455 4.10707L174.575 3.94272L174.576 3.71875Z" fill="white"/>
  <path d="M45.0372 32.9894H42.8203V23.11H45.0372V32.9894Z" fill="#A38753"/>
  <path d="M56.1285 32.9894H53.8911L49.8349 26.7821C49.5968 26.4194 49.4321 26.1461 49.3407 25.9623H49.3132C49.3499 26.3104 49.3682 26.8428 49.3682 27.5595V32.9894H47.275V23.11H49.6617L53.567 29.1245C53.7455 29.3958 53.9103 29.6645 54.0612 29.9307H54.0887C54.052 29.701 54.0337 29.2485 54.0337 28.5734V23.11H56.127L56.1285 32.9894Z" fill="#A38753"/>
  <path d="M66.5747 23.1101L63.184 32.9896H60.6722L57.3228 23.1101H59.7113L61.7633 29.9859C61.8731 30.3577 61.9395 30.6861 61.9625 30.9709H62.0035C62.0435 30.6271 62.1152 30.2878 62.2177 29.9573L64.2559 23.1092L66.5747 23.1101Z" fill="#A38753"/>
  <path d="M73.6575 32.9894H67.7552V23.11H73.431V24.9222H69.9733V27.1199H73.192V28.9251H69.9721V31.1849H73.6575V32.9894Z" fill="#A38753"/>
  <path d="M74.4411 32.4796V30.2748C74.8251 30.6021 75.2644 30.8576 75.7382 31.0292C76.1915 31.1945 76.6699 31.2796 77.1522 31.2807C77.398 31.2844 77.6434 31.2589 77.8832 31.2049C78.067 31.1641 78.2428 31.0932 78.4034 30.9948C78.5321 30.9167 78.6394 30.8078 78.7158 30.6778C78.7841 30.5572 78.8196 30.4206 78.8186 30.2819C78.821 30.0962 78.7632 29.9148 78.654 29.7649C78.5296 29.5998 78.3775 29.4576 78.2045 29.3447C77.99 29.2027 77.7644 29.0784 77.5298 28.9731C77.2687 28.8535 76.9873 28.7317 76.6856 28.6079C75.9165 28.2866 75.3434 27.8939 74.9662 27.4299C74.589 26.9659 74.4002 26.4052 74.3998 25.7479C74.3998 25.2335 74.5028 24.7914 74.7089 24.4216C74.9125 24.0543 75.2007 23.7413 75.5494 23.5087C75.9258 23.2614 76.343 23.0835 76.7817 22.9835C77.2675 22.8688 77.7651 22.8122 78.2642 22.8148C78.72 22.8106 79.1754 22.8414 79.6265 22.907C80.0003 22.9634 80.3672 23.0592 80.721 23.193V25.2531C80.5513 25.1354 80.371 25.0339 80.1824 24.9499C79.9879 24.8626 79.7871 24.79 79.5818 24.7327C79.3802 24.6764 79.175 24.6338 78.9677 24.6053C78.775 24.5786 78.5808 24.5649 78.3863 24.5641C78.1555 24.5618 77.9252 24.586 77.6999 24.6363C77.5169 24.6758 77.3413 24.7445 77.1798 24.8396C77.0475 24.9176 76.9348 25.0249 76.8502 25.1532C76.7722 25.2754 76.7317 25.4179 76.7336 25.563C76.7314 25.7209 76.7769 25.8759 76.864 26.0075C76.9646 26.1524 77.0901 26.2784 77.2345 26.3794C77.4188 26.5108 77.6139 26.6261 77.8177 26.7241C78.0466 26.8365 78.3052 26.9524 78.5934 27.0718C78.9584 27.2231 79.3128 27.3992 79.654 27.5988C79.95 27.7714 80.2213 27.9835 80.4603 28.2294C80.6826 28.4605 80.8574 28.7332 80.975 29.032C81.0941 29.3328 81.1537 29.683 81.1537 30.0825C81.1537 30.6338 81.0495 31.0966 80.8412 31.4709C80.6381 31.8398 80.3468 32.1523 79.9936 32.3804C79.6369 32.6124 79.2216 32.7789 78.748 32.8798C78.2548 32.9828 77.7523 33.0335 77.2486 33.0312C76.7318 33.0334 76.2159 32.9873 75.7076 32.8936C75.2203 32.8015 74.7981 32.6635 74.4411 32.4796Z" fill="#A38753"/>
  <path d="M90.0267 24.922H87.2195V32.9895H84.9959V24.922H82.2025V23.1098H90.0267V24.922Z" fill="#A38753"/>
  <path d="M102.566 32.9894H100.377V27.0785C100.377 26.44 100.404 25.735 100.459 24.9634H100.404C100.29 25.5693 100.187 26.0056 100.095 26.2722L97.7891 32.9894H95.9773L93.6301 26.3413C93.5658 26.1619 93.4628 25.7026 93.321 24.9634H93.2598C93.3192 25.9371 93.3489 26.7913 93.3489 27.526V32.9894H91.3517V23.11H94.5979L96.6089 28.966C96.7669 29.4256 96.8841 29.8985 96.959 30.3789H97.0012C97.107 29.8971 97.2375 29.4211 97.3922 28.9528L99.4032 23.1106H102.567L102.566 32.9894Z" fill="#A38753"/>
  <path d="M110.706 32.9894H104.804V23.11H110.48V24.9222H107.022V27.1199H110.241V28.9251H107.021V31.1849H110.706V32.9894Z" fill="#A38753"/>
  <path d="M121.138 32.9894H118.901L114.845 26.7821C114.607 26.4194 114.442 26.1461 114.351 25.9623H114.323C114.36 26.3104 114.378 26.8428 114.378 27.5595V32.9894H112.284V23.11H114.673L118.578 29.1245C118.757 29.3958 118.921 29.6645 119.073 29.9307H119.1C119.063 29.701 119.045 29.2485 119.045 28.5734V23.11H121.138V32.9894Z" fill="#A38753"/>
  <path d="M130.301 24.922H127.494V32.9895H125.27V24.922H122.477V23.1098H130.301V24.922Z" fill="#A38753"/>
  <path d="M131.173 32.6108V30.4061C131.557 30.7333 131.996 30.9888 132.47 31.1604C132.923 31.3258 133.401 31.4109 133.884 31.412C134.13 31.4156 134.375 31.3902 134.615 31.3361C134.799 31.2954 134.974 31.2244 135.135 31.126C135.264 31.0478 135.371 30.9389 135.447 30.8091C135.516 30.6884 135.551 30.5519 135.55 30.4131C135.553 30.2275 135.495 30.046 135.386 29.8962C135.261 29.731 135.109 29.5888 134.936 29.476C134.721 29.3337 134.495 29.2093 134.26 29.104C133.999 28.9844 133.718 28.8627 133.416 28.7388C132.647 28.4175 132.074 28.0249 131.697 27.5609C131.319 27.0968 131.131 26.5363 131.131 25.8792C131.131 25.3648 131.234 24.9227 131.44 24.5529C131.644 24.1857 131.933 23.8729 132.282 23.6406C132.658 23.3931 133.075 23.2151 133.513 23.1147C133.999 23.0001 134.496 22.9435 134.995 22.9461C135.451 22.9418 135.907 22.9726 136.358 23.0383C136.732 23.0944 137.099 23.1901 137.453 23.3236V25.3837C137.283 25.266 137.103 25.1645 136.915 25.0805C136.72 24.9933 136.519 24.9207 136.314 24.8634C136.112 24.807 135.907 24.7645 135.7 24.7359C135.507 24.7093 135.313 24.6955 135.118 24.6948C134.888 24.6925 134.657 24.7167 134.432 24.7669C134.248 24.8064 134.072 24.875 133.91 24.9703C133.778 25.0484 133.666 25.1556 133.581 25.2839C133.503 25.406 133.462 25.5485 133.464 25.6936C133.462 25.8516 133.508 26.0066 133.595 26.1381C133.695 26.283 133.821 26.409 133.965 26.5101C134.149 26.6414 134.344 26.7567 134.548 26.8547C134.777 26.9671 135.035 27.083 135.324 27.2024C135.689 27.3538 136.043 27.5299 136.384 27.7295C136.68 27.902 136.952 28.1141 137.191 28.3601C137.413 28.5912 137.588 28.8639 137.705 29.1627C137.824 29.4635 137.884 29.8137 137.884 30.2132C137.884 30.7644 137.78 31.2272 137.572 31.6015C137.368 31.9704 137.077 32.2829 136.724 32.511C136.367 32.743 135.952 32.9095 135.478 33.0105C134.985 33.1134 134.483 33.1642 133.979 33.1619C133.462 33.164 132.946 33.118 132.438 33.0243C131.951 32.9325 131.53 32.7947 131.173 32.6108Z" fill="#A38753"/>
  <path d="M0 10.0295V34.5766H7.35071L10.6466 30.2563V34.5766H16.966C14.3918 29.5263 11.9427 24.7286 9.39257 19.7241C10.4762 19.7241 11.4834 19.7069 12.4621 19.7241H13.7302L14.8165 21.8482L16.643 25.4158L18.8412 29.7066L18.1589 31.4809L18.0846 31.6769C17.8767 32.2258 17.6584 32.7845 17.4308 33.371L16.9616 34.5781H22.6807V19.913H26.1615V34.5766H29.4504L32.7459 30.2563V1.70459H8.29517C3.71471 1.70534 0.00185624 5.43198 0 10.0295Z" fill="url(#paint0_linear_861_697)"/>
  <defs>
    <linearGradient id="paint0_linear_861_697" x1="-7.60157e-08" y1="6.01616" x2="19.5" y2="20.7891" gradientUnits="userSpaceOnUse">
      <stop stop-color="white"/>
      <stop offset="0.535" stop-color="#D5D5D5"/>
      <stop offset="1" stop-color="white"/>
    </linearGradient>
  </defs>
</svg>