<svg width="195" height="38" viewBox="0 0 195 38" fill="none" xmlns="http://www.w3.org/2000/svg">
  <path d="M58.5315 15.0774H58.7776L57.9058 19.7665H45.7246V19.5195L46.5513 19.3852C47.2001 19.2952 47.3339 19.1381 47.3339 18.622V5.20543C47.3339 4.68934 47.1997 4.53224 46.5513 4.4427L45.7246 4.30798V4.06133H52.6985V4.30798L51.5584 4.4427C50.9327 4.53224 50.7985 4.71173 50.7985 5.20543V18.3518C50.7985 19.1593 51.0446 19.4507 51.916 19.3839L54.4639 19.2517C55.8494 19.1393 56.2074 18.6684 57.3917 16.806L58.5315 15.0774Z" fill="#0F2736"/>
  <path d="M60.9178 14.0675V5.20527C60.9178 4.68919 60.739 4.57685 60.1133 4.44254L59.4873 4.30782V4.06117H66.3043V4.30782L65.1423 4.46493C64.5162 4.53208 64.382 4.73396 64.382 5.22766V13.9555C64.382 17.0292 65.6795 18.7582 68.4277 18.7582C71.0875 18.7582 72.7414 17.1204 72.6968 13.912L72.5626 6.01603C72.5626 5.02904 72.2719 4.69244 71.4228 4.49057L70.4623 4.30782V4.06117H74.8413V4.30782L74.1925 4.48731C73.455 4.71157 73.3005 5.1605 73.2762 5.99039L73.1213 14.0011C73.0321 17.7028 71.1751 19.9914 67.1983 19.9914C62.9293 19.9906 60.9178 17.8368 60.9178 14.0675ZM64.0471 1.52552C64.0454 1.32472 64.0836 1.1256 64.1594 0.939764C64.2352 0.753926 64.347 0.585091 64.4885 0.443103C64.6299 0.301114 64.7981 0.188813 64.9832 0.112746C65.1684 0.0366803 65.3667 -0.00162868 65.5668 5.30631e-05C66.4385 5.30631e-05 67.1314 0.673243 67.1314 1.52552C67.1314 2.37779 66.4385 3.05261 65.5668 3.05261C65.3666 3.05429 65.1681 3.01593 64.9829 2.93977C64.7976 2.8636 64.6294 2.75115 64.4879 2.60899C64.3464 2.46683 64.2346 2.2978 64.1589 2.11177C64.0832 1.92575 64.0452 1.72645 64.0471 1.52552ZM68.2043 1.52552C68.2027 1.32474 68.2409 1.12564 68.3167 0.939828C68.3925 0.754016 68.5043 0.585203 68.6458 0.443225C68.7872 0.301248 68.9554 0.188944 69.1405 0.112859C69.3256 0.0367729 69.5239 -0.00157365 69.724 5.30631e-05C70.5957 5.30631e-05 71.2886 0.673243 71.2886 1.52552C71.2886 2.37779 70.5957 3.05261 69.724 3.05261C69.5238 3.05424 69.3253 3.01584 69.1401 2.93965C68.9549 2.86347 68.7867 2.75102 68.6452 2.60887C68.5037 2.46672 68.3919 2.29771 68.3162 2.11171C68.2405 1.92571 68.2025 1.72643 68.2043 1.52552Z" fill="#0F2736"/>
  <path d="M91.9438 11.6C91.9438 16.6034 88.3007 19.7671 83.1376 19.7671H75.7842V19.52L76.6109 19.3857C77.2596 19.2957 77.3934 19.1386 77.3934 18.6225V5.20555C77.3934 4.68946 77.2592 4.53235 76.6109 4.44281L75.7842 4.30809V4.06145H83.1161C87.9654 4.06145 91.9438 6.61908 91.9438 11.6ZM83.2045 19.3401C86.11 19.3401 88.2557 16.4459 88.2557 11.9362C88.2557 7.04522 85.8635 4.48799 82.3766 4.48799H80.8577V18.1288C80.8577 19.0711 80.9919 19.3401 81.9305 19.3401H83.2045Z" fill="#0F2736"/>
  <path d="M109.64 11.6C109.64 16.6034 105.997 19.7671 100.834 19.7671H93.4805V19.52L94.3072 19.3857C94.9559 19.2957 95.0897 19.1386 95.0897 18.6225V5.20555C95.0897 4.68946 94.9555 4.53235 94.3072 4.44281L93.4805 4.30809V4.06145H100.812C105.662 4.06145 109.64 6.61908 109.64 11.6ZM100.901 19.3401C103.806 19.3401 105.952 16.4459 105.952 11.9362C105.952 7.04522 103.56 4.48799 100.073 4.48799H98.5532V18.1288C98.5532 19.0711 98.6874 19.3401 99.626 19.3401H100.901Z" fill="#0F2736"/>
  <path d="M123.881 15.1671H124.127L123.322 19.7662H111.186V19.5192L112.013 19.3849C112.661 19.2949 112.795 19.1378 112.795 18.6217V5.20555C112.795 4.68946 112.661 4.53235 112.013 4.44281L111.186 4.30809V4.06145H123.322L123.68 8.48114H123.434L122.294 6.55315C121.4 5.11722 121.065 4.64632 119.679 4.55637L116.259 4.39601V11.5549L121.199 11.0388L121.311 11.1287V12.0262L116.259 11.8467V18.3531C116.259 19.1606 116.505 19.452 117.377 19.3853L119.925 19.2506C121.266 19.1382 121.624 18.6449 122.763 16.8272L123.881 15.1671Z" fill="#0F2736"/>
  <path d="M125.179 19.7666V19.5196L125.939 19.3401C126.631 19.1834 126.79 18.7345 126.833 17.9941L127.592 5.20555C127.637 4.68946 127.459 4.53235 126.833 4.44281L125.981 4.30809V4.06145H131.256L135.793 17.1638H135.907L140.243 4.06145H145.496V4.30809L144.691 4.44281C144.065 4.55474 143.909 4.71185 143.931 5.20555L144.601 18.6221C144.624 19.1606 144.736 19.2734 145.361 19.3853L146.166 19.5196V19.7666H139.394V19.5196L140.221 19.3853C140.981 19.2506 141.16 19.1382 141.138 18.6221L140.511 5.34026H140.4L135.461 19.7666H133.137L128.062 5.34026H127.95L127.459 17.9717C127.414 18.8468 127.771 19.1834 128.643 19.3401L129.627 19.5196V19.7666H125.179Z" fill="#0F2736"/>
  <path d="M161.233 18.2632C161.546 19.0935 161.858 19.3401 162.773 19.5196V19.7666H155.712V19.5196C157.658 19.2953 157.925 19.0719 157.567 18.1288L155.891 13.6192H150.571L149.074 17.8594C148.672 19.0263 148.85 19.2953 150.951 19.5196V19.7666H146.459V19.5196C147.442 19.3161 147.778 19.0487 148.224 17.927L152.963 5.7664L152.359 4.17337L152.449 4.06145H155.891L161.233 18.2632ZM150.728 13.1927H155.734L153.209 6.43959H153.097L150.728 13.1927Z" fill="#0F2736"/>
  <path d="M174.33 4.06145H178.666V4.30809L178.063 4.48758C177.326 4.73423 177.147 5.16077 177.147 5.99066L176.968 19.7666H174.979L165.413 5.83356H165.279L165.457 17.8146C165.48 18.8016 165.77 19.1382 166.619 19.3401L167.581 19.5196V19.7666H163.157V19.5196L163.85 19.3401C164.588 19.1366 164.766 18.6673 164.766 17.837L164.923 5.16077C164.588 4.77941 164.185 4.55474 163.694 4.42043L163.336 4.30809V4.06145H168.32L176.501 15.9054H176.635L176.432 6.01101C176.432 5.02402 176.119 4.68742 175.292 4.48555L174.331 4.30606L174.33 4.06145Z" fill="#0F2736"/>
  <path d="M190.664 4.06145H195V4.30809L194.396 4.48758C193.659 4.73423 193.48 5.16077 193.48 5.99066L193.301 19.7666H191.312L181.745 5.83356H181.612L181.79 17.8146C181.813 18.8016 182.103 19.1382 182.953 19.3401L183.914 19.5196V19.7666H179.488V19.5196L180.181 19.3401C180.919 19.1366 181.098 18.6673 181.098 17.837L181.254 5.16077C180.919 4.77941 180.517 4.55474 180.025 4.42043L179.667 4.30809V4.06145H184.651L192.832 15.9054H192.966L192.763 6.01101C192.763 5.02402 192.45 4.68742 191.623 4.48555L190.662 4.30606L190.664 4.06145Z" fill="#0F2736"/>
  <path d="M49.1878 36.0295H46.7666V25.2397H49.1878V36.0295Z" fill="#A38753"/>
  <path d="M61.3012 36.0295H58.8576L54.4276 29.2501C54.1676 28.8541 53.9877 28.5556 53.8879 28.3548H53.8578C53.8979 28.735 53.9179 29.3165 53.9179 30.0992V36.0295H51.6318V25.2397H54.2384L58.5037 31.8084C58.6986 32.1047 58.8785 32.3983 59.0434 32.689H59.0735C59.0334 32.4381 59.0133 31.9439 59.0133 31.2066V25.2397H61.2995L61.3012 36.0295Z" fill="#A38753"/>
  <path d="M72.7101 25.2398L69.0069 36.0297H66.2636L62.6055 25.2398H65.2142L67.4553 32.7492C67.5751 33.1553 67.6477 33.5139 67.6728 33.825H67.7176C67.7612 33.4495 67.8396 33.0789 67.9515 32.718L70.1776 25.2388L72.7101 25.2398Z" fill="#A38753"/>
  <path d="M80.4455 36.0295H73.9993V25.2397H80.1982V27.2189H76.4219V29.6192H79.9372V31.5907H76.4205V34.0587H80.4455V36.0295Z" fill="#A38753"/>
  <path d="M81.3014 35.4727V33.0648C81.7208 33.4222 82.2006 33.7012 82.718 33.8887C83.2131 34.0692 83.7356 34.1622 84.2623 34.1634C84.5308 34.1674 84.7987 34.1395 85.0607 34.0805C85.2614 34.036 85.4534 33.9585 85.6288 33.8511C85.7693 33.7658 85.8866 33.6468 85.97 33.5049C86.0446 33.3731 86.0833 33.224 86.0823 33.0725C86.0849 32.8697 86.0218 32.6716 85.9025 32.5079C85.7666 32.3275 85.6005 32.1722 85.4116 32.049C85.1774 31.8938 84.9309 31.7581 84.6747 31.6431C84.3895 31.5124 84.0822 31.3795 83.7527 31.2442C82.9128 30.8933 82.2868 30.4645 81.8749 29.9577C81.4629 29.4509 81.2568 28.8386 81.2563 28.1207C81.2563 27.5589 81.3688 27.076 81.5938 26.6721C81.8162 26.271 82.131 25.9292 82.5119 25.6751C82.9228 25.405 83.3786 25.2108 83.8576 25.1015C84.3882 24.9763 84.9317 24.9145 85.4768 24.9173C85.9745 24.9127 86.4719 24.9463 86.9646 25.018C87.3729 25.0796 87.7736 25.1842 88.16 25.3303V27.5802C87.9746 27.4517 87.7777 27.3408 87.5718 27.2491C87.3593 27.1538 87.14 27.0745 86.9158 27.012C86.6956 26.9504 86.4715 26.9039 86.2451 26.8727C86.0347 26.8437 85.8225 26.8286 85.6101 26.8278C85.3581 26.8253 85.1066 26.8517 84.8605 26.9066C84.6606 26.9498 84.4688 27.0248 84.2924 27.1287C84.148 27.2139 84.0249 27.331 83.9325 27.4712C83.8473 27.6046 83.803 27.7603 83.8052 27.9187C83.8028 28.0912 83.8524 28.2604 83.9475 28.4041C84.0575 28.5625 84.1945 28.7 84.3522 28.8104C84.5535 28.9539 84.7666 29.0798 84.9892 29.1868C85.2392 29.3096 85.5216 29.4361 85.8364 29.5665C86.235 29.7319 86.622 29.9242 86.9947 30.1422C87.3179 30.3306 87.6142 30.5623 87.8753 30.8309C88.118 31.0833 88.309 31.3811 88.4374 31.7075C88.5675 32.036 88.6325 32.4184 88.6325 32.8548C88.6325 33.4568 88.5188 33.9622 88.2913 34.3711C88.0694 34.774 87.7513 35.1153 87.3656 35.3644C86.976 35.6177 86.5224 35.7996 86.0051 35.9098C85.4665 36.0223 84.9177 36.0777 84.3676 36.0752C83.8032 36.0776 83.2398 36.0272 82.6846 35.9249C82.1524 35.8243 81.6913 35.6735 81.3014 35.4727Z" fill="#A38753"/>
  <path d="M98.3233 27.2187H95.2574V36.0297H92.8288V27.2187H89.778V25.2395H98.3233V27.2187Z" fill="#A38753"/>
  <path d="M112.018 36.0295H109.627V29.5739C109.627 28.8766 109.657 28.1065 109.717 27.2639H109.657C109.532 27.9256 109.42 28.4021 109.32 28.6933L106.801 36.0295H104.822L102.259 28.7688C102.189 28.5728 102.076 28.0712 101.921 27.2639H101.854C101.919 28.3273 101.952 29.2602 101.952 30.0626V36.0295H99.7703V25.2397H103.316L105.512 31.6353C105.685 32.1373 105.813 32.6537 105.894 33.1784H105.94C106.056 32.6522 106.199 32.1323 106.368 31.6209L108.564 25.2403H112.02L112.018 36.0295Z" fill="#A38753"/>
  <path d="M120.908 36.0295H114.462V25.2397H120.661V27.2189H116.885V29.6192H120.4V31.5907H116.883V34.0587H120.908V36.0295Z" fill="#A38753"/>
  <path d="M132.302 36.0295H129.858L125.428 29.2501C125.168 28.8541 124.988 28.5556 124.889 28.3548H124.859C124.899 28.735 124.919 29.3165 124.919 30.0992V36.0295H122.632V25.2397H125.241L129.506 31.8084C129.701 32.1047 129.881 32.3983 130.046 32.689H130.076C130.036 32.4381 130.016 31.9439 130.016 31.2066V25.2397H132.302V36.0295Z" fill="#A38753"/>
  <path d="M142.309 27.2187H139.243V36.0297H136.814V27.2187H133.764V25.2395H142.309V27.2187Z" fill="#A38753"/>
  <path d="M143.261 35.6161V33.2081C143.68 33.5655 144.16 33.8446 144.678 34.032C145.173 34.2126 145.695 34.3056 146.222 34.3068C146.49 34.3107 146.758 34.2829 147.02 34.2239C147.221 34.1794 147.413 34.1019 147.588 33.9944C147.729 33.909 147.846 33.7901 147.93 33.6482C148.004 33.5165 148.043 33.3674 148.042 33.2158C148.044 33.013 147.981 32.8149 147.862 32.6512C147.726 32.4709 147.56 32.3156 147.371 32.1923C147.136 32.0369 146.889 31.9011 146.633 31.7861C146.348 31.6555 146.041 31.5225 145.711 31.3872C144.871 31.0363 144.245 30.6075 143.833 30.1007C143.421 29.5939 143.215 28.9817 143.216 28.264C143.216 27.7022 143.328 27.2194 143.553 26.8155C143.776 26.4145 144.091 26.0729 144.472 25.8192C144.883 25.5489 145.338 25.3544 145.817 25.2449C146.348 25.1197 146.891 25.0579 147.436 25.0607C147.934 25.056 148.431 25.0896 148.924 25.1613C149.333 25.2227 149.734 25.3271 150.12 25.473V27.7229C149.935 27.5944 149.738 27.4835 149.532 27.3918C149.32 27.2965 149.1 27.2172 148.876 27.1547C148.656 27.0931 148.432 27.0466 148.205 27.0154C147.995 26.9863 147.783 26.9713 147.57 26.9705C147.318 26.968 147.067 26.9944 146.821 27.0493C146.62 27.0924 146.428 27.1674 146.251 27.2714C146.107 27.3567 145.984 27.4738 145.891 27.6139C145.806 27.7473 145.762 27.9029 145.764 28.0614C145.761 28.234 145.811 28.4032 145.906 28.5468C146.016 28.7051 146.153 28.8426 146.31 28.9531C146.512 29.0966 146.725 29.2225 146.947 29.3295C147.197 29.4522 147.48 29.5788 147.795 29.7092C148.193 29.8745 148.58 30.0669 148.953 30.2849C149.276 30.4733 149.572 30.705 149.833 30.9736C150.076 31.226 150.267 31.5238 150.396 31.8501C150.526 32.1787 150.591 32.5611 150.59 32.9974C150.59 33.5995 150.477 34.1049 150.25 34.5137C150.028 34.9166 149.71 35.258 149.324 35.507C148.934 35.7604 148.48 35.9423 147.963 36.0525C147.425 36.165 146.876 36.2204 146.326 36.2179C145.761 36.2202 145.198 36.1699 144.643 36.0676C144.112 35.9674 143.651 35.8169 143.261 35.6161Z" fill="#A38753"/>
  <path d="M0 10.9538V37.763H8.02811L11.6278 33.0445V37.763H18.5295C15.7181 32.2472 13.0432 27.0074 10.2581 21.5417C11.4417 21.5417 12.5417 21.523 13.6105 21.5417H14.9955L16.1819 23.8616L18.1768 27.7579L20.5775 32.4442L19.8323 34.382L19.7512 34.596C19.5241 35.1956 19.2857 35.8057 19.0372 36.4463L18.5247 37.7646H24.7708V21.748H28.5724V37.763H32.1643L35.7636 33.0445V1.86164H9.0596C4.05703 1.86246 0.0020273 5.93253 0 10.9538Z" fill="#0F2736"/>
</svg>