<svg width="181" height="35" viewBox="0 0 181 35" fill="none" xmlns="http://www.w3.org/2000/svg">
  <path d="M54.1679 13.9504H54.3956L53.589 18.289H42.3184V18.0605L43.0833 17.9362C43.6835 17.853 43.8073 17.7076 43.8073 17.2301V4.81639C43.8073 4.33888 43.6832 4.19352 43.0833 4.11067L42.3184 3.98602V3.75781H48.771V3.98602L47.716 4.11067C47.1372 4.19352 47.013 4.35959 47.013 4.81639V16.98C47.013 17.7272 47.2407 17.9968 48.0469 17.9351L50.4044 17.8127C51.6863 17.7087 52.0175 17.273 53.1134 15.5498L54.1679 13.9504Z" fill="#FDFBF4"/>
  <path d="M56.3763 13.0159V4.81618C56.3763 4.33867 56.2108 4.23473 55.632 4.11046L55.0527 3.98581V3.7576H61.3602V3.98581L60.285 4.13117C59.7057 4.19331 59.5816 4.38009 59.5816 4.83689V12.9123C59.5816 15.7563 60.7821 17.356 63.3248 17.356C65.7858 17.356 67.3161 15.8407 67.2748 12.8721L67.1506 5.56633C67.1506 4.65312 66.8816 4.34168 66.0961 4.1549L65.2073 3.98581V3.7576H69.259V3.98581L68.6587 4.15188C67.9763 4.35938 67.8334 4.77475 67.8109 5.54261L67.6676 12.9545C67.5851 16.3796 65.8669 18.4971 62.1874 18.4971C58.2374 18.4963 56.3763 16.5034 56.3763 13.0159ZM59.2717 1.41148C59.2701 1.2257 59.3055 1.04146 59.3756 0.869516C59.4457 0.69757 59.5492 0.541356 59.6801 0.409981C59.8109 0.278606 59.9666 0.174699 60.1379 0.104319C60.3091 0.0339384 60.4927 -0.00150694 60.6778 4.90966e-05C61.4843 4.90966e-05 62.1255 0.622918 62.1255 1.41148C62.1255 2.20005 61.4843 2.82443 60.6778 2.82443C60.4926 2.82598 60.3089 2.79049 60.1375 2.72002C59.9661 2.64954 59.8104 2.5455 59.6795 2.41397C59.5486 2.28243 59.4451 2.12604 59.3751 1.95392C59.3051 1.7818 59.2699 1.5974 59.2717 1.41148ZM63.1181 1.41148C63.1166 1.22571 63.152 1.0415 63.2221 0.869576C63.2922 0.697653 63.3957 0.541459 63.5266 0.410094C63.6575 0.278729 63.8131 0.174821 63.9843 0.104422C64.1556 0.0340242 64.3391 -0.00145601 64.5242 4.90966e-05C65.3308 4.90966e-05 65.9719 0.622918 65.9719 1.41148C65.9719 2.20005 65.3308 2.82443 64.5242 2.82443C64.339 2.82593 64.1554 2.79041 63.984 2.71991C63.8126 2.64942 63.657 2.54538 63.5261 2.41385C63.3952 2.28233 63.2917 2.12595 63.2217 1.95386C63.1516 1.78176 63.1164 1.59738 63.1181 1.41148Z" fill="#FDFBF4"/>
  <path d="M85.0825 10.7329C85.0825 15.3622 81.7118 18.2894 76.9346 18.2894H70.1309V18.0608L70.8958 17.9366C71.496 17.8533 71.6198 17.708 71.6198 17.2305V4.81639C71.6198 4.33888 71.4957 4.19352 70.8958 4.11067L70.1309 3.98602V3.75781H76.9147C81.4015 3.75781 85.0825 6.12426 85.0825 10.7329ZM76.9965 17.8944C79.6848 17.8944 81.6701 15.2165 81.6701 11.044C81.6701 6.51855 79.4568 4.15247 76.2304 4.15247H74.8251V16.7737C74.8251 17.6455 74.9493 17.8944 75.8178 17.8944H76.9965Z" fill="#FDFBF4"/>
  <path d="M101.458 10.7329C101.458 15.3622 98.0868 18.2894 93.3096 18.2894H86.5059V18.0608L87.2708 17.9366C87.871 17.8533 87.9948 17.708 87.9948 17.2305V4.81639C87.9948 4.33888 87.8707 4.19352 87.2708 4.11067L86.5059 3.98602V3.75781H93.289C97.7765 3.75781 101.458 6.12426 101.458 10.7329ZM93.3715 17.8944C96.0598 17.8944 98.0452 15.2165 98.0452 11.044C98.0452 6.51855 95.8318 4.15247 92.6055 4.15247H91.1994V16.7737C91.1994 17.6455 91.3236 17.8944 92.192 17.8944H93.3715Z" fill="#FDFBF4"/>
  <path d="M114.635 14.0333H114.863L114.118 18.2887H102.889V18.0601L103.654 17.9358C104.254 17.8526 104.378 17.7072 104.378 17.2297V4.81639C104.378 4.33888 104.254 4.19352 103.654 4.11067L102.889 3.98602V3.75781H114.118L114.449 7.84713H114.222L113.167 6.06326C112.339 4.73467 112.03 4.29896 110.747 4.21574L107.583 4.06736V10.6911L112.153 10.2136L112.257 10.2968V11.1272L107.583 10.9611V16.9812C107.583 17.7283 107.811 17.9979 108.617 17.9362L110.975 17.8115C112.216 17.7076 112.547 17.2512 113.601 15.5694L114.635 14.0333Z" fill="#FDFBF4"/>
  <path d="M115.834 18.289V18.0605L116.537 17.8944C117.178 17.7494 117.325 17.334 117.364 16.649L118.067 4.81639C118.109 4.33888 117.943 4.19352 117.364 4.11067L116.576 3.98602V3.75781H121.457L125.655 15.8808H125.761L129.772 3.75781H134.632V3.98602L133.888 4.11067C133.309 4.21423 133.164 4.35959 133.184 4.81639L133.805 17.2301C133.826 17.7283 133.929 17.8326 134.508 17.9362L135.253 18.0605V18.289H128.987V18.0605L129.752 17.9362C130.455 17.8115 130.621 17.7076 130.6 17.2301L130.02 4.94104H129.917L125.348 18.289H123.197L118.502 4.94104H118.398L117.943 16.6283C117.902 17.438 118.233 17.7494 119.039 17.8944L119.949 18.0605V18.289H115.834Z" fill="#FDFBF4"/>
  <path d="M149.191 16.8979C149.481 17.6662 149.77 17.8944 150.616 18.0605V18.289H144.083V18.0605C145.884 17.853 146.13 17.6462 145.799 16.7737L144.248 12.6011H139.326L137.941 16.5244C137.569 17.604 137.734 17.853 139.678 18.0605V18.289H135.521V18.0605C136.431 17.8722 136.741 17.6247 137.155 16.5869L141.539 5.33532L140.981 3.86137L141.064 3.75781H144.248L149.191 16.8979ZM139.471 12.2065H144.103L141.767 5.95819H141.663L139.471 12.2065Z" fill="#FDFBF4"/>
  <path d="M161.313 3.75781H165.325V3.98602L164.766 4.1521C164.084 4.38031 163.918 4.77496 163.918 5.54282L163.753 18.289H161.913L153.062 5.39746H152.937L153.103 16.4829C153.123 17.3962 153.392 17.7076 154.178 17.8944L155.068 18.0605V18.289H150.975V18.0605L151.616 17.8944C152.298 17.7061 152.464 17.2719 152.464 16.5037L152.608 4.77496C152.298 4.42211 151.926 4.21423 151.471 4.08996L151.14 3.98602V3.75781H155.752L163.32 14.7164H163.445L163.257 5.56165C163.257 4.64843 162.967 4.337 162.203 4.15021L161.313 3.98414L161.313 3.75781Z" fill="#FDFBF4"/>
  <path d="M176.424 3.75781H180.436V3.98602L179.878 4.1521C179.195 4.38031 179.03 4.77496 179.03 5.54282L178.864 18.289H177.024L168.172 5.39746H168.049L168.214 16.4829C168.235 17.3962 168.503 17.7076 169.289 17.8944L170.179 18.0605V18.289H166.084V18.0605L166.725 17.8944C167.408 17.7061 167.573 17.2719 167.573 16.5037L167.718 4.77496C167.408 4.42211 167.035 4.21423 166.58 4.08996L166.249 3.98602V3.75781H170.861L178.43 14.7164H178.554L178.366 5.56165C178.366 4.64843 178.077 4.337 177.312 4.15021L176.422 3.98414L176.424 3.75781Z" fill="#FDFBF4"/>
  <path d="M45.5117 33.3362H43.2715V23.3528H45.5117V33.3362Z" fill="#A69577"/>
  <path d="M56.7196 33.3362H54.4587L50.3598 27.0635C50.1192 26.6971 49.9528 26.4209 49.8604 26.2351H49.8326C49.8697 26.5869 49.8883 27.1249 49.8883 27.8491V33.3362H47.773V23.3528H50.1848L54.1312 29.4306C54.3116 29.7047 54.478 29.9763 54.6306 30.2453H54.6584C54.6213 30.0132 54.6028 29.5559 54.6028 28.8737V23.3528H56.718L56.7196 33.3362Z" fill="#A69577"/>
  <path d="M67.2757 23.353L63.8493 33.3363H61.311L57.9264 23.353H60.3401L62.4137 30.301C62.5246 30.6768 62.5917 31.0086 62.615 31.2964H62.6564C62.6968 30.949 62.7692 30.6061 62.8729 30.2721L64.9325 23.352L67.2757 23.353Z" fill="#A69577"/>
  <path d="M74.4329 33.3362H68.4686V23.3528H74.2041V25.1841H70.71V27.405H73.9626V29.2291H70.7088V31.5126H74.4329V33.3362Z" fill="#A69577"/>
  <path d="M75.2248 32.821V30.593C75.6128 30.9237 76.0568 31.1819 76.5355 31.3553C76.9936 31.5224 77.477 31.6084 77.9644 31.6095C78.2128 31.6132 78.4607 31.5875 78.7031 31.5329C78.8888 31.4917 79.0664 31.4199 79.2287 31.3205C79.3587 31.2416 79.4672 31.1316 79.5445 31.0002C79.6134 30.8783 79.6493 30.7403 79.6483 30.6001C79.6507 30.4125 79.5924 30.2292 79.482 30.0778C79.3562 29.9109 79.2025 29.7672 79.0278 29.6531C78.811 29.5096 78.583 29.384 78.346 29.2776C78.0821 29.1567 77.7977 29.0337 77.4929 28.9085C76.7157 28.5839 76.1366 28.1871 75.7554 27.7182C75.3743 27.2493 75.1835 26.6827 75.1831 26.0185C75.1831 25.4987 75.2872 25.0519 75.4954 24.6782C75.7011 24.3071 75.9923 23.9908 76.3448 23.7558C76.725 23.5058 77.1467 23.3261 77.5899 23.225C78.0809 23.1091 78.5837 23.052 79.0881 23.0546C79.5486 23.0503 80.0088 23.0814 80.4647 23.1477C80.8424 23.2047 81.2132 23.3016 81.5707 23.4367V25.5185C81.3992 25.3995 81.217 25.297 81.0265 25.2121C80.8299 25.1239 80.627 25.0506 80.4195 24.9927C80.2158 24.9357 80.0084 24.8927 79.7989 24.8638C79.6042 24.8369 79.408 24.823 79.2114 24.8223C78.9782 24.8199 78.7455 24.8444 78.5179 24.8952C78.3329 24.9351 78.1554 25.0045 77.9922 25.1007C77.8586 25.1795 77.7447 25.2879 77.6592 25.4176C77.5804 25.541 77.5394 25.685 77.5414 25.8316C77.5392 25.9913 77.5851 26.1478 77.6731 26.2808C77.7749 26.4273 77.9016 26.5545 78.0476 26.6567C78.2338 26.7894 78.4309 26.9059 78.6369 27.0049C78.8682 27.1185 79.1295 27.2356 79.4208 27.3563C79.7896 27.5092 80.1477 27.6872 80.4925 27.8889C80.7916 28.0632 81.0657 28.2776 81.3073 28.5261C81.5319 28.7596 81.7086 29.0352 81.8273 29.3372C81.9477 29.6411 82.0079 29.995 82.0079 30.3987C82.0079 30.9557 81.9027 31.4234 81.6922 31.8016C81.4869 32.1744 81.1926 32.4902 80.8357 32.7207C80.4752 32.9552 80.0556 33.1234 79.5769 33.2254C79.0786 33.3295 78.5708 33.3807 78.0618 33.3784C77.5396 33.3806 77.0183 33.334 76.5046 33.2394C76.0122 33.1462 75.5856 33.0068 75.2248 32.821Z" fill="#A69577"/>
  <path d="M90.9743 25.1839H88.1376V33.3363H85.8906V25.1839H83.0678V23.3526H90.9743V25.1839Z" fill="#A69577"/>
  <path d="M103.646 33.3362H101.433V27.3631C101.433 26.7179 101.461 26.0054 101.516 25.2257H101.461C101.345 25.838 101.241 26.2789 101.149 26.5483L98.8183 33.3362H96.9875L94.6155 26.6181C94.5506 26.4369 94.4465 25.9727 94.3032 25.2257H94.2414C94.3014 26.2097 94.3314 27.0728 94.3314 27.8153V33.3362H92.3132V23.3528H95.5936L97.6257 29.2704C97.7854 29.7349 97.9037 30.2127 97.9794 30.6982H98.0221C98.129 30.2113 98.2609 29.7303 98.4172 29.257L100.449 23.3535H103.647L103.646 33.3362Z" fill="#A69577"/>
  <path d="M111.871 33.3362H105.907V23.3528H111.642V25.1841H108.148V27.405H111.401V29.2291H108.147V31.5126H111.871V33.3362Z" fill="#A69577"/>
  <path d="M122.413 33.3362H120.152L116.053 27.0635C115.813 26.6971 115.646 26.4209 115.554 26.2351H115.526C115.563 26.5869 115.582 27.1249 115.582 27.8491V33.3362H113.466V23.3528H115.88L119.826 29.4306C120.006 29.7047 120.173 29.9763 120.326 30.2453H120.353C120.316 30.0132 120.298 29.5559 120.298 28.8737V23.3528H122.413V33.3362Z" fill="#A69577"/>
  <path d="M131.672 25.1839H128.835V33.3363H126.588V25.1839H123.766V23.3526H131.672V25.1839Z" fill="#A69577"/>
  <path d="M132.553 32.9536V30.7256C132.941 31.0563 133.385 31.3145 133.864 31.4879C134.322 31.655 134.805 31.741 135.292 31.7422C135.541 31.7458 135.789 31.7201 136.031 31.6655C136.217 31.6243 136.394 31.5526 136.557 31.4532C136.687 31.3742 136.795 31.2641 136.873 31.1329C136.942 31.011 136.977 30.873 136.976 30.7328C136.979 30.5452 136.92 30.3618 136.81 30.2104C136.684 30.0435 136.531 29.8998 136.356 29.7858C136.139 29.642 135.91 29.5163 135.672 29.4099C135.409 29.2891 135.125 29.166 134.82 29.0408C134.043 28.7162 133.463 28.3194 133.082 27.8505C132.701 27.3816 132.511 26.8152 132.511 26.1511C132.511 25.6313 132.615 25.1846 132.823 24.8109C133.03 24.4399 133.321 24.1238 133.674 23.889C134.054 23.639 134.475 23.459 134.918 23.3576C135.409 23.2418 135.912 23.1846 136.416 23.1872C136.876 23.1829 137.337 23.214 137.793 23.2804C138.171 23.3371 138.542 23.4337 138.899 23.5687V25.6505C138.728 25.5315 138.546 25.429 138.355 25.3441C138.159 25.2559 137.956 25.1826 137.748 25.1247C137.544 25.0677 137.337 25.0247 137.128 24.9959C136.933 24.969 136.737 24.9551 136.54 24.9543C136.307 24.952 136.074 24.9764 135.847 25.0272C135.661 25.0671 135.483 25.1365 135.319 25.2327C135.186 25.3116 135.072 25.42 134.987 25.5496C134.908 25.673 134.867 25.817 134.869 25.9637C134.866 26.1233 134.912 26.2799 135.001 26.4128C135.102 26.5592 135.229 26.6865 135.374 26.7887C135.561 26.9214 135.758 27.0379 135.964 27.1369C136.195 27.2505 136.456 27.3676 136.748 27.4883C137.116 27.6413 137.475 27.8192 137.819 28.0209C138.118 28.1952 138.393 28.4096 138.634 28.6581C138.859 28.8917 139.035 29.1672 139.154 29.4692C139.275 29.7732 139.335 30.127 139.334 30.5307C139.334 31.0878 139.229 31.5554 139.019 31.9337C138.814 32.3065 138.519 32.6223 138.163 32.8527C137.802 33.0872 137.382 33.2554 136.904 33.3574C136.405 33.4615 135.898 33.5128 135.389 33.5104C134.866 33.5126 134.345 33.4661 133.831 33.3714C133.34 33.2787 132.914 33.1394 132.553 32.9536Z" fill="#A69577"/>
  <path d="M0.00585938 10.1347V34.9398H7.43386L10.7645 30.5741V34.9398H17.1503C14.549 29.8364 12.0741 24.9883 9.4972 19.9311C10.5923 19.9311 11.6101 19.9138 12.599 19.9311H13.8805L14.9782 22.0776L16.8239 25.6827L19.0452 30.0187L18.3557 31.8116L18.2806 32.0097C18.0705 32.5644 17.8499 33.1289 17.62 33.7216L17.1458 34.9414H22.925V20.122H26.4424V34.9398H29.7659L33.0961 30.5741V1.72217H8.38825C3.75963 1.72292 0.00773513 5.48876 0.00585938 10.1347Z" fill="#FDFBF4"/>
</svg>