<svg width="37" height="34" viewBox="0 0 37 34" fill="none" xmlns="http://www.w3.org/2000/svg">
  <rect y="0.662109" width="36.9851" height="32.4756" rx="2" fill="#303F48"/>
  <rect x="0.289961" y="0.95207" width="36.4052" height="31.8957" rx="1.71004" stroke="#DADADA" stroke-opacity="0.9" stroke-width="0.579921"/>
  <path d="M23.9758 23.859C22.6768 23.859 21.6005 23.4322 20.7469 22.5786C19.9303 21.7249 19.522 20.5001 19.522 18.9042C19.522 17.1969 20.0045 15.5082 20.9695 13.838C21.9716 12.1678 23.3634 10.8688 25.145 9.94092L26.4254 11.8895C24.4954 13.2256 23.3449 14.9143 22.9738 16.9556C23.3078 16.8072 23.6975 16.733 24.1429 16.733C25.1821 16.733 26.0357 17.067 26.7038 17.7351C27.3718 18.4031 27.7059 19.2568 27.7059 20.296C27.7059 21.3352 27.3533 22.1889 26.6481 22.8569C25.943 23.525 25.0522 23.859 23.9758 23.859ZM13.7321 23.859C12.4331 23.859 11.3568 23.4322 10.5031 22.5786C9.6866 21.7249 9.27832 20.5001 9.27832 18.9042C9.27832 17.1969 9.76082 15.5082 10.7258 13.838C11.7279 12.1678 13.1197 10.8688 14.9012 9.94092L16.1817 11.8895C14.2517 13.2256 13.1012 14.9143 12.73 16.9556C13.0641 16.8072 13.4538 16.733 13.8991 16.733C14.9384 16.733 15.792 17.067 16.46 17.7351C17.1281 18.4031 17.4622 19.2568 17.4622 20.296C17.4622 21.3352 17.1096 22.1889 16.4044 22.8569C15.6992 23.525 14.8084 23.859 13.7321 23.859Z" fill="#FDFBF4"/>
</svg>