<svg width="32" height="32" viewBox="0 0 32 32" fill="none" xmlns="http://www.w3.org/2000/svg">
<rect width="32" height="32" rx="3" fill="#A38753" fill-opacity="0.1"/>
<rect x="0.59375" y="0.59375" width="30.8125" height="30.8125" rx="2.40625" stroke="#A38753" stroke-opacity="0.2" stroke-width="1.1875"/>
<path d="M20.897 22.2143C19.737 22.2143 18.7759 21.8331 18.0136 21.0708C17.2845 20.3086 16.9199 19.2148 16.9199 17.7897C16.9199 16.2651 17.3507 14.7571 18.2125 13.2657C19.1073 11.7743 20.3502 10.6143 21.941 9.78571L23.0844 11.5257C21.361 12.7188 20.3336 14.2268 20.0022 16.0497C20.3005 15.9171 20.6485 15.8508 21.0462 15.8508C21.9742 15.8508 22.7364 16.1491 23.333 16.7457C23.9296 17.3423 24.2279 18.1046 24.2279 19.0326C24.2279 19.9606 23.913 20.7228 23.2833 21.3194C22.6536 21.916 21.8582 22.2143 20.897 22.2143ZM11.7496 22.2143C10.5896 22.2143 9.62848 21.8331 8.86619 21.0708C8.13705 20.3086 7.77246 19.2148 7.77246 17.7897C7.77246 16.2651 8.20332 14.7571 9.06503 13.2657C9.95989 11.7743 11.2027 10.6143 12.7936 9.78571L13.937 11.5257C12.2136 12.7188 11.1862 14.2268 10.8548 16.0497C11.153 15.9171 11.501 15.8508 11.8988 15.8508C12.8268 15.8508 13.589 16.1491 14.1856 16.7457C14.7822 17.3423 15.0805 18.1046 15.0805 19.0326C15.0805 19.9606 14.7656 20.7228 14.1359 21.3194C13.5062 21.916 12.7107 22.2143 11.7496 22.2143Z" fill="#A38753"/>
</svg>
