<svg width="112" height="17" viewBox="0 0 112 17" fill="none" xmlns="http://www.w3.org/2000/svg">
  <rect width="16" height="16" transform="translate(0 0.0214844)" fill="white" fill-opacity="0.01" style="mix-blend-mode:multiply"/>
  <path d="M7.99989 1.02148L5.72489 5.63148L0.639893 6.36648L4.31989 9.95648L3.44989 15.0215L7.99989 12.6315L12.5499 15.0215L11.6799 9.95648L15.3599 6.37148L10.2749 5.63148L7.99989 1.02148Z" fill="#A38753"/>
  <rect width="16" height="16" transform="translate(24 0.0214844)" fill="white" fill-opacity="0.01" style="mix-blend-mode:multiply"/>
  <path d="M31.9999 1.02148L29.7249 5.63148L24.6399 6.36648L28.3199 9.95648L27.4499 15.0215L31.9999 12.6315L36.5499 15.0215L35.6799 9.95648L39.3599 6.37148L34.2749 5.63148L31.9999 1.02148Z" fill="#A38753"/>
  <rect width="16" height="16" transform="translate(48 0.0214844)" fill="white" fill-opacity="0.01" style="mix-blend-mode:multiply"/>
  <path d="M55.9999 1.02148L53.7249 5.63148L48.6399 6.36648L52.3199 9.95648L51.4499 15.0215L55.9999 12.6315L60.5499 15.0215L59.6799 9.95648L63.3599 6.37148L58.2749 5.63148L55.9999 1.02148Z" fill="#A38753"/>
  <rect width="16" height="16" transform="translate(72 0.0214844)" fill="white" fill-opacity="0.01" style="mix-blend-mode:multiply"/>
  <path d="M79.9999 1.02148L77.7249 5.63148L72.6399 6.36648L76.3199 9.95648L75.4499 15.0215L79.9999 12.6315L84.5499 15.0215L83.6799 9.95648L87.3599 6.37148L82.2749 5.63148L79.9999 1.02148Z" fill="#A38753"/>
  <rect width="16" height="16" transform="translate(96 0.0214844)" fill="white" fill-opacity="0.01" style="mix-blend-mode:multiply"/>
  <path d="M104 1.02148L101.725 5.63148L96.6399 6.36648L100.32 9.95648L99.4499 15.0215L104 12.6315L108.55 15.0215L107.68 9.95648L111.36 6.37148L106.275 5.63148L104 1.02148Z" fill="#A38753"/>
</svg>