<svg width="98" height="16" viewBox="0 0 98 16" fill="none" xmlns="http://www.w3.org/2000/svg">
  <path d="M9 0L11.2958 5.83927L17.5 8L11.2958 10.1607L9 16L6.70423 10.1607L0.5 8L6.70423 5.83927L9 0Z" fill="#85724A"/>
  <path d="M30 0L32.0257 5.83927L37.5 8L32.0257 10.1607L30 16L27.9743 10.1607L22.5 8L27.9743 5.83927L30 0Z" fill="#85724A"/>
  <path d="M50 0L52.0257 5.83927L57.5 8L52.0257 10.1607L50 16L47.9743 10.1607L42.5 8L47.9743 5.83927L50 0Z" fill="#85724A"/>
  <path d="M70 0L72.0257 5.83927L77.5 8L72.0257 10.1607L70 16L67.9743 10.1607L62.5 8L67.9743 5.83927L70 0Z" fill="#85724A"/>
  <path d="M90 0L92.0257 5.83927L97.5 8L92.0257 10.1607L90 16L87.9743 10.1607L82.5 8L87.9743 5.83927L90 0Z" fill="#85724A"/>
</svg>