<svg width="1293" height="54" viewBox="0 0 1293 54" fill="none" xmlns="http://www.w3.org/2000/svg">
<g opacity="0.7" filter="url(#filter0_i_114_2611)">
<mask id="mask0_114_2611" style="mask-type:alpha" maskUnits="userSpaceOnUse" x="0" y="14" width="138" height="27">
<mask id="mask1_114_2611" style="mask-type:luminance" maskUnits="userSpaceOnUse" x="0" y="14" width="138" height="27">
<path d="M0.000976562 40.7274H137.567V14.4366H0.000976562V40.7274Z" fill="white"/>
</mask>
<g mask="url(#mask1_114_2611)">
<path d="M103.746 30.1056C103.504 30.3453 103.022 30.5267 102.33 30.5267H102.12C101.428 30.5267 100.946 30.3453 100.704 30.1056C100.344 29.7428 100.193 29.2612 100.193 28.0583V25.9194C100.193 24.7144 100.344 24.2328 100.704 23.8722C100.946 23.6304 101.428 23.4511 102.12 23.4511H102.33C103.022 23.4511 103.504 23.6304 103.746 23.8722C104.106 24.2328 104.257 24.7144 104.257 25.9194V28.0583C104.257 29.2612 104.106 29.7428 103.746 30.1056ZM108.995 25.4983C108.995 22.367 107.961 20.6492 105.612 20.0175C103.846 19.6256 102.63 19.6985 102.151 19.686H101.728C97.5437 19.686 95.436 21.4622 95.436 25.4983V29.1341C95.436 35.5342 101.978 34.6628 104.265 33.5391C104.261 33.7518 104.367 36.0012 103.717 36.4182C103.352 36.6517 102.881 36.9539 101.888 36.9539C100.833 36.9539 99.4596 36.8685 98.2859 36.5662C97.5333 36.3848 97.2852 36.6058 97.1956 37.1166L96.8787 38.9845C96.8474 39.195 96.8182 39.4661 96.8182 39.587C96.8182 39.9789 96.9704 40.1186 97.6167 40.252C99.9203 40.7232 101.471 40.7628 103.004 40.7086C105.712 40.6127 106.633 40.2478 107.596 39.2534C108.378 38.4404 108.995 36.7747 108.995 34.4898" fill="white"/>
</g>
<path d="M25.4253 28.7672C25.0938 28.7089 24.3975 28.6776 23.9743 28.6776H23.6408C22.2482 28.6776 21.6728 28.9194 21.6728 30.0389V30.1598C21.6728 31.2793 22.3086 31.5524 23.3677 31.5524H23.5803C24.2766 31.5524 24.729 31.3398 25.0021 31.098C25.3357 30.7957 25.4253 30.4329 25.4253 29.6157V28.7672ZM26.4552 33.4892C25.8485 34.396 24.3975 35.0006 22.49 35.0006H22.0376C19.0105 35.0006 17.1343 33.3974 17.1343 30.3412V30.0077C17.1343 26.6179 19.0418 25.5317 23.0946 25.5317H23.3072C24.0931 25.5317 24.9729 25.5901 25.4253 25.6505V25.0147C25.4253 24.4101 25.3357 23.9869 24.9125 23.6825C24.5476 23.4407 24.0931 23.3511 23.0946 23.3511C22.0376 23.3511 20.7659 23.5637 19.5838 23.866C18.8292 24.0474 18.6478 23.8055 18.5561 23.2906L18.3142 21.6874C18.2851 21.4748 18.2538 21.2017 18.2538 21.0808C18.2538 20.6889 18.3747 20.4762 18.9814 20.2948C20.2531 19.9321 22.1001 19.6298 24.1536 19.6298C26.5761 19.6298 28.1521 20.1135 29.1174 21.1121C29.9054 21.9293 30.2682 23.1092 30.2682 24.8938V33.8811C30.2682 34.4878 30.0263 34.7296 29.2383 34.7296H27.8165C27.1202 34.7296 26.8804 34.5774 26.697 34.0312L26.5156 33.4892" fill="white"/>
<path fill-rule="evenodd" clip-rule="evenodd" d="M137.571 15.3121V35.1735C137.571 36.958 137.219 38.138 136.431 38.9552C135.528 39.885 134.09 40.3624 131.938 40.425L114.026 40.4312C113.855 40.4312 113.684 40.4229 113.52 40.4104H112.442C111.781 40.4104 111.404 40.1685 111.341 39.3451C111.341 39.3411 111.34 39.3372 111.338 39.333C111.337 39.3284 111.335 39.3235 111.335 39.318V15.3038C111.335 14.6283 111.585 14.2468 112.454 14.1968H136.464C137.134 14.1968 137.524 14.4407 137.571 15.3121ZM134.343 37.2745C133.885 37.7457 132.976 38.023 131.648 38.1001H128.164V22.6626H127.964L124.524 24.174C123.811 24.4992 123.211 24.5785 122.854 23.8988L121.535 21.3075C121.141 20.5445 121.337 19.9482 122.098 19.5876L128.241 16.5522C129.04 16.1603 129.559 16.0373 130.639 16.0373H133.47C134.483 16.0373 134.86 16.2645 134.902 17.2777V34.9292C134.902 36.5115 134.581 37.0285 134.343 37.2745Z" fill="white"/>
<path d="M45.1931 33.8519C45.1931 34.4273 44.9804 34.7296 44.1632 34.7296H41.3801C40.5628 34.7296 40.3502 34.4273 40.3502 33.8519V25.2878C40.3502 24.5915 40.2606 24.1662 40.0166 23.8952C39.7748 23.6221 39.2911 23.5033 38.6866 23.5033H38.6261C38.0215 23.5033 37.5358 23.6221 37.294 23.8952C37.0521 24.1662 36.9625 24.5623 36.9625 25.2878V33.8519C36.9625 34.4273 36.7499 34.7296 35.9326 34.7296H33.1495C32.3323 34.7296 32.1196 34.4273 32.1196 33.8519V20.7493C32.1196 20.1426 32.3615 19.9008 33.1495 19.9008H34.5713C35.2676 19.9008 35.5094 20.0217 35.6908 20.5971L35.8722 21.1725H35.9639C36.9312 20.1426 38.3238 19.6298 40.1084 19.6298H40.2293C41.9846 19.6298 43.1959 19.9925 44.2237 21.0182C45.1931 20.1135 46.6461 19.6298 48.341 19.6298H48.4619C50.2465 19.6298 51.5182 20.053 52.3041 20.8681C53.1213 21.7166 53.4236 22.8361 53.4236 24.8646V33.8519C53.4236 34.4273 53.2131 34.7296 52.3938 34.7296H49.6106C48.7934 34.7296 48.5828 34.4273 48.5828 33.8519V25.2878C48.5828 24.5915 48.4911 24.1662 48.2493 23.8952C48.0075 23.6221 47.5217 23.5033 46.9171 23.5033H46.8567C46.2521 23.5033 45.7664 23.6221 45.5266 23.8952C45.2827 24.1662 45.1931 24.5623 45.1931 25.2878V33.8519ZM60.0698 29.3718C60.0698 30.0389 60.1907 30.5205 60.493 30.8249C60.7974 31.1272 61.2497 31.2168 61.8564 31.2168H62.1295C62.9446 31.2168 63.3387 31.0062 63.6118 30.6143C63.9432 30.0973 63.9745 29.3718 63.9745 27.9792V26.6804C63.9745 25.2878 63.9745 24.3788 63.5784 23.9265C63.2782 23.5637 62.855 23.4407 62.067 23.4407H61.9461C61.281 23.4407 60.7974 23.5637 60.4638 23.8952C60.1302 24.2287 60.0698 24.6811 60.0698 25.4984V29.3718ZM60.1302 20.4449C60.9787 19.93 62.1295 19.6298 63.5784 19.6298H63.8515C65.5485 19.6298 67.0287 20.2031 67.8167 21.2622C68.513 22.2003 68.8465 23.5033 68.8465 26.2551V28.4358C68.8465 30.6748 68.3921 32.4885 67.3018 33.4892C66.1218 34.5774 64.6104 35.0006 62.1295 35.0006H61.5229C58.7084 35.0006 57.2867 34.4273 56.4382 33.5184C55.8023 32.8221 55.229 31.6734 55.229 29.2217V15.1205C55.229 14.5451 55.4104 14.2407 56.2255 14.2407H59.042C59.8571 14.2407 60.0698 14.5451 60.0698 15.1205V20.4449H60.1302ZM78.5802 20.7785C78.5802 20.2031 78.7929 19.9008 79.6059 19.9008H82.3911C83.2084 19.9008 83.421 20.2031 83.421 20.7785V29.7345C83.421 31.6421 82.9978 32.8825 82.0597 33.731C80.9672 34.6983 79.3057 35.0006 76.9145 35.0006C74.5233 35.0006 72.8597 34.6983 71.7694 33.731C70.8333 32.8825 70.408 31.6421 70.408 29.7345V20.7785C70.408 20.2031 70.6207 19.9008 71.44 19.9008H74.2231C75.0403 19.9008 75.2509 20.2031 75.2509 20.7785V29.3113C75.2509 30.0389 75.3426 30.4329 75.5844 30.704C75.8263 30.9771 76.3078 31.098 76.9145 31.098C77.5212 31.098 78.0048 30.9771 78.2446 30.704C78.4864 30.4329 78.5802 30.0077 78.5802 29.3113V20.7785ZM89.154 21.5353C89.8795 20.3553 90.8781 19.9008 92.5438 19.9008H93.753C94.3888 19.9008 94.6307 20.053 94.6307 20.7493V22.9571C94.6307 23.6221 94.4201 23.8035 93.8134 23.8035H92.9066C91.7579 23.8035 91.0303 24.0161 90.6071 24.4393C90.2131 24.8333 90.0922 25.5296 90.0922 26.5282V33.8519C90.0922 34.4273 89.8795 34.7296 89.0623 34.7296H86.2792C85.462 34.7296 85.2514 34.4273 85.2514 33.8519V20.7493C85.2514 20.1426 85.4911 19.9008 86.2792 19.9008H87.7322C88.4285 19.9008 88.6704 20.053 88.8205 20.595L89.0623 21.5353H89.154ZM15.8732 33.7498C15.8732 34.5899 15.7523 34.6796 14.8225 34.6796H11.9122C10.9824 34.6796 10.8323 34.5899 10.8323 33.7498V26.9681H5.04091V33.7498C5.04091 34.5899 4.92208 34.6796 3.9902 34.6796H1.01944C0.120916 34.6796 0 34.5899 0 33.7498V16.1962C0 15.3561 0.120914 15.2664 1.05071 15.2664H3.9902C4.92208 15.2664 5.04091 15.3561 5.04091 16.1962V22.8883H10.8323V16.1962C10.8323 15.3561 10.9532 15.2664 11.883 15.2664H14.8225C15.7523 15.2664 15.8732 15.3561 15.8732 16.1962" fill="white"/>
</mask>
<g mask="url(#mask0_114_2611)">
<rect x="-17.8892" y="-21.5809" width="191.898" height="108.959" fill="#BDA67C"/>
</g>
<mask id="mask2_114_2611" style="mask-type:alpha" maskUnits="userSpaceOnUse" x="406" y="6" width="90" height="43">
<path d="M430.269 48.0901C433.959 48.1265 436.986 45.1633 437.013 41.473V41.2367C437.004 37.5191 433.987 34.5196 430.269 34.5287C426.552 34.5378 423.552 37.5555 423.561 41.2731V41.3094C423.518 43.0643 424.173 44.7645 425.384 46.0361C426.594 47.3077 428.26 48.0466 430.015 48.0901H430.269ZM430.305 46.7176C427.406 46.6994 425.079 44.3271 425.097 41.4367V41.2367C425.037 39.8642 425.524 38.524 426.451 37.5101C427.378 36.4962 428.67 35.8915 430.042 35.8285H430.26C433.16 35.8467 435.486 38.219 435.468 41.1095V41.3094C435.595 44.1635 433.378 46.5904 430.524 46.7176H430.305ZM439.749 47.8629H441.204V37.0465L449.72 47.8629H450.911V34.6741H449.457V45.2451L441.149 34.6741H439.749V47.8629ZM454.483 47.8629H463.4V46.4904H455.974V34.6741H454.483V47.8629ZM465.727 47.8629H467.209V34.6741H465.718V47.8629H465.727ZM470.826 47.8629H472.28V37.0465L480.797 47.8629H481.988V34.6741H480.534V45.2451L472.217 34.6741H470.826V47.8629ZM485.56 47.8629H495.358V46.5086H487.042V41.8911H494.413V40.5277H487.042V36.0194H495.258V34.665H485.542V47.8629H485.56Z" fill="white"/>
<path d="M406.736 32.8019H415.399C420.307 32.8019 423.106 30.6023 423.106 27.0301V26.912C423.106 24.1761 421.525 22.8036 419.298 21.9673C420.224 21.6165 421.019 20.988 421.573 20.1679C422.128 19.3478 422.416 18.3762 422.397 17.3863V17.2681C422.452 15.9774 421.952 14.7231 421.025 13.8141C419.807 12.5598 417.871 11.969 415.371 11.969H406.736V32.8019ZM417.098 18.3952C417.098 19.6768 416.144 20.3312 414.508 20.3312H411.945V16.4319H414.599C416.208 16.4319 417.098 17.1136 417.098 18.3679V18.3952ZM417.753 26.2848V26.3121C417.753 27.5937 416.771 28.339 415.108 28.339H411.954V24.267H415.08C416.835 24.267 417.762 25.0668 417.762 26.2939M434.623 10.6783H439.058V6.83344H434.623V10.6783ZM428.696 10.6783H433.132V6.83344H428.696V10.6783ZM433.877 33.1928C439.476 33.1928 443.558 28.8117 443.558 22.5945V22.1491C443.558 15.8956 439.54 11.5781 433.914 11.5781C428.287 11.5781 424.233 15.9501 424.233 22.1764V22.6218C424.233 28.8753 428.251 33.1928 433.877 33.1928ZM433.905 28.339C431.432 28.339 429.705 26.1394 429.705 22.5309V22.2037C429.705 18.6042 431.405 16.4319 433.877 16.4319C436.35 16.4319 438.077 18.6315 438.077 22.24V22.5672C438.077 26.1666 436.413 28.339 433.914 28.339M445.666 32.8019H450.993V26.3393H452.902L456.446 32.8019H462.491L458.192 25.2395C459.355 24.7067 460.332 23.8373 460.996 22.7436C461.661 21.6499 461.982 20.3822 461.918 19.1042V18.9587C462.009 17.1499 461.346 15.3866 460.1 14.0777C458.764 12.7052 456.646 11.9599 453.847 11.9599H445.657V32.8019H445.666ZM450.993 22.0855V16.6409H453.611C455.401 16.6409 456.528 17.5317 456.528 19.3223V19.3768C456.565 20.0611 456.33 20.7323 455.873 21.2434C455.417 21.7545 454.776 22.0638 454.092 22.1037C453.947 22.1037 453.792 22.1037 453.647 22.0855H451.002H450.993ZM471.189 33.1019C475.652 33.1019 478.779 30.6023 478.779 26.5484V26.4939C478.779 22.949 476.307 21.3402 472.353 20.0676C469.699 19.086 469.044 18.6133 469.044 17.6862V17.6589C469.044 16.8863 469.726 16.2864 470.953 16.2864C472.735 16.3864 474.434 17.0499 475.807 18.1952L478.516 14.205C476.414 12.5035 473.774 11.6076 471.071 11.6781C466.517 11.6781 463.627 14.3322 463.627 18.1134V18.2043C463.627 21.9855 466.399 23.4125 470.326 24.7487C472.771 25.6122 473.398 26.1212 473.398 26.9483V26.9756C473.398 27.8664 472.653 28.4935 471.226 28.4935C469.126 28.3845 467.126 27.5573 465.563 26.1394L462.709 30.0387C465.063 32.0657 468.09 33.1564 471.199 33.1019M480.897 32.8019H495.367V28.1027H486.196V24.5305H494.349V20.0949H486.196V16.6682H495.249V11.969H480.897V32.8019Z" fill="white"/>
<path d="M416.038 41.2004L406.821 34.6651V47.9084L416.038 41.2004Z" fill="white"/>
</mask>
<g mask="url(#mask2_114_2611)">
<rect x="386.253" y="-36.333" width="130.963" height="108.282" fill="#BDA67C"/>
</g>
<path d="M842.558 11.956L834.703 18.7419C835.379 20.531 838.172 22.3202 840.943 19.1128L841.99 20.2474C840.354 22.2329 837.365 22.8003 834.877 22.2766C832.63 21.7966 830.819 19.6801 830.208 17.5418C829.444 14.858 830.099 12.0651 832.237 10.3196C834.092 8.68314 838.805 6.71942 842.558 11.956ZM840.289 12.0433C839.961 11.1269 839.067 10.1232 837.998 9.83956C837.081 9.55589 836.012 9.90501 835.205 10.6033C833.372 12.3706 833.393 14.9889 834.114 17.2581L840.289 12.0433Z" fill="#BDA67C"/>
<path d="M919.755 11.956L911.9 18.7419C912.577 20.531 915.369 22.3202 918.141 19.1128L919.188 20.2474C917.552 22.2329 914.562 22.8003 912.075 22.2766C909.827 21.7966 908.016 19.6801 907.405 17.5418C906.642 14.858 907.296 12.0651 909.434 10.3196C911.289 8.68314 916.024 6.71942 919.755 11.956ZM917.486 12.0433C917.158 11.1269 916.264 10.1232 915.195 9.83956C914.278 9.55589 913.209 9.90501 912.402 10.6033C910.569 12.3706 910.591 14.9889 911.311 17.2581L917.486 12.0433Z" fill="#BDA67C"/>
<path d="M878.342 10.0577C878.298 10.1232 877.316 11.4542 877.316 11.4542C875.636 10.145 872.909 9.18498 870.923 10.1014C869.439 10.8433 869.723 12.5234 871.839 13.0907C873.214 13.527 877.752 13.9198 878.254 17.3236C878.429 18.72 877.774 19.9637 876.662 20.8365C874.087 22.8002 870.007 22.342 867.17 21.3602C867.148 21.3165 867.825 19.1128 867.825 19.1128C868.72 19.7019 869.483 19.9855 870.356 20.3128C874.72 21.8838 877.229 19.2219 874.501 17.6509C873.301 16.9308 871.731 16.8654 870.203 16.2544C869.069 15.7962 867.89 14.9235 867.52 13.6579C867.148 12.3488 867.41 10.8214 868.218 10.0141C870.836 7.57033 875.505 8.50858 878.342 10.0577Z" fill="#BDA67C"/>
<path d="M785.85 5.86844C785.85 4.88657 786.635 4.10107 787.617 4.10107C788.599 4.10107 789.384 4.88657 789.384 5.86844C789.384 6.85031 788.599 7.63578 787.617 7.63578C786.635 7.614 785.85 6.82848 785.85 5.86844Z" fill="#BDA67C"/>
<path d="M896.54 6.19574V11.5851C898.547 9.77412 901.405 7.87585 904.089 9.22861C905.856 10.3414 905.616 12.3488 905.573 14.4871C905.507 17.9127 905.311 21.6656 905.311 21.6656H901.929C902.038 17.2363 902.06 13.9634 901.819 12.567C901.689 11.9124 901.536 11.236 900.816 10.9087C899.202 10.276 897.674 11.7815 896.583 12.9597V21.6438H892.765V7.19944H891.368V6.19574H896.54Z" fill="#BDA67C"/>
<path d="M788.796 8.6613C788.796 8.6613 787.945 17.0835 788.926 19.5055C789.166 20.1165 789.734 20.3783 790.41 20.2256C791.697 19.8765 792.941 19.0255 794.01 18.1091V9.66499H792.003V8.6613H797.807V21.6874H793.988V19.6801C793.334 20.0073 788.032 23.4984 786.003 21.4038C784.803 20.0728 784.759 17.6291 784.693 15.4908C784.65 13.527 785.021 11.5197 785.195 9.64316H783.253V8.63947L788.796 8.6613Z" fill="#BDA67C"/>
<path d="M848.253 8.6613C848.253 8.6613 847.402 17.0835 848.384 19.5055C848.624 20.1165 849.191 20.3783 849.868 20.2256C851.155 19.8765 852.399 19.0255 853.468 18.1091V9.66499H851.46V8.6613H857.264V21.6874H853.446V19.6801C852.791 20.0073 847.489 23.4984 845.46 21.4038C844.26 20.0728 844.216 17.6291 844.151 15.4908C844.108 13.527 844.478 11.5197 844.653 9.64316H842.711V8.63947L848.253 8.6613Z" fill="#BDA67C"/>
<path d="M793.835 5.86844C793.835 4.88657 794.621 4.10107 795.603 4.10107C796.585 4.10107 797.37 4.88657 797.37 5.86844C797.37 6.85031 796.585 7.63578 795.603 7.63578C794.621 7.614 793.835 6.82848 793.835 5.86844Z" fill="#BDA67C"/>
<path d="M864.617 8.66135H867.279V9.66505H864.617L864.836 21.6875H861.039L861.213 9.66505H858.551V8.66135H861.213V8.11589C861.213 8.11589 862.13 7.76677 862.915 7.39582C864.006 6.89403 864.617 6.43579 864.617 6.43579V8.66135Z" fill="#BDA67C"/>
<path d="M890.713 10.3414L889.949 11.4542C888.902 9.97044 886.764 9.49042 885.564 10.145C883.163 11.5414 883.163 14.8144 883.6 17.4109C883.906 18.8727 884.865 20.6183 886.459 20.8801C887.702 21.0547 889.033 20.1601 889.535 19.7019L890.778 21.0765C890.778 21.0765 890.037 21.6438 889.186 21.8838C886.764 22.7347 883.927 22.3857 882.073 20.6837C880.087 18.8509 879.367 16.4508 879.847 13.8761C880.24 11.6724 882.313 9.59954 884.451 9.01041C886.567 8.44312 889.121 8.9013 890.713 10.3414Z" fill="#BDA67C"/>
<path d="M808.062 6.19574V7.19944H809.349V10.625C809.349 10.625 806.796 7.70129 802.934 9.73046C800.621 11.1051 799.661 13.5707 799.923 16.1017C800.098 18.3709 801.232 20.7056 803.458 21.622C805.531 22.3856 807.844 21.6875 809.327 20.2255V21.7093H812.862V6.21756H808.062V6.19574ZM809.502 15.3381C809.502 15.3381 809.327 20.4656 806.425 20.4656C803.523 20.4656 803.633 15.3162 803.633 15.3162C803.633 15.3162 803.676 10.4723 806.709 10.4723C809.72 10.4723 809.502 15.3381 809.502 15.3381Z" fill="#BDA67C"/>
<path d="M822.986 6.19574V7.19944H824.274V10.625C824.274 10.625 821.721 7.70129 817.859 9.73046C815.546 11.1051 814.586 13.5707 814.848 16.1017C815.022 18.3709 816.157 20.7056 818.382 21.622C820.455 22.3856 822.768 21.6875 824.252 20.2255V21.7093H827.764V6.21756H822.986V6.19574ZM824.448 15.3381C824.448 15.3381 824.274 20.4656 821.372 20.4656C818.47 20.4656 818.579 15.3162 818.579 15.3162C818.579 15.3162 818.622 10.4723 821.655 10.4723C824.666 10.4723 824.448 15.3381 824.448 15.3381Z" fill="#BDA67C"/>
<path d="M782.271 3.88288L783.602 2.7701L784.213 3.3374L781.159 5.9339C778.213 3.68651 774.351 1.67913 770.467 2.7701C769.463 3.09738 768.111 3.97016 768.067 5.23568C768.023 7.50488 772.496 8.6613 772.496 8.6613C772.496 8.6613 778.497 10.4941 780.962 12.807C782.097 13.8325 782.468 15.4908 782.162 17.1272C780.286 25.1786 769.18 21.2729 766.518 19.0909L765.143 20.4874L764.532 19.9419L767.631 16.7999C770.096 18.6328 770.642 18.96 772.911 19.9201C778.78 22.1239 780.7 18.72 779.086 16.5599C776.358 13.3525 771.711 13.898 768.416 11.6069C766.671 10.3632 765.427 8.53041 765.732 6.32664C765.929 4.23199 768.089 2.35553 769.943 1.65731C774.155 -0.00096035 778.889 1.33002 782.271 3.88288Z" fill="#BDA67C"/>
<path d="M824.454 36.4577L816.599 43.2435C817.275 45.0327 820.068 46.8218 822.839 43.6144L823.886 44.749C822.25 46.7346 819.261 47.3019 816.773 46.7782C814.526 46.2982 812.715 44.1817 812.104 42.0434C811.34 39.3596 811.995 36.5668 814.133 34.8212C816.01 33.1848 820.723 31.2211 824.454 36.4577ZM822.206 36.5449C821.879 35.6285 820.984 34.6249 819.915 34.3412C818.999 34.0575 817.93 34.4067 817.122 35.1049C815.289 36.8722 815.311 39.4906 816.032 41.7598L822.206 36.5449Z" fill="#BDA67C"/>
<path d="M803.79 45.1854C806.497 45.2945 809.595 44.749 812.104 44.1817C811.995 44.3781 811.231 46.1891 811.231 46.1891H798.86L807.413 26.7917C806.518 26.7917 804.751 26.8135 804.751 26.8135C801.369 26.8135 800.234 27.2499 797.201 29.1046L797.42 25.5698H812.169L803.79 45.1854Z" fill="#BDA67C"/>
<path d="M837.174 34.1666L837.392 46.1891H833.596L833.77 34.1666H831.392V33.1629H833.77V32.6175C833.77 32.6175 834.687 32.2684 835.472 31.8974C836.563 31.3956 837.174 30.9374 837.174 30.9374V33.1411H844.745C844.745 33.1411 843.894 41.5634 844.876 43.9853C845.116 44.5963 845.684 44.8581 846.36 44.7054C847.647 44.3563 848.891 43.5053 849.96 42.5889V34.1666H847.953V33.1629H853.757V46.1891H849.938V44.1817C849.284 44.509 843.982 48.0001 841.952 45.9054C840.752 44.5744 840.709 42.1307 840.643 39.9924C840.6 38.0286 840.971 36.0213 841.145 34.1448H837.174V34.1666Z" fill="#BDA67C"/>
<path d="M830.126 33.1629V46.1891H826.33V34.1666H824.41V33.1629H830.126Z" fill="#BDA67C"/>
<path d="M826.439 30.37C826.439 29.3882 827.225 28.6027 828.206 28.6027C829.188 28.6027 829.974 29.3882 829.974 30.37C829.974 31.3519 829.188 32.1374 828.206 32.1374C827.225 32.1156 826.439 31.3301 826.439 30.37Z" fill="#BDA67C"/>
<path d="M870.143 38.7923C870.165 41.1051 870.187 43.3307 870.099 46.1672C868.964 46.1672 866.368 46.1672 866.368 46.1672C866.608 43.1562 867.59 36.1086 865.059 35.563C863.444 35.2139 861.961 36.4359 860.826 37.6796V46.1672H857.139V34.1666H855.677V33.1629H860.804V36.1958C862.572 34.5157 864.928 32.6829 867.393 33.1848C868.136 33.3375 870.077 33.883 870.143 38.7923Z" fill="#BDA67C"/>
<path d="M888.079 35.2576C888.079 34.2976 887.293 33.5121 886.333 33.5121C885.613 33.5121 884.98 33.9485 884.719 34.5812C884.719 34.5812 884.5 35.1049 884.544 35.6285C884.457 35.4758 884.064 35.1049 883.824 34.9085C881.642 33.0321 878.042 32.7702 875.533 34.0358C872.827 35.4322 871.43 38.2469 871.823 41.2579C872.063 43.789 874.333 46.1455 876.623 46.931C876.231 47.1055 875.074 47.3674 875.009 48.7201C874.965 51.033 878.652 49.8111 880.463 50.4439C880.922 50.6839 881.162 51.1421 881.074 51.6876C880.944 52.124 880.551 52.4512 880.136 52.5822C878.434 53.1495 876.667 52.2112 875.445 51.0548L874.136 52.0803C874.922 52.7131 875.707 53.3022 876.58 53.6077C878.085 54.175 881.576 54.4368 883.191 52.1676C883.54 51.7094 883.671 50.7275 883.344 50.1384C882.144 48.131 879.395 49.0693 877.78 48.8511C876.885 48.742 876.252 47.411 879.504 47.1491C881.969 47.0401 884.238 45.6 885.525 43.3963C886.595 41.5198 886.289 38.7487 885.482 36.9159C885.875 37.0032 886.158 37.0468 886.398 37.0032C887.336 36.9595 888.079 36.1959 888.079 35.2576ZM879.023 45.8618C877.038 45.8618 875.445 43.3308 875.445 40.1888C875.445 37.0686 877.06 34.5158 879.023 34.5158C881.009 34.5158 882.602 37.0468 882.602 40.1888C882.602 43.3308 881.009 45.8618 879.023 45.8618Z" fill="#BDA67C"/>
<mask id="mask3_114_2611" style="mask-type:alpha" maskUnits="userSpaceOnUse" x="1188" y="14" width="105" height="27">
<g clip-path="url(#clip0_114_2611)">
<path d="M1252.32 21.8515C1250.82 21.8239 1249.33 22.1943 1248.02 22.925C1248.02 19.1061 1248.02 15.6455 1248.14 14.452L1240.12 15.8855V16.6015L1240.96 16.7207C1242.04 16.959 1242.4 17.555 1242.64 18.9869C1242.88 21.8515 1242.76 37.129 1242.64 39.6344C1244.83 40.1559 1247.08 40.4374 1249.34 40.4738C1255.68 40.4738 1259.51 36.5348 1259.51 30.3279C1259.51 25.4346 1256.39 21.8507 1252.33 21.8507L1252.32 21.8515ZM1249.57 39.1577C1249.09 39.1824 1248.61 39.1426 1248.14 39.0393C1248.02 37.3724 1247.9 30.322 1248.02 24.1194C1248.59 23.8968 1249.2 23.7756 1249.81 23.761C1252.44 23.761 1253.88 26.8665 1253.88 30.6821C1253.88 35.4579 1252.08 39.1594 1249.57 39.1594L1249.57 39.1577ZM1209.97 14.9287H1188.92V16.003L1190.12 16.1222C1191.67 16.3606 1192.27 17.3149 1192.51 19.5828C1192.81 24.8299 1192.81 30.0899 1192.51 35.337C1192.27 37.6032 1191.67 38.6801 1190.12 38.7976L1188.92 39.0377V39.992H1202.44V39.0377L1201 38.7993C1199.45 38.6809 1198.85 37.6066 1198.61 35.3387C1198.49 33.7868 1198.37 31.2797 1198.37 28.1775L1201.24 28.2967C1203.04 28.2967 1203.87 29.7286 1204.23 31.7573H1205.31V23.2842H1204.23C1203.87 25.3138 1203.04 26.7448 1201.24 26.7448L1198.37 26.8648C1198.37 22.8067 1198.49 18.9877 1198.61 16.7198H1202.8C1206.03 16.7198 1207.7 18.7485 1208.9 22.3299L1210.09 21.9707L1209.97 14.9287Z" fill="white"/>
<path d="M1216.79 21.6123C1222.77 21.6123 1225.76 25.6704 1225.76 31.0421C1225.76 36.1747 1222.41 40.4729 1216.43 40.4729C1210.45 40.4729 1207.46 36.4139 1207.46 31.0421C1207.46 25.9088 1210.81 21.6123 1216.79 21.6123ZM1216.43 22.8058C1213.8 22.8058 1213.08 26.3864 1213.08 31.0413C1213.08 35.5737 1214.28 39.2768 1216.67 39.2768C1219.42 39.2768 1220.14 35.6962 1220.14 31.0413C1220.14 26.5098 1218.94 22.8058 1216.43 22.8058ZM1261.05 31.1613C1261.05 26.2672 1264.16 21.6123 1270.26 21.6123C1275.29 21.6123 1277.68 25.3129 1277.68 30.2062H1266.55C1266.43 34.6219 1268.59 37.8441 1272.89 37.8441C1274.36 37.9064 1275.81 37.4406 1276.96 36.5314L1277.44 37.1273C1276.58 38.196 1275.49 39.0532 1274.24 39.6329C1273 40.2125 1271.64 40.4991 1270.26 40.4704C1264.88 40.4704 1261.05 36.6506 1261.05 31.1597V31.1613ZM1266.55 28.8951L1272.18 28.7751C1272.18 26.3881 1271.82 22.8075 1269.78 22.8075C1267.75 22.8075 1266.67 26.1472 1266.55 28.8935V28.8951ZM1291.92 22.5649C1290.16 21.8973 1288.29 21.5739 1286.42 21.6123C1281.99 21.6123 1279.24 24.2377 1279.24 27.3415C1279.24 30.4454 1281.27 31.7573 1284.14 32.7133C1287.13 33.7868 1287.97 34.6227 1287.97 36.0546C1287.97 36.4353 1287.89 36.8115 1287.73 37.1597C1287.58 37.508 1287.36 37.8207 1287.08 38.0784C1286.79 38.336 1286.46 38.533 1286.1 38.6571C1285.74 38.7811 1285.36 38.8295 1284.98 38.7993C1282.71 38.7993 1281.03 37.4865 1279.72 33.9051L1278.87 34.1452L1278.99 39.3969C1281.03 40.1137 1283.18 40.477 1285.34 40.4712C1290 40.4712 1292.99 38.0833 1292.99 34.3835C1292.99 31.8764 1291.67 30.4454 1288.56 29.251C1285.21 27.9383 1284.02 27.1032 1284.02 25.5512C1284 25.211 1284.05 24.8702 1284.17 24.5502C1284.29 24.2301 1284.47 23.9377 1284.7 23.6912C1284.94 23.4447 1285.22 23.2494 1285.54 23.1174C1285.85 22.9854 1286.19 22.9196 1286.54 22.9241C1288.69 22.9241 1290.12 24.2369 1291.2 27.4565L1292.04 27.2182L1291.92 22.5649ZM1241.31 22.0898C1239.28 20.8972 1235.69 21.4931 1233.78 25.7905L1233.9 21.6131L1225.88 23.1642V23.8801L1226.72 23.9993C1227.8 24.1193 1228.28 24.7153 1228.4 26.2655C1228.58 29.7246 1228.58 33.1906 1228.4 36.6497C1228.28 38.0766 1227.8 38.7967 1226.72 38.9159L1225.88 39.0359V39.9903H1237.01V39.0393L1235.57 38.9193C1234.38 38.7993 1234.02 38.0799 1233.9 36.6531C1233.67 33.4352 1233.63 30.2072 1233.78 26.9848C1234.37 26.1455 1237.01 25.4329 1239.4 26.9848L1241.31 22.0907L1241.31 22.0898Z" fill="white"/>
</g>
</mask>
<g mask="url(#mask3_114_2611)">
<rect x="1151.52" y="-22.1388" width="204.095" height="111.399" fill="#BDA67C"/>
</g>
</g>
<defs>
<filter id="filter0_i_114_2611" x="0" y="0.924072" width="1293" height="56.7103" filterUnits="userSpaceOnUse" color-interpolation-filters="sRGB">
<feFlood flood-opacity="0" result="BackgroundImageFix"/>
<feBlend mode="normal" in="SourceGraphic" in2="BackgroundImageFix" result="shape"/>
<feColorMatrix in="SourceAlpha" type="matrix" values="0 0 0 0 0 0 0 0 0 0 0 0 0 0 0 0 0 0 127 0" result="hardAlpha"/>
<feOffset dy="3.63432"/>
<feGaussianBlur stdDeviation="1.81716"/>
<feComposite in2="hardAlpha" operator="arithmetic" k2="-1" k3="1"/>
<feColorMatrix type="matrix" values="0 0 0 0 0 0 0 0 0 0 0 0 0 0 0 0 0 0 0.25 0"/>
<feBlend mode="normal" in2="shape" result="effect1_innerShadow_114_2611"/>
</filter>
<clipPath id="clip0_114_2611">
<rect width="104.08" height="26.0201" fill="white" transform="translate(1188.92 14.452)"/>
</clipPath>
</defs>
</svg>
