<svg width="1501" height="54" viewBox="0 0 1501 54" fill="none" xmlns="http://www.w3.org/2000/svg">
  <g opacity="0.7" filter="url(#filter0_i_407_147)">
    <mask id="mask0_407_147" style="mask-type:alpha" maskUnits="userSpaceOnUse" x="0" y="13" width="139" height="28">
      <mask id="mask1_407_147" style="mask-type:luminance" maskUnits="userSpaceOnUse" x="0" y="14" width="139" height="27">
        <path d="M0.500977 40.5163H138.067V14.2255H0.500977V40.5163Z" fill="white"/>
      </mask>
      <g mask="url(#mask1_407_147)">
        <path d="M104.246 29.8945C104.004 30.1342 103.522 30.3156 102.83 30.3156H102.62C101.928 30.3156 101.446 30.1342 101.204 29.8945C100.844 29.5318 100.693 29.0502 100.693 27.8473V25.7083C100.693 24.5034 100.844 24.0218 101.204 23.6611C101.446 23.4193 101.928 23.24 102.62 23.24H102.83C103.522 23.24 104.004 23.4193 104.246 23.6611C104.606 24.0218 104.757 24.5034 104.757 25.7083V27.8473C104.757 29.0502 104.606 29.5318 104.246 29.8945ZM109.495 25.2872C109.495 22.1559 108.461 20.4381 106.112 19.8064C104.346 19.4145 103.13 19.4875 102.651 19.475H102.228C98.0437 19.475 95.936 21.2512 95.936 25.2872V28.923C95.936 35.3232 102.478 34.4518 104.765 33.3281C104.761 33.5407 104.867 35.7902 104.217 36.2071C103.852 36.4406 103.381 36.7429 102.388 36.7429C101.333 36.7429 99.9596 36.6574 98.7859 36.3551C98.0333 36.1737 97.7852 36.3947 97.6956 36.9055L97.3787 38.7734C97.3474 38.984 97.3182 39.255 97.3182 39.3759C97.3182 39.7678 97.4704 39.9075 98.1167 40.0409C100.42 40.5121 101.971 40.5517 103.504 40.4975C106.212 40.4016 107.133 40.0368 108.096 39.0424C108.878 38.2293 109.495 36.5636 109.495 34.2787" fill="white"/>
      </g>
      <path d="M25.9253 28.5562C25.5938 28.4978 24.8975 28.4665 24.4743 28.4665H24.1408C22.7482 28.4665 22.1728 28.7084 22.1728 29.8279V29.9488C22.1728 31.0683 22.8086 31.3414 23.8677 31.3414H24.0803C24.7766 31.3414 25.229 31.1287 25.5021 30.8869C25.8357 30.5846 25.9253 30.2219 25.9253 29.4047V28.5562ZM26.9552 33.2781C26.3485 34.185 24.8975 34.7896 22.99 34.7896H22.5376C19.5105 34.7896 17.6343 33.1864 17.6343 30.1302V29.7966C17.6343 26.4068 19.5418 25.3206 23.5946 25.3206H23.8072C24.5931 25.3206 25.4729 25.379 25.9253 25.4395V24.8036C25.9253 24.1991 25.8357 23.7759 25.4125 23.4715C25.0476 23.2297 24.5931 23.14 23.5946 23.14C22.5376 23.14 21.2659 23.3527 20.0839 23.6549C19.3292 23.8363 19.1478 23.5945 19.0561 23.0796L18.8142 21.4764C18.7851 21.2637 18.7538 20.9906 18.7538 20.8697C18.7538 20.4778 18.8747 20.2651 19.4814 20.0838C20.7531 19.721 22.6001 19.4187 24.6536 19.4187C27.0761 19.4187 28.6521 19.9024 29.6174 20.901C30.4054 21.7182 30.7682 22.8982 30.7682 24.6827V33.67C30.7682 34.2767 30.5263 34.5185 29.7383 34.5185H28.3165C27.6202 34.5185 27.3804 34.3663 27.197 33.8201L27.0156 33.2781" fill="white"/>
      <path fill-rule="evenodd" clip-rule="evenodd" d="M138.071 15.1011V34.9624C138.071 36.747 137.719 37.9269 136.931 38.7442C136.028 39.674 134.59 40.1514 132.438 40.2139L114.526 40.2202C114.355 40.2202 114.184 40.2118 114.02 40.1993H112.942C112.281 40.1993 111.904 39.9575 111.841 39.134C111.841 39.1301 111.84 39.1261 111.838 39.122C111.837 39.1173 111.835 39.1124 111.835 39.1069V15.0927C111.835 14.4173 112.085 14.0358 112.954 13.9857H136.964C137.634 13.9857 138.024 14.2297 138.071 15.1011ZM134.843 37.0635C134.385 37.5346 133.476 37.8119 132.148 37.889H128.664V22.4515H128.464L125.024 23.963C124.311 24.2882 123.711 24.3674 123.354 23.6878L122.035 21.0964C121.641 20.3334 121.837 19.7372 122.598 19.3765L128.741 16.3411C129.54 15.9492 130.059 15.8262 131.139 15.8262H133.97C134.983 15.8262 135.36 16.0534 135.402 17.0666V34.7181C135.402 36.3005 135.081 36.8175 134.843 37.0635Z" fill="white"/>
      <path d="M45.6931 33.6409C45.6931 34.2162 45.4804 34.5185 44.6632 34.5185H41.8801C41.0628 34.5185 40.8502 34.2162 40.8502 33.6409V25.0767C40.8502 24.3804 40.7606 23.9551 40.5166 23.6841C40.2748 23.411 39.7912 23.2922 39.1866 23.2922H39.1261C38.5215 23.2922 38.0358 23.411 37.794 23.6841C37.5521 23.9551 37.4625 24.3512 37.4625 25.0767V33.6409C37.4625 34.2162 37.2499 34.5185 36.4326 34.5185H33.6495C32.8323 34.5185 32.6196 34.2162 32.6196 33.6409V20.5382C32.6196 19.9316 32.8615 19.6898 33.6495 19.6898H35.0713C35.7676 19.6898 36.0094 19.8107 36.1908 20.3861L36.3722 20.9615H36.4639C37.4312 19.9316 38.8238 19.4187 40.6084 19.4187H40.7293C42.4846 19.4187 43.6959 19.7815 44.7237 20.8072C45.6931 19.9024 47.1461 19.4187 48.841 19.4187H48.9619C50.7465 19.4187 52.0182 19.8419 52.8041 20.6571C53.6213 21.5056 53.9236 22.6251 53.9236 24.6535V33.6409C53.9236 34.2162 53.7131 34.5185 52.8938 34.5185H50.1106C49.2934 34.5185 49.0828 34.2162 49.0828 33.6409V25.0767C49.0828 24.3804 48.9911 23.9551 48.7493 23.6841C48.5075 23.411 48.0217 23.2922 47.4171 23.2922H47.3567C46.7521 23.2922 46.2664 23.411 46.0266 23.6841C45.7827 23.9551 45.6931 24.3512 45.6931 25.0767V33.6409ZM60.5698 29.1607C60.5698 29.8279 60.6907 30.3094 60.993 30.6138C61.2974 30.9161 61.7497 31.0057 62.3564 31.0057H62.6295C63.4446 31.0057 63.8387 30.7952 64.1118 30.4033C64.4432 29.8862 64.4745 29.1607 64.4745 27.7681V26.4693C64.4745 25.0767 64.4745 24.1678 64.0784 23.7154C63.7782 23.3526 63.355 23.2297 62.567 23.2297H62.4461C61.781 23.2297 61.2974 23.3527 60.9638 23.6841C60.6302 24.0177 60.5698 24.4701 60.5698 25.2873V29.1607ZM60.6302 20.2339C61.4787 19.7189 62.6295 19.4187 64.0784 19.4187H64.3515C66.0485 19.4187 67.5287 19.992 68.3167 21.0511C69.013 21.9892 69.3465 23.2922 69.3465 26.0441V28.2247C69.3465 30.4637 68.8921 32.2774 67.8018 33.2781C66.6218 34.3663 65.1104 34.7896 62.6295 34.7896H62.0229C59.2084 34.7896 57.7867 34.2162 56.9382 33.3073C56.3023 32.611 55.729 31.4623 55.729 29.0106V14.9094C55.729 14.3341 55.9104 14.0297 56.7255 14.0297H59.542C60.3571 14.0297 60.5698 14.3341 60.5698 14.9094V20.2339H60.6302ZM79.0802 20.5674C79.0802 19.992 79.2929 19.6898 80.1059 19.6898H82.8911C83.7083 19.6898 83.921 19.992 83.921 20.5674V29.5235C83.921 31.431 83.4978 32.6715 82.5597 33.5199C81.4672 34.4873 79.8057 34.7896 77.4145 34.7896C75.0233 34.7896 73.3597 34.4873 72.2694 33.5199C71.3333 32.6715 70.908 31.431 70.908 29.5235V20.5674C70.908 19.992 71.1207 19.6898 71.94 19.6898H74.7231C75.5403 19.6898 75.7509 19.992 75.7509 20.5674V29.1003C75.7509 29.8279 75.8426 30.2219 76.0844 30.4929C76.3263 30.766 76.8078 30.8869 77.4145 30.8869C78.0212 30.8869 78.5048 30.766 78.7446 30.4929C78.9864 30.2219 79.0802 29.7966 79.0802 29.1003V20.5674ZM89.654 21.3242C90.3795 20.1442 91.3781 19.6898 93.0438 19.6898H94.253C94.8888 19.6898 95.1307 19.8419 95.1307 20.5382V22.746C95.1307 23.411 94.9201 23.5924 94.3134 23.5924H93.4066C92.2579 23.5924 91.5303 23.805 91.1071 24.2282C90.7131 24.6223 90.5922 25.3186 90.5922 26.3172V33.6409C90.5922 34.2162 90.3795 34.5185 89.5623 34.5185H86.7792C85.962 34.5185 85.7514 34.2162 85.7514 33.6409V20.5382C85.7514 19.9316 85.9911 19.6898 86.7792 19.6898H88.2322C88.9285 19.6898 89.1704 19.8419 89.3205 20.384L89.5623 21.3242H89.654ZM16.3732 33.5387C16.3732 34.3789 16.2523 34.4685 15.3225 34.4685H12.4122C11.4824 34.4685 11.3323 34.3789 11.3323 33.5387V26.757H5.54091V33.5387C5.54091 34.3789 5.42208 34.4685 4.4902 34.4685H1.51944C0.620916 34.4685 0.5 34.3789 0.5 33.5387V15.9852C0.5 15.145 0.620914 15.0554 1.55071 15.0554H4.4902C5.42208 15.0554 5.54091 15.145 5.54091 15.9852V22.6772H11.3323V15.9852C11.3323 15.145 11.4532 15.0554 12.383 15.0554H15.3225C16.2523 15.0554 16.3732 15.145 16.3732 15.9852" fill="white"/>
    </mask>
    <g mask="url(#mask0_407_147)">
      <rect x="-17.3892" y="-21.792" width="191.898" height="108.959" fill="#BDA67C"/>
    </g>
    <mask id="mask2_407_147" style="mask-type:alpha" maskUnits="userSpaceOnUse" x="213" y="6" width="90" height="42">
      <path d="M237.174 47.8791C240.864 47.9155 243.891 44.9523 243.918 41.262V41.0257C243.909 37.3081 240.891 34.3086 237.174 34.3177C233.456 34.3268 230.457 37.3445 230.466 41.0621V41.0984C230.423 42.8533 231.078 44.5535 232.289 45.8251C233.499 47.0967 235.164 47.8356 236.919 47.8791H237.174ZM237.21 46.5066C234.311 46.4884 231.984 44.1161 232.002 41.2257V41.0257C231.942 39.6532 232.429 38.313 233.356 37.2991C234.283 36.2852 235.574 35.6805 236.947 35.6175H237.165C240.064 35.6357 242.391 38.008 242.373 40.8985V41.0984C242.5 43.9525 240.282 46.3794 237.428 46.5066H237.21ZM246.654 47.6519H248.108V36.8355L256.625 47.6519H257.816V34.4631H256.362V45.0341L248.054 34.4631H246.654V47.6519ZM261.388 47.6519H270.305V46.2794H262.879V34.4631H261.388V47.6519ZM272.632 47.6519H274.113V34.4631H272.623V47.6519H272.632ZM277.731 47.6519H279.185V36.8355L287.702 47.6519H288.893V34.4631H287.438V45.0341L279.122 34.4631H277.731V47.6519ZM292.465 47.6519H302.263V46.2976H293.946V41.6801H301.318V40.3167H293.946V35.8084H302.163V34.4541H292.447V47.6519H292.465Z" fill="white"/>
      <path d="M213.641 32.5909H222.303C227.212 32.5909 230.011 30.3913 230.011 26.8191V26.701C230.011 23.9651 228.43 22.5926 226.203 21.7563C227.129 21.4055 227.923 20.777 228.478 19.9569C229.033 19.1368 229.321 18.1652 229.302 17.1753V17.0571C229.357 15.7664 228.857 14.5121 227.93 13.6031C226.712 12.3488 224.776 11.758 222.276 11.758H213.641V32.5909ZM224.003 18.1842C224.003 19.4658 223.049 20.1202 221.413 20.1202H218.849V16.2209H221.503C223.112 16.2209 224.003 16.9026 224.003 18.1569V18.1842ZM224.657 26.0738V26.1011C224.657 27.3827 223.676 28.128 222.012 28.128H218.858V24.056H221.985C223.739 24.056 224.667 24.8558 224.667 26.0829M241.527 10.4673H245.963V6.62244H241.527V10.4673ZM235.601 10.4673H240.037V6.62244H235.601V10.4673ZM240.782 32.9818C246.381 32.9818 250.462 28.6007 250.462 22.3835V21.9381C250.462 15.6846 246.445 11.3671 240.818 11.3671C235.192 11.3671 231.138 15.7391 231.138 21.9654V22.4108C231.138 28.6643 235.156 32.9818 240.782 32.9818ZM240.809 28.128C238.337 28.128 236.61 25.9284 236.61 22.3199V21.9927C236.61 18.3932 238.31 16.2209 240.782 16.2209C243.254 16.2209 244.981 18.4205 244.981 22.029V22.3562C244.981 25.9556 243.318 28.128 240.818 28.128M252.571 32.5909H257.898V26.1283H259.806L263.351 32.5909H269.396L265.096 25.0285C266.26 24.4957 267.237 23.6263 267.901 22.5326C268.565 21.439 268.887 20.1712 268.823 18.8932V18.7477C268.914 16.9389 268.25 15.1756 267.005 13.8667C265.669 12.4942 263.551 11.7489 260.752 11.7489H252.562V32.5909H252.571ZM257.898 21.8745V16.4299H260.515C262.306 16.4299 263.433 17.3207 263.433 19.1113V19.1658C263.47 19.8501 263.235 20.5213 262.778 21.0324C262.322 21.5435 261.681 21.8528 260.997 21.8927C260.852 21.8927 260.697 21.8927 260.552 21.8745H257.907H257.898ZM278.094 32.8909C282.557 32.8909 285.684 30.3913 285.684 26.3374V26.2829C285.684 22.738 283.212 21.1292 279.258 19.8566C276.604 18.875 275.949 18.4023 275.949 17.4752V17.4479C275.949 16.6753 276.631 16.0754 277.858 16.0754C279.639 16.1754 281.339 16.839 282.712 17.9842L285.42 13.994C283.319 12.2926 280.679 11.3966 277.976 11.4671C273.422 11.4671 270.532 14.1212 270.532 17.9024V17.9933C270.532 21.7745 273.304 23.2015 277.231 24.5377C279.676 25.4012 280.303 25.9102 280.303 26.7373V26.7646C280.303 27.6554 279.558 28.2825 278.131 28.2825C276.031 28.1735 274.031 27.3463 272.468 25.9284L269.614 29.8277C271.968 31.8547 274.995 32.9454 278.103 32.8909M287.802 32.5909H302.272V27.8917H293.101V24.3195H301.254V19.8839H293.101V16.4572H302.154V11.758H287.802V32.5909Z" fill="white"/>
      <path d="M222.943 40.9894L213.726 34.4541V47.6974L222.943 40.9894Z" fill="white"/>
    </mask>
    <g mask="url(#mask2_407_147)">
      <rect x="193.158" y="-36.5441" width="130.963" height="108.282" fill="#BDA67C"/>
    </g>
    <path d="M455.868 11.745L448.013 18.5309C448.689 20.32 451.482 22.1092 454.253 18.9018L455.3 20.0364C453.664 22.0219 450.675 22.5893 448.187 22.0656C445.94 21.5856 444.129 19.4691 443.518 17.3308C442.754 14.647 443.409 11.8541 445.548 10.1086C447.402 8.47214 452.115 6.50842 455.868 11.745ZM453.599 11.8323C453.272 10.9159 452.377 9.91224 451.308 9.62856C450.391 9.34489 449.322 9.69401 448.515 10.3923C446.682 12.1596 446.703 14.7779 447.424 17.0471L453.599 11.8323Z" fill="#BDA67C"/>
    <path d="M533.065 11.745L525.21 18.5309C525.887 20.32 528.679 22.1092 531.451 18.9018L532.498 20.0364C530.862 22.0219 527.872 22.5893 525.385 22.0656C523.137 21.5856 521.326 19.4691 520.715 17.3308C519.952 14.647 520.606 11.8541 522.744 10.1086C524.599 8.47214 529.334 6.50842 533.065 11.745ZM530.796 11.8323C530.468 10.9159 529.574 9.91224 528.505 9.62856C527.588 9.34489 526.519 9.69401 525.712 10.3923C523.879 12.1596 523.901 14.7779 524.621 17.0471L530.796 11.8323Z" fill="#BDA67C"/>
    <path d="M491.652 9.84673C491.608 9.91223 490.626 11.2432 490.626 11.2432C488.946 9.93401 486.219 8.97398 484.233 9.8904C482.749 10.6323 483.033 12.3124 485.149 12.8797C486.524 13.316 491.063 13.7088 491.565 17.1126C491.739 18.509 491.084 19.7527 489.972 20.6255C487.397 22.5892 483.317 22.131 480.48 21.1492C480.458 21.1055 481.135 18.9018 481.135 18.9018C482.03 19.4909 482.793 19.7745 483.666 20.1018C488.03 21.6728 490.539 19.0109 487.811 17.4399C486.611 16.7198 485.041 16.6544 483.513 16.0434C482.379 15.5852 481.2 14.7125 480.83 13.4469C480.458 12.1378 480.72 10.6104 481.528 9.80312C484.146 7.35933 488.815 8.29758 491.652 9.84673Z" fill="#BDA67C"/>
    <path d="M399.16 5.65744C399.16 4.67558 399.945 3.89008 400.927 3.89008C401.909 3.89008 402.694 4.67558 402.694 5.65744C402.694 6.63932 401.909 7.42478 400.927 7.42478C399.945 7.403 399.16 6.61748 399.16 5.65744Z" fill="#BDA67C"/>
    <path d="M509.85 5.98474V11.3741C511.857 9.56313 514.715 7.66485 517.399 9.01761C519.166 10.1304 518.926 12.1378 518.883 14.2761C518.817 17.7017 518.621 21.4546 518.621 21.4546H515.239C515.348 17.0253 515.37 13.7524 515.13 12.356C514.999 11.7014 514.846 11.025 514.126 10.6977C512.512 10.065 510.984 11.5705 509.893 12.7487V21.4328H506.075V6.98844H504.678V5.98474H509.85Z" fill="#BDA67C"/>
    <path d="M402.106 8.4503C402.106 8.4503 401.255 16.8725 402.236 19.2945C402.476 19.9055 403.044 20.1673 403.72 20.0146C405.008 19.6655 406.251 18.8145 407.32 17.8981V9.454H405.313V8.4503H411.117V21.4764H407.299V19.4691C406.644 19.7963 401.342 23.2874 399.313 21.1928C398.113 19.8618 398.069 17.4181 398.004 15.2798C397.96 13.316 398.331 11.3087 398.505 9.43216H396.563V8.42847L402.106 8.4503Z" fill="#BDA67C"/>
    <path d="M461.563 8.4503C461.563 8.4503 460.712 16.8725 461.694 19.2945C461.934 19.9055 462.501 20.1673 463.178 20.0146C464.465 19.6655 465.709 18.8145 466.778 17.8981V9.454H464.77V8.4503H470.574V21.4764H466.756V19.4691C466.102 19.7963 460.799 23.2874 458.77 21.1928C457.57 19.8618 457.526 17.4181 457.461 15.2798C457.418 13.316 457.788 11.3087 457.963 9.43216H456.021V8.42847L461.563 8.4503Z" fill="#BDA67C"/>
    <path d="M407.146 5.65744C407.146 4.67558 407.931 3.89008 408.913 3.89008C409.895 3.89008 410.68 4.67558 410.68 5.65744C410.68 6.63932 409.895 7.42478 408.913 7.42478C407.931 7.403 407.146 6.61748 407.146 5.65744Z" fill="#BDA67C"/>
    <path d="M477.927 8.45036H480.589V9.45405H477.927L478.146 21.4765H474.349L474.523 9.45405H471.861V8.45036H474.523V7.9049C474.523 7.9049 475.44 7.55577 476.225 7.18482C477.316 6.68303 477.927 6.22479 477.927 6.22479V8.45036Z" fill="#BDA67C"/>
    <path d="M504.023 10.1304L503.259 11.2432C502.212 9.75944 500.074 9.27943 498.874 9.934C496.473 11.3304 496.473 14.6034 496.91 17.1999C497.216 18.6617 498.175 20.4073 499.769 20.6691C501.012 20.8437 502.343 19.9491 502.845 19.4909L504.089 20.8655C504.089 20.8655 503.347 21.4328 502.496 21.6728C500.074 22.5237 497.237 22.1747 495.383 20.4727C493.397 18.6399 492.677 16.2398 493.157 13.6651C493.55 11.4614 495.623 9.38854 497.761 8.79941C499.878 8.23212 502.431 8.6903 504.023 10.1304Z" fill="#BDA67C"/>
    <path d="M421.372 5.98474V6.98844H422.659V10.414C422.659 10.414 420.106 7.49029 416.244 9.51946C413.932 10.8941 412.971 13.3597 413.233 15.8907C413.408 18.1599 414.542 20.4946 416.768 21.411C418.841 22.1747 421.154 21.4765 422.637 20.0145V21.4983H426.172V6.00656H421.372V5.98474ZM422.812 15.1271C422.812 15.1271 422.637 20.2546 419.735 20.2546C416.833 20.2546 416.943 15.1052 416.943 15.1052C416.943 15.1052 416.986 10.2613 420.019 10.2613C423.03 10.2613 422.812 15.1271 422.812 15.1271Z" fill="#BDA67C"/>
    <path d="M436.296 5.98474V6.98844H437.584V10.414C437.584 10.414 435.031 7.49029 431.169 9.51946C428.856 10.8941 427.896 13.3597 428.158 15.8907C428.332 18.1599 429.467 20.4946 431.692 21.411C433.765 22.1747 436.078 21.4765 437.562 20.0145V21.4983H441.074V6.00656H436.296V5.98474ZM437.758 15.1271C437.758 15.1271 437.584 20.2546 434.682 20.2546C431.78 20.2546 431.889 15.1052 431.889 15.1052C431.889 15.1052 431.932 10.2613 434.965 10.2613C437.976 10.2613 437.758 15.1271 437.758 15.1271Z" fill="#BDA67C"/>
    <path d="M395.581 3.67188L396.912 2.5591L397.523 3.1264L394.469 5.7229C391.523 3.47551 387.661 1.46813 383.777 2.5591C382.773 2.88638 381.421 3.75916 381.377 5.02468C381.333 7.29388 385.806 8.45031 385.806 8.45031C385.806 8.45031 391.807 10.2831 394.272 12.596C395.407 13.6215 395.778 15.2798 395.472 16.9162C393.596 24.9676 382.49 21.0619 379.828 18.8799L378.453 20.2764L377.842 19.7309L380.941 16.5889C383.406 18.4218 383.952 18.749 386.221 19.7091C392.09 21.9129 394.01 18.509 392.396 16.3489C389.668 13.1415 385.021 13.687 381.726 11.3959C379.981 10.1522 378.737 8.31941 379.042 6.11564C379.239 4.02099 381.399 2.14453 383.253 1.44631C387.465 -0.211959 392.199 1.11902 395.581 3.67188Z" fill="#BDA67C"/>
    <path d="M437.764 36.2467L429.909 43.0325C430.585 44.8217 433.378 46.6108 436.149 43.4034L437.196 44.538C435.56 46.5236 432.571 47.0909 430.083 46.5672C427.836 46.0872 426.025 43.9707 425.414 41.8324C424.65 39.1486 425.305 36.3558 427.443 34.6102C429.32 32.9738 434.033 31.0101 437.764 36.2467ZM435.517 36.3339C435.189 35.4175 434.294 34.4139 433.225 34.1302C432.309 33.8465 431.24 34.1957 430.432 34.8939C428.599 36.6612 428.621 39.2796 429.342 41.5488L435.517 36.3339Z" fill="#BDA67C"/>
    <path d="M417.101 44.9744C419.807 45.0835 422.905 44.538 425.414 43.9707C425.305 44.1671 424.541 45.9781 424.541 45.9781H412.17L420.723 26.5807C419.828 26.5807 418.061 26.6025 418.061 26.6025C414.679 26.6025 413.544 27.0389 410.511 28.8936L410.73 25.3588H425.48L417.101 44.9744Z" fill="#BDA67C"/>
    <path d="M450.484 33.9556L450.702 45.9781H446.906L447.08 33.9556H444.702V32.9519H447.08V32.4065C447.08 32.4065 447.997 32.0574 448.782 31.6864C449.873 31.1846 450.484 30.7264 450.484 30.7264V32.9301H458.056C458.056 32.9301 457.204 41.3524 458.186 43.7743C458.426 44.3853 458.994 44.6471 459.67 44.4944C460.957 44.1453 462.201 43.2943 463.27 42.3779V33.9556H461.263V32.9519H467.067V45.9781H463.248V43.9707C462.594 44.298 457.292 47.7891 455.262 45.6944C454.062 44.3634 454.019 41.9197 453.953 39.7814C453.91 37.8176 454.281 35.8103 454.455 33.9338H450.484V33.9556Z" fill="#BDA67C"/>
    <path d="M443.436 32.9519V45.9781H439.64V33.9556H437.72V32.9519H443.436Z" fill="#BDA67C"/>
    <path d="M439.749 30.159C439.749 29.1772 440.535 28.3917 441.516 28.3917C442.498 28.3917 443.284 29.1772 443.284 30.159C443.284 31.1409 442.498 31.9264 441.516 31.9264C440.535 31.9046 439.749 31.1191 439.749 30.159Z" fill="#BDA67C"/>
    <path d="M483.453 38.5813C483.475 40.8942 483.497 43.1197 483.409 45.9562C482.274 45.9562 479.678 45.9562 479.678 45.9562C479.918 42.9452 480.9 35.8976 478.369 35.352C476.754 35.0029 475.271 36.2249 474.136 37.4686V45.9562H470.449V33.9556H468.987V32.9519H474.114V35.9848C475.882 34.3047 478.238 32.4719 480.703 32.9738C481.446 33.1265 483.387 33.672 483.453 38.5813Z" fill="#BDA67C"/>
    <path d="M501.389 35.0466C501.389 34.0866 500.603 33.3011 499.643 33.3011C498.923 33.3011 498.291 33.7375 498.029 34.3702C498.029 34.3702 497.81 34.8939 497.854 35.4175C497.767 35.2648 497.374 34.8939 497.134 34.6975C494.952 32.8211 491.352 32.5592 488.843 33.8248C486.137 35.2212 484.741 38.0359 485.133 41.0469C485.373 43.578 487.643 45.9345 489.933 46.72C489.541 46.8945 488.384 47.1564 488.319 48.5091C488.275 50.822 491.963 49.6001 493.773 50.2329C494.232 50.4729 494.472 50.9311 494.384 51.4766C494.254 51.913 493.861 52.2402 493.446 52.3712C491.744 52.9385 489.977 52.0002 488.755 50.8438L487.446 51.8693C488.232 52.5021 489.017 53.0912 489.89 53.3967C491.395 53.964 494.886 54.2258 496.501 51.9566C496.85 51.4984 496.981 50.5165 496.654 49.9274C495.454 47.92 492.705 48.8583 491.09 48.6401C490.195 48.531 489.562 47.2 492.814 46.9381C495.279 46.8291 497.548 45.389 498.836 43.1853C499.905 41.3088 499.599 38.5377 498.792 36.7049C499.185 36.7922 499.468 36.8358 499.708 36.7922C500.646 36.7485 501.389 35.9849 501.389 35.0466ZM492.333 45.6508C490.348 45.6508 488.755 43.1198 488.755 39.9778C488.755 36.8576 490.37 34.3048 492.333 34.3048C494.319 34.3048 495.912 36.8358 495.912 39.9778C495.912 43.1198 494.319 45.6508 492.333 45.6508Z" fill="#BDA67C"/>
    <mask id="mask3_407_147" style="mask-type:alpha" maskUnits="userSpaceOnUse" x="608" y="14" width="105" height="27">
      <g clip-path="url(#clip0_407_147)">
        <path d="M672.039 21.6405C670.534 21.6129 669.048 21.9833 667.733 22.714C667.733 18.8951 667.733 15.4345 667.853 14.241L659.838 15.6745V16.3905L660.679 16.5097C661.755 16.748 662.115 17.344 662.352 18.7759C662.594 21.6405 662.473 36.918 662.352 39.4234C664.549 39.9449 666.796 40.2264 669.053 40.2628C675.393 40.2628 679.221 36.3238 679.221 30.1169C679.221 25.2236 676.108 21.6397 672.044 21.6397L672.039 21.6405ZM669.288 38.9467C668.806 38.9714 668.323 38.9316 667.852 38.8283C667.731 37.1614 667.613 30.111 667.731 23.9084C668.304 23.6858 668.911 23.5646 669.526 23.55C672.159 23.55 673.595 26.6555 673.595 30.4711C673.595 35.2469 671.8 38.9484 669.287 38.9484L669.288 38.9467ZM629.689 14.7177H608.635V15.7921L609.831 15.9112C611.386 16.1496 611.985 17.1039 612.223 19.3718C612.523 24.6189 612.523 29.8789 612.223 35.126C611.984 37.3922 611.386 38.4691 609.831 38.5866L608.635 38.8267V39.781H622.153V38.8267L620.718 38.5883C619.162 38.4699 618.564 37.3956 618.325 35.1277C618.205 33.5758 618.085 31.0687 618.085 27.9666L620.956 28.0857C622.751 28.0857 623.588 29.5176 623.947 31.5463H625.024V23.0732H623.947C623.587 25.1028 622.752 26.5338 620.956 26.5338L618.086 26.6538C618.086 22.5957 618.206 18.7767 618.326 16.5088H622.512C625.743 16.5088 627.417 18.5375 628.613 22.1189L629.81 21.7597L629.689 14.7177Z" fill="white"/>
        <path d="M636.505 21.4013C642.484 21.4013 645.478 25.4594 645.478 30.8312C645.478 35.9637 642.128 40.2619 636.146 40.2619C630.164 40.2619 627.174 36.2029 627.174 30.8312C627.174 25.6978 630.523 21.4013 636.505 21.4013ZM636.146 22.5948C633.513 22.5948 632.796 26.1754 632.796 30.8303C632.796 35.3627 633.992 39.0658 636.385 39.0658C639.135 39.0658 639.854 35.4852 639.854 30.8303C639.854 26.2988 638.658 22.5948 636.146 22.5948ZM680.767 30.9503C680.767 26.0562 683.88 21.4013 689.979 21.4013C695.002 21.4013 697.395 25.1019 697.395 29.9952H686.27C686.149 34.4109 688.303 37.6331 692.61 37.6331C694.08 37.6954 695.523 37.2296 696.678 36.3204L697.155 36.9163C696.296 37.985 695.202 38.8422 693.957 39.4219C692.713 40.0015 691.352 40.2881 689.979 40.2594C684.595 40.2594 680.767 36.4396 680.767 30.9487V30.9503ZM686.27 28.6841L691.892 28.5641C691.892 26.1771 691.533 22.5965 689.5 22.5965C687.467 22.5965 686.388 25.9362 686.27 28.6825V28.6841ZM711.635 22.3539C709.878 21.6863 708.01 21.3629 706.13 21.4013C701.705 21.4013 698.952 24.0267 698.952 27.1305C698.952 30.2344 700.984 31.5463 703.858 32.5023C706.848 33.5758 707.686 34.4117 707.686 35.8436C707.684 36.2243 707.604 36.6005 707.45 36.9487C707.296 37.297 707.071 37.6097 706.791 37.8674C706.51 38.125 706.179 38.322 705.818 38.4461C705.457 38.5701 705.075 38.6185 704.694 38.5883C702.423 38.5883 700.747 37.2755 699.431 33.6941L698.59 33.9342L698.71 39.1859C700.746 39.9027 702.891 40.266 705.05 40.2602C709.716 40.2602 712.706 37.8723 712.706 34.1725C712.706 31.6654 711.389 30.2344 708.279 29.04C704.928 27.7273 703.736 26.8922 703.736 25.3402C703.716 25 703.766 24.6592 703.884 24.3392C704.002 24.0191 704.184 23.7267 704.42 23.4802C704.656 23.2337 704.94 23.0384 705.255 22.9064C705.57 22.7744 705.909 22.7086 706.251 22.7131C708.403 22.7131 709.838 24.0259 710.916 27.2455L711.753 27.0072L711.635 22.3539ZM661.029 21.8788C658.996 20.6862 655.406 21.2821 653.492 25.5795L653.611 21.4021L645.597 22.9532V23.6691L646.438 23.7883C647.516 23.9083 647.994 24.5043 648.113 26.0545C648.293 29.5136 648.293 32.9796 648.113 36.4387C647.993 37.8656 647.516 38.5857 646.438 38.7049L645.597 38.8249V39.7793H656.722V38.8283L655.287 38.7083C654.091 38.5883 653.731 37.8689 653.612 36.4421C653.388 33.2242 653.349 29.9962 653.493 26.7738C654.09 25.9345 656.723 25.2219 659.115 26.7738L661.03 21.8797L661.029 21.8788Z" fill="white"/>
      </g>
    </mask>
    <g mask="url(#mask3_407_147)">
      <rect x="571.234" y="-22.3498" width="204.095" height="111.399" fill="#BDA67C"/>
    </g>
    <mask id="mask4_407_147" style="mask-type:alpha" maskUnits="userSpaceOnUse" x="788" y="13" width="138" height="28">
      <mask id="mask5_407_147" style="mask-type:luminance" maskUnits="userSpaceOnUse" x="788" y="14" width="138" height="27">
        <path d="M788.286 40.5163H925.852V14.2255H788.286V40.5163Z" fill="white"/>
      </mask>
      <g mask="url(#mask5_407_147)">
        <path d="M892.031 29.8945C891.789 30.1342 891.308 30.3156 890.615 30.3156H890.405C889.713 30.3156 889.231 30.1342 888.989 29.8945C888.629 29.5318 888.479 29.0502 888.479 27.8473V25.7083C888.479 24.5034 888.629 24.0218 888.989 23.6611C889.231 23.4193 889.713 23.24 890.405 23.24H890.615C891.308 23.24 891.789 23.4193 892.031 23.6611C892.392 24.0218 892.542 24.5034 892.542 25.7083V27.8473C892.542 29.0502 892.392 29.5318 892.031 29.8945ZM897.28 25.2872C897.28 22.1559 896.246 20.4381 893.897 19.8064C892.131 19.4145 890.916 19.4875 890.436 19.475H890.013C885.829 19.475 883.721 21.2512 883.721 25.2872V28.923C883.721 35.3232 890.263 34.4518 892.55 33.3281C892.546 33.5407 892.652 35.7902 892.002 36.2071C891.637 36.4406 891.166 36.7429 890.173 36.7429C889.119 36.7429 887.745 36.6574 886.571 36.3551C885.818 36.1737 885.57 36.3947 885.481 36.9055L885.164 38.7734C885.133 38.984 885.103 39.255 885.103 39.3759C885.103 39.7678 885.256 39.9075 885.902 40.0409C888.205 40.5121 889.757 40.5517 891.289 40.4975C893.997 40.4016 894.918 40.0368 895.881 39.0424C896.663 38.2293 897.28 36.5636 897.28 34.2787" fill="white"/>
      </g>
      <path d="M813.71 28.5562C813.379 28.4978 812.683 28.4665 812.259 28.4665H811.926C810.533 28.4665 809.958 28.7084 809.958 29.8279V29.9488C809.958 31.0683 810.594 31.3414 811.653 31.3414H811.865C812.562 31.3414 813.014 31.1287 813.287 30.8869C813.621 30.5846 813.71 30.2219 813.71 29.4047V28.5562ZM814.74 33.2781C814.134 34.185 812.683 34.7896 810.775 34.7896H810.323C807.296 34.7896 805.419 33.1864 805.419 30.1302V29.7966C805.419 26.4068 807.327 25.3206 811.38 25.3206H811.592C812.378 25.3206 813.258 25.379 813.71 25.4395V24.8036C813.71 24.1991 813.621 23.7759 813.198 23.4715C812.833 23.2297 812.378 23.14 811.38 23.14C810.323 23.14 809.051 23.3527 807.869 23.6549C807.114 23.8363 806.933 23.5945 806.841 23.0796L806.599 21.4764C806.57 21.2637 806.539 20.9906 806.539 20.8697C806.539 20.4778 806.66 20.2651 807.267 20.0838C808.538 19.721 810.385 19.4187 812.439 19.4187C814.861 19.4187 816.437 19.9024 817.403 20.901C818.191 21.7182 818.553 22.8982 818.553 24.6827V33.67C818.553 34.2767 818.311 34.5185 817.523 34.5185H816.102C815.405 34.5185 815.166 34.3663 814.982 33.8201L814.801 33.2781" fill="white"/>
      <path fill-rule="evenodd" clip-rule="evenodd" d="M925.857 15.1011V34.9624C925.857 36.747 925.504 37.9269 924.716 38.7442C923.814 39.674 922.375 40.1514 920.224 40.2139L902.312 40.2202C902.141 40.2202 901.97 40.2118 901.805 40.1993H900.727C900.066 40.1993 899.689 39.9575 899.626 39.134C899.626 39.1301 899.625 39.1261 899.624 39.122C899.622 39.1173 899.62 39.1124 899.62 39.1069V15.0927C899.62 14.4173 899.87 14.0358 900.74 13.9857H924.75C925.419 13.9857 925.809 14.2297 925.857 15.1011ZM922.629 37.0635C922.17 37.5346 921.261 37.8119 919.933 37.889H916.449V22.4515H916.249L912.809 23.963C912.096 24.2882 911.496 24.3674 911.14 23.6878L909.82 21.0964C909.426 20.3334 909.622 19.7372 910.383 19.3765L916.527 16.3411C917.325 15.9492 917.844 15.8262 918.924 15.8262H921.755C922.768 15.8262 923.146 16.0534 923.187 17.0666V34.7181C923.187 36.3005 922.866 36.8175 922.629 37.0635Z" fill="white"/>
      <path d="M833.478 33.6409C833.478 34.2162 833.266 34.5185 832.448 34.5185H829.665C828.848 34.5185 828.635 34.2162 828.635 33.6409V25.0767C828.635 24.3804 828.546 23.9551 828.302 23.6841C828.06 23.411 827.576 23.2922 826.972 23.2922H826.911C826.307 23.2922 825.821 23.411 825.579 23.6841C825.337 23.9551 825.248 24.3512 825.248 25.0767V33.6409C825.248 34.2162 825.035 34.5185 824.218 34.5185H821.435C820.617 34.5185 820.405 34.2162 820.405 33.6409V20.5382C820.405 19.9316 820.647 19.6898 821.435 19.6898H822.856C823.553 19.6898 823.795 19.8107 823.976 20.3861L824.157 20.9615H824.249C825.216 19.9316 826.609 19.4187 828.394 19.4187H828.514C830.27 19.4187 831.481 19.7815 832.509 20.8072C833.478 19.9024 834.931 19.4187 836.626 19.4187H836.747C838.532 19.4187 839.803 19.8419 840.589 20.6571C841.406 21.5056 841.709 22.6251 841.709 24.6535V33.6409C841.709 34.2162 841.498 34.5185 840.679 34.5185H837.896C837.079 34.5185 836.868 34.2162 836.868 33.6409V25.0767C836.868 24.3804 836.776 23.9551 836.534 23.6841C836.293 23.411 835.807 23.2922 835.202 23.2922H835.142C834.537 23.2922 834.052 23.411 833.812 23.6841C833.568 23.9551 833.478 24.3512 833.478 25.0767V33.6409ZM848.355 29.1607C848.355 29.8279 848.476 30.3094 848.778 30.6138C849.083 30.9161 849.535 31.0057 850.142 31.0057H850.415C851.23 31.0057 851.624 30.7952 851.897 30.4033C852.228 29.8862 852.26 29.1607 852.26 27.7681V26.4693C852.26 25.0767 852.26 24.1678 851.864 23.7154C851.563 23.3526 851.14 23.2297 850.352 23.2297H850.231C849.566 23.2297 849.083 23.3527 848.749 23.6841C848.415 24.0177 848.355 24.4701 848.355 25.2873V29.1607ZM848.415 20.2339C849.264 19.7189 850.415 19.4187 851.864 19.4187H852.137C853.834 19.4187 855.314 19.992 856.102 21.0511C856.798 21.9892 857.132 23.2922 857.132 26.0441V28.2247C857.132 30.4637 856.677 32.2774 855.587 33.2781C854.407 34.3663 852.896 34.7896 850.415 34.7896H849.808C846.994 34.7896 845.572 34.2162 844.723 33.3073C844.087 32.611 843.514 31.4623 843.514 29.0106V14.9094C843.514 14.3341 843.696 14.0297 844.511 14.0297H847.327C848.142 14.0297 848.355 14.3341 848.355 14.9094V20.2339H848.415ZM866.865 20.5674C866.865 19.992 867.078 19.6898 867.891 19.6898H870.676C871.494 19.6898 871.706 19.992 871.706 20.5674V29.5235C871.706 31.431 871.283 32.6715 870.345 33.5199C869.252 34.4873 867.591 34.7896 865.2 34.7896C862.808 34.7896 861.145 34.4873 860.055 33.5199C859.118 32.6715 858.693 31.431 858.693 29.5235V20.5674C858.693 19.992 858.906 19.6898 859.725 19.6898H862.508C863.325 19.6898 863.536 19.992 863.536 20.5674V29.1003C863.536 29.8279 863.628 30.2219 863.87 30.4929C864.111 30.766 864.593 30.8869 865.2 30.8869C865.806 30.8869 866.29 30.766 866.53 30.4929C866.772 30.2219 866.865 29.7966 866.865 29.1003V20.5674ZM877.439 21.3242C878.165 20.1442 879.163 19.6898 880.829 19.6898H882.038C882.674 19.6898 882.916 19.8419 882.916 20.5382V22.746C882.916 23.411 882.705 23.5924 882.099 23.5924H881.192C880.043 23.5924 879.315 23.805 878.892 24.2282C878.498 24.6223 878.377 25.3186 878.377 26.3172V33.6409C878.377 34.2162 878.165 34.5185 877.347 34.5185H874.564C873.747 34.5185 873.537 34.2162 873.537 33.6409V20.5382C873.537 19.9316 873.776 19.6898 874.564 19.6898H876.017C876.714 19.6898 876.956 19.8419 877.106 20.384L877.347 21.3242H877.439ZM804.158 33.5387C804.158 34.3789 804.037 34.4685 803.108 34.4685H800.197C799.268 34.4685 799.117 34.3789 799.117 33.5387V26.757H793.326V33.5387C793.326 34.3789 793.207 34.4685 792.275 34.4685H789.305C788.406 34.4685 788.285 34.3789 788.285 33.5387V15.9852C788.285 15.145 788.406 15.0554 789.336 15.0554H792.275C793.207 15.0554 793.326 15.145 793.326 15.9852V22.6772H799.117V15.9852C799.117 15.145 799.238 15.0554 800.168 15.0554H803.108C804.037 15.0554 804.158 15.145 804.158 15.9852" fill="white"/>
    </mask>
    <g mask="url(#mask4_407_147)">
      <rect x="770.396" y="-21.792" width="191.898" height="108.959" fill="#BDA67C"/>
    </g>
    <mask id="mask6_407_147" style="mask-type:alpha" maskUnits="userSpaceOnUse" x="1001" y="6" width="90" height="42">
      <path d="M1024.96 47.8791C1028.65 47.9155 1031.68 44.9523 1031.7 41.262V41.0257C1031.69 37.3081 1028.68 34.3086 1024.96 34.3177C1021.24 34.3268 1018.24 37.3445 1018.25 41.0621V41.0984C1018.21 42.8533 1018.86 44.5535 1020.07 45.8251C1021.28 47.0967 1022.95 47.8356 1024.7 47.8791H1024.96ZM1025 46.5066C1022.1 46.4884 1019.77 44.1161 1019.79 41.2257V41.0257C1019.73 39.6532 1020.21 38.313 1021.14 37.2991C1022.07 36.2852 1023.36 35.6805 1024.73 35.6175H1024.95C1027.85 35.6357 1030.18 38.008 1030.16 40.8985V41.0984C1030.29 43.9525 1028.07 46.3794 1025.21 46.5066H1025ZM1034.44 47.6519H1035.89V36.8355L1044.41 47.6519H1045.6V34.4631H1044.15V45.0341L1035.84 34.4631H1034.44V47.6519ZM1049.17 47.6519H1058.09V46.2794H1050.66V34.4631H1049.17V47.6519ZM1060.42 47.6519H1061.9V34.4631H1060.41V47.6519H1060.42ZM1065.52 47.6519H1066.97V36.8355L1075.49 47.6519H1076.68V34.4631H1075.22V45.0341L1066.91 34.4631H1065.52V47.6519ZM1080.25 47.6519H1090.05V46.2976H1081.73V41.6801H1089.1V40.3167H1081.73V35.8084H1089.95V34.4541H1080.23V47.6519H1080.25Z" fill="white"/>
      <path d="M1001.43 32.5909H1010.09C1015 32.5909 1017.8 30.3913 1017.8 26.8191V26.701C1017.8 23.9651 1016.21 22.5926 1013.99 21.7563C1014.91 21.4055 1015.71 20.777 1016.26 19.9569C1016.82 19.1368 1017.11 18.1652 1017.09 17.1753V17.0571C1017.14 15.7664 1016.64 14.5121 1015.71 13.6031C1014.5 12.3488 1012.56 11.758 1010.06 11.758H1001.43V32.5909ZM1011.79 18.1842C1011.79 19.4658 1010.83 20.1202 1009.2 20.1202H1006.63V16.2209H1009.29C1010.9 16.2209 1011.79 16.9026 1011.79 18.1569V18.1842ZM1012.44 26.0738V26.1011C1012.44 27.3827 1011.46 28.128 1009.8 28.128H1006.64V24.056H1009.77C1011.52 24.056 1012.45 24.8558 1012.45 26.0829M1029.31 10.4673H1033.75V6.62244H1029.31V10.4673ZM1023.39 10.4673H1027.82V6.62244H1023.39V10.4673ZM1028.57 32.9818C1034.17 32.9818 1038.25 28.6007 1038.25 22.3835V21.9381C1038.25 15.6846 1034.23 11.3671 1028.6 11.3671C1022.98 11.3671 1018.92 15.7391 1018.92 21.9654V22.4108C1018.92 28.6643 1022.94 32.9818 1028.57 32.9818ZM1028.59 28.128C1026.12 28.128 1024.4 25.9284 1024.4 22.3199V21.9927C1024.4 18.3932 1026.09 16.2209 1028.57 16.2209C1031.04 16.2209 1032.77 18.4205 1032.77 22.029V22.3562C1032.77 25.9556 1031.1 28.128 1028.6 28.128M1040.36 32.5909H1045.68V26.1283H1047.59L1051.14 32.5909H1057.18L1052.88 25.0285C1054.04 24.4957 1055.02 23.6263 1055.69 22.5326C1056.35 21.439 1056.67 20.1712 1056.61 18.8932V18.7477C1056.7 16.9389 1056.04 15.1756 1054.79 13.8667C1053.45 12.4942 1051.34 11.7489 1048.54 11.7489H1040.35V32.5909H1040.36ZM1045.68 21.8745V16.4299H1048.3C1050.09 16.4299 1051.22 17.3207 1051.22 19.1113V19.1658C1051.26 19.8501 1051.02 20.5213 1050.56 21.0324C1050.11 21.5435 1049.47 21.8528 1048.78 21.8927C1048.64 21.8927 1048.48 21.8927 1048.34 21.8745H1045.69H1045.68ZM1065.88 32.8909C1070.34 32.8909 1073.47 30.3913 1073.47 26.3374V26.2829C1073.47 22.738 1071 21.1292 1067.04 19.8566C1064.39 18.875 1063.73 18.4023 1063.73 17.4752V17.4479C1063.73 16.6753 1064.42 16.0754 1065.64 16.0754C1067.42 16.1754 1069.12 16.839 1070.5 17.9842L1073.21 13.994C1071.1 12.2926 1068.46 11.3966 1065.76 11.4671C1061.21 11.4671 1058.32 14.1212 1058.32 17.9024V17.9933C1058.32 21.7745 1061.09 23.2015 1065.02 24.5377C1067.46 25.4012 1068.09 25.9102 1068.09 26.7373V26.7646C1068.09 27.6554 1067.34 28.2825 1065.92 28.2825C1063.82 28.1735 1061.82 27.3463 1060.25 25.9284L1057.4 29.8277C1059.75 31.8547 1062.78 32.9454 1065.89 32.8909M1075.59 32.5909H1090.06V27.8917H1080.89V24.3195H1089.04V19.8839H1080.89V16.4572H1089.94V11.758H1075.59V32.5909Z" fill="white"/>
      <path d="M1010.73 40.9894L1001.51 34.4541V47.6974L1010.73 40.9894Z" fill="white"/>
    </mask>
    <g mask="url(#mask6_407_147)">
      <rect x="980.943" y="-36.5441" width="130.963" height="108.282" fill="#BDA67C"/>
    </g>
    <path d="M1243.65 11.745L1235.8 18.5309C1236.47 20.32 1239.27 22.1092 1242.04 18.9018L1243.08 20.0364C1241.45 22.0219 1238.46 22.5893 1235.97 22.0656C1233.72 21.5856 1231.91 19.4691 1231.3 17.3308C1230.54 14.647 1231.19 11.8541 1233.33 10.1086C1235.19 8.47214 1239.9 6.50842 1243.65 11.745ZM1241.38 11.8323C1241.06 10.9159 1240.16 9.91224 1239.09 9.62856C1238.18 9.34489 1237.11 9.69401 1236.3 10.3923C1234.47 12.1596 1234.49 14.7779 1235.21 17.0471L1241.38 11.8323Z" fill="#BDA67C"/>
    <path d="M1320.85 11.745L1312.99 18.5309C1313.67 20.32 1316.46 22.1092 1319.24 18.9018L1320.28 20.0364C1318.65 22.0219 1315.66 22.5893 1313.17 22.0656C1310.92 21.5856 1309.11 19.4691 1308.5 17.3308C1307.74 14.647 1308.39 11.8541 1310.53 10.1086C1312.38 8.47214 1317.12 6.50842 1320.85 11.745ZM1318.58 11.8323C1318.25 10.9159 1317.36 9.91224 1316.29 9.62856C1315.37 9.34489 1314.3 9.69401 1313.5 10.3923C1311.66 12.1596 1311.69 14.7779 1312.41 17.0471L1318.58 11.8323Z" fill="#BDA67C"/>
    <path d="M1279.44 9.84673C1279.39 9.91223 1278.41 11.2432 1278.41 11.2432C1276.73 9.93401 1274 8.97398 1272.02 9.8904C1270.53 10.6323 1270.82 12.3124 1272.93 12.8797C1274.31 13.316 1278.85 13.7088 1279.35 17.1126C1279.52 18.509 1278.87 19.7527 1277.76 20.6255C1275.18 22.5892 1271.1 22.131 1268.26 21.1492C1268.24 21.1055 1268.92 18.9018 1268.92 18.9018C1269.81 19.4909 1270.58 19.7745 1271.45 20.1018C1275.81 21.6728 1278.32 19.0109 1275.6 17.4399C1274.4 16.7198 1272.83 16.6544 1271.3 16.0434C1270.16 15.5852 1268.99 14.7125 1268.61 13.4469C1268.24 12.1378 1268.5 10.6104 1269.31 9.80312C1271.93 7.35933 1276.6 8.29758 1279.44 9.84673Z" fill="#BDA67C"/>
    <path d="M1186.94 5.65744C1186.94 4.67558 1187.73 3.89008 1188.71 3.89008C1189.69 3.89008 1190.48 4.67558 1190.48 5.65744C1190.48 6.63932 1189.69 7.42478 1188.71 7.42478C1187.73 7.403 1186.94 6.61748 1186.94 5.65744Z" fill="#BDA67C"/>
    <path d="M1297.63 5.98474V11.3741C1299.64 9.56313 1302.5 7.66485 1305.18 9.01761C1306.95 10.1304 1306.71 12.1378 1306.67 14.2761C1306.6 17.7017 1306.41 21.4546 1306.41 21.4546H1303.02C1303.13 17.0253 1303.15 13.7524 1302.91 12.356C1302.78 11.7014 1302.63 11.025 1301.91 10.6977C1300.3 10.065 1298.77 11.5705 1297.68 12.7487V21.4328H1293.86V6.98844H1292.46V5.98474H1297.63Z" fill="#BDA67C"/>
    <path d="M1189.89 8.4503C1189.89 8.4503 1189.04 16.8725 1190.02 19.2945C1190.26 19.9055 1190.83 20.1673 1191.5 20.0146C1192.79 19.6655 1194.04 18.8145 1195.11 17.8981V9.454H1193.1V8.4503H1198.9V21.4764H1195.08V19.4691C1194.43 19.7963 1189.13 23.2874 1187.1 21.1928C1185.9 19.8618 1185.85 17.4181 1185.79 15.2798C1185.74 13.316 1186.12 11.3087 1186.29 9.43216H1184.35V8.42847L1189.89 8.4503Z" fill="#BDA67C"/>
    <path d="M1249.35 8.4503C1249.35 8.4503 1248.5 16.8725 1249.48 19.2945C1249.72 19.9055 1250.29 20.1673 1250.96 20.0146C1252.25 19.6655 1253.49 18.8145 1254.56 17.8981V9.454H1252.55V8.4503H1258.36V21.4764H1254.54V19.4691C1253.89 19.7963 1248.58 23.2874 1246.55 21.1928C1245.35 19.8618 1245.31 17.4181 1245.25 15.2798C1245.2 13.316 1245.57 11.3087 1245.75 9.43216H1243.81V8.42847L1249.35 8.4503Z" fill="#BDA67C"/>
    <path d="M1194.93 5.65744C1194.93 4.67558 1195.72 3.89008 1196.7 3.89008C1197.68 3.89008 1198.46 4.67558 1198.46 5.65744C1198.46 6.63932 1197.68 7.42478 1196.7 7.42478C1195.72 7.403 1194.93 6.61748 1194.93 5.65744Z" fill="#BDA67C"/>
    <path d="M1265.71 8.45036H1268.37V9.45405H1265.71L1265.93 21.4765H1262.13L1262.31 9.45405H1259.65V8.45036H1262.31V7.9049C1262.31 7.9049 1263.22 7.55577 1264.01 7.18482C1265.1 6.68303 1265.71 6.22479 1265.71 6.22479V8.45036Z" fill="#BDA67C"/>
    <path d="M1291.81 10.1304L1291.04 11.2432C1290 9.75944 1287.86 9.27943 1286.66 9.934C1284.26 11.3304 1284.26 14.6034 1284.69 17.1999C1285 18.6617 1285.96 20.4073 1287.55 20.6691C1288.8 20.8437 1290.13 19.9491 1290.63 19.4909L1291.87 20.8655C1291.87 20.8655 1291.13 21.4328 1290.28 21.6728C1287.86 22.5237 1285.02 22.1747 1283.17 20.4727C1281.18 18.6399 1280.46 16.2398 1280.94 13.6651C1281.33 11.4614 1283.41 9.38854 1285.55 8.79941C1287.66 8.23212 1290.22 8.6903 1291.81 10.1304Z" fill="#BDA67C"/>
    <path d="M1209.16 5.98474V6.98844H1210.44V10.414C1210.44 10.414 1207.89 7.49029 1204.03 9.51946C1201.72 10.8941 1200.76 13.3597 1201.02 15.8907C1201.19 18.1599 1202.33 20.4946 1204.55 21.411C1206.63 22.1747 1208.94 21.4765 1210.42 20.0145V21.4983H1213.96V6.00656H1209.16V5.98474ZM1210.6 15.1271C1210.6 15.1271 1210.42 20.2546 1207.52 20.2546C1204.62 20.2546 1204.73 15.1052 1204.73 15.1052C1204.73 15.1052 1204.77 10.2613 1207.8 10.2613C1210.81 10.2613 1210.6 15.1271 1210.6 15.1271Z" fill="#BDA67C"/>
    <path d="M1224.08 5.98474V6.98844H1225.37V10.414C1225.37 10.414 1222.82 7.49029 1218.95 9.51946C1216.64 10.8941 1215.68 13.3597 1215.94 15.8907C1216.12 18.1599 1217.25 20.4946 1219.48 21.411C1221.55 22.1747 1223.86 21.4765 1225.35 20.0145V21.4983H1228.86V6.00656H1224.08V5.98474ZM1225.54 15.1271C1225.54 15.1271 1225.37 20.2546 1222.47 20.2546C1219.56 20.2546 1219.67 15.1052 1219.67 15.1052C1219.67 15.1052 1219.72 10.2613 1222.75 10.2613C1225.76 10.2613 1225.54 15.1271 1225.54 15.1271Z" fill="#BDA67C"/>
    <path d="M1183.37 3.67188L1184.7 2.5591L1185.31 3.1264L1182.25 5.7229C1179.31 3.47551 1175.45 1.46813 1171.56 2.5591C1170.56 2.88638 1169.21 3.75916 1169.16 5.02468C1169.12 7.29388 1173.59 8.45031 1173.59 8.45031C1173.59 8.45031 1179.59 10.2831 1182.06 12.596C1183.19 13.6215 1183.56 15.2798 1183.26 16.9162C1181.38 24.9676 1170.27 21.0619 1167.61 18.8799L1166.24 20.2764L1165.63 19.7309L1168.73 16.5889C1171.19 18.4218 1171.74 18.749 1174.01 19.7091C1179.87 21.9129 1181.8 18.509 1180.18 16.3489C1177.45 13.1415 1172.81 13.687 1169.51 11.3959C1167.77 10.1522 1166.52 8.31941 1166.83 6.11564C1167.02 4.02099 1169.18 2.14453 1171.04 1.44631C1175.25 -0.211959 1179.98 1.11902 1183.37 3.67188Z" fill="#BDA67C"/>
    <path d="M1225.55 36.2467L1217.69 43.0325C1218.37 44.8217 1221.16 46.6108 1223.93 43.4034L1224.98 44.538C1223.34 46.5236 1220.36 47.0909 1217.87 46.5672C1215.62 46.0872 1213.81 43.9707 1213.2 41.8324C1212.43 39.1486 1213.09 36.3558 1215.23 34.6102C1217.1 32.9738 1221.82 31.0101 1225.55 36.2467ZM1223.3 36.3339C1222.97 35.4175 1222.08 34.4139 1221.01 34.1302C1220.09 33.8465 1219.02 34.1957 1218.22 34.8939C1216.38 36.6612 1216.41 39.2796 1217.13 41.5488L1223.3 36.3339Z" fill="#BDA67C"/>
    <path d="M1204.89 44.9744C1207.59 45.0835 1210.69 44.538 1213.2 43.9707C1213.09 44.1671 1212.33 45.9781 1212.33 45.9781H1199.95L1208.51 26.5807C1207.61 26.5807 1205.85 26.6025 1205.85 26.6025C1202.46 26.6025 1201.33 27.0389 1198.3 28.8936L1198.51 25.3588H1213.26L1204.89 44.9744Z" fill="#BDA67C"/>
    <path d="M1238.27 33.9556L1238.49 45.9781H1234.69L1234.87 33.9556H1232.49V32.9519H1234.87V32.4065C1234.87 32.4065 1235.78 32.0574 1236.57 31.6864C1237.66 31.1846 1238.27 30.7264 1238.27 30.7264V32.9301H1245.84C1245.84 32.9301 1244.99 41.3524 1245.97 43.7743C1246.21 44.3853 1246.78 44.6471 1247.45 44.4944C1248.74 44.1453 1249.99 43.2943 1251.05 42.3779V33.9556H1249.05V32.9519H1254.85V45.9781H1251.03V43.9707C1250.38 44.298 1245.08 47.7891 1243.05 45.6944C1241.85 44.3634 1241.8 41.9197 1241.74 39.7814C1241.69 37.8176 1242.07 35.8103 1242.24 33.9338H1238.27V33.9556Z" fill="#BDA67C"/>
    <path d="M1231.22 32.9519V45.9781H1227.42V33.9556H1225.5V32.9519H1231.22Z" fill="#BDA67C"/>
    <path d="M1227.53 30.159C1227.53 29.1772 1228.32 28.3917 1229.3 28.3917C1230.28 28.3917 1231.07 29.1772 1231.07 30.159C1231.07 31.1409 1230.28 31.9264 1229.3 31.9264C1228.32 31.9046 1227.53 31.1191 1227.53 30.159Z" fill="#BDA67C"/>
    <path d="M1271.24 38.5813C1271.26 40.8942 1271.28 43.1197 1271.19 45.9562C1270.06 45.9562 1267.46 45.9562 1267.46 45.9562C1267.7 42.9452 1268.68 35.8976 1266.15 35.352C1264.54 35.0029 1263.06 36.2249 1261.92 37.4686V45.9562H1258.23V33.9556H1256.77V32.9519H1261.9V35.9848C1263.67 34.3047 1266.02 32.4719 1268.49 32.9738C1269.23 33.1265 1271.17 33.672 1271.24 38.5813Z" fill="#BDA67C"/>
    <path d="M1289.17 35.0466C1289.17 34.0866 1288.39 33.3011 1287.43 33.3011C1286.71 33.3011 1286.08 33.7375 1285.81 34.3702C1285.81 34.3702 1285.59 34.8939 1285.64 35.4175C1285.55 35.2648 1285.16 34.8939 1284.92 34.6975C1282.74 32.8211 1279.14 32.5592 1276.63 33.8248C1273.92 35.2212 1272.53 38.0359 1272.92 41.0469C1273.16 43.578 1275.43 45.9345 1277.72 46.72C1277.33 46.8945 1276.17 47.1564 1276.1 48.5091C1276.06 50.822 1279.75 49.6001 1281.56 50.2329C1282.02 50.4729 1282.26 50.9311 1282.17 51.4766C1282.04 51.913 1281.65 52.2402 1281.23 52.3712C1279.53 52.9385 1277.76 52.0002 1276.54 50.8438L1275.23 51.8693C1276.02 52.5021 1276.8 53.0912 1277.67 53.3967C1279.18 53.964 1282.67 54.2258 1284.29 51.9566C1284.64 51.4984 1284.77 50.5165 1284.44 49.9274C1283.24 47.92 1280.49 48.8583 1278.87 48.6401C1277.98 48.531 1277.35 47.2 1280.6 46.9381C1283.06 46.8291 1285.33 45.389 1286.62 43.1853C1287.69 41.3088 1287.38 38.5377 1286.58 36.7049C1286.97 36.7922 1287.25 36.8358 1287.49 36.7922C1288.43 36.7485 1289.17 35.9849 1289.17 35.0466ZM1280.12 45.6508C1278.13 45.6508 1276.54 43.1198 1276.54 39.9778C1276.54 36.8576 1278.15 34.3048 1280.12 34.3048C1282.1 34.3048 1283.7 36.8358 1283.7 39.9778C1283.7 43.1198 1282.1 45.6508 1280.12 45.6508Z" fill="#BDA67C"/>
    <mask id="mask7_407_147" style="mask-type:alpha" maskUnits="userSpaceOnUse" x="1396" y="14" width="105" height="27">
      <g clip-path="url(#clip1_407_147)">
        <path d="M1459.82 21.6405C1458.32 21.6129 1456.83 21.9833 1455.52 22.714C1455.52 18.8951 1455.52 15.4345 1455.64 14.241L1447.62 15.6745V16.3905L1448.46 16.5097C1449.54 16.748 1449.9 17.344 1450.14 18.7759C1450.38 21.6405 1450.26 36.918 1450.14 39.4234C1452.33 39.9449 1454.58 40.2264 1456.84 40.2628C1463.18 40.2628 1467.01 36.3238 1467.01 30.1169C1467.01 25.2236 1463.89 21.6397 1459.83 21.6397L1459.82 21.6405ZM1457.07 38.9467C1456.59 38.9714 1456.11 38.9316 1455.64 38.8283C1455.52 37.1614 1455.4 30.111 1455.52 23.9084C1456.09 23.6858 1456.7 23.5646 1457.31 23.55C1459.94 23.55 1461.38 26.6555 1461.38 30.4711C1461.38 35.2469 1459.58 38.9484 1457.07 38.9484L1457.07 38.9467ZM1417.47 14.7177H1396.42V15.7921L1397.62 15.9112C1399.17 16.1496 1399.77 17.1039 1400.01 19.3718C1400.31 24.6189 1400.31 29.8789 1400.01 35.126C1399.77 37.3922 1399.17 38.4691 1397.62 38.5866L1396.42 38.8267V39.781H1409.94V38.8267L1408.5 38.5883C1406.95 38.4699 1406.35 37.3956 1406.11 35.1277C1405.99 33.5758 1405.87 31.0687 1405.87 27.9666L1408.74 28.0857C1410.54 28.0857 1411.37 29.5176 1411.73 31.5463H1412.81V23.0732H1411.73C1411.37 25.1028 1410.54 26.5338 1408.74 26.5338L1405.87 26.6538C1405.87 22.5957 1405.99 18.7767 1406.11 16.5088H1410.3C1413.53 16.5088 1415.2 18.5375 1416.4 22.1189L1417.59 21.7597L1417.47 14.7177Z" fill="white"/>
        <path d="M1424.29 21.4013C1430.27 21.4013 1433.26 25.4594 1433.26 30.8312C1433.26 35.9637 1429.91 40.2619 1423.93 40.2619C1417.95 40.2619 1414.96 36.2029 1414.96 30.8312C1414.96 25.6978 1418.31 21.4013 1424.29 21.4013ZM1423.93 22.5948C1421.3 22.5948 1420.58 26.1754 1420.58 30.8303C1420.58 35.3627 1421.78 39.0658 1424.17 39.0658C1426.92 39.0658 1427.64 35.4852 1427.64 30.8303C1427.64 26.2988 1426.44 22.5948 1423.93 22.5948ZM1468.55 30.9503C1468.55 26.0562 1471.66 21.4013 1477.76 21.4013C1482.79 21.4013 1485.18 25.1019 1485.18 29.9952H1474.05C1473.93 34.4109 1476.09 37.6331 1480.4 37.6331C1481.87 37.6954 1483.31 37.2296 1484.46 36.3204L1484.94 36.9163C1484.08 37.985 1482.99 38.8422 1481.74 39.4219C1480.5 40.0015 1479.14 40.2881 1477.76 40.2594C1472.38 40.2594 1468.55 36.4396 1468.55 30.9487V30.9503ZM1474.05 28.6841L1479.68 28.5641C1479.68 26.1771 1479.32 22.5965 1477.29 22.5965C1475.25 22.5965 1474.17 25.9362 1474.05 28.6825V28.6841ZM1499.42 22.3539C1497.66 21.6863 1495.79 21.3629 1493.92 21.4013C1489.49 21.4013 1486.74 24.0267 1486.74 27.1305C1486.74 30.2344 1488.77 31.5463 1491.64 32.5023C1494.63 33.5758 1495.47 34.4117 1495.47 35.8436C1495.47 36.2243 1495.39 36.6005 1495.24 36.9487C1495.08 37.297 1494.86 37.6097 1494.58 37.8674C1494.29 38.125 1493.96 38.322 1493.6 38.4461C1493.24 38.5701 1492.86 38.6185 1492.48 38.5883C1490.21 38.5883 1488.53 37.2755 1487.22 33.6941L1486.37 33.9342L1486.5 39.1859C1488.53 39.9027 1490.68 40.266 1492.84 40.2602C1497.5 40.2602 1500.49 37.8723 1500.49 34.1725C1500.49 31.6654 1499.17 30.2344 1496.06 29.04C1492.71 27.7273 1491.52 26.8922 1491.52 25.3402C1491.5 25 1491.55 24.6592 1491.67 24.3392C1491.79 24.0191 1491.97 23.7267 1492.21 23.4802C1492.44 23.2337 1492.73 23.0384 1493.04 22.9064C1493.36 22.7744 1493.69 22.7086 1494.04 22.7131C1496.19 22.7131 1497.62 24.0259 1498.7 27.2455L1499.54 27.0072L1499.42 22.3539ZM1448.81 21.8788C1446.78 20.6862 1443.19 21.2821 1441.28 25.5795L1441.4 21.4021L1433.38 22.9532V23.6691L1434.22 23.7883C1435.3 23.9083 1435.78 24.5043 1435.9 26.0545C1436.08 29.5136 1436.08 32.9796 1435.9 36.4387C1435.78 37.8656 1435.3 38.5857 1434.22 38.7049L1433.38 38.8249V39.7793H1444.51V38.8283L1443.07 38.7083C1441.88 38.5883 1441.52 37.8689 1441.4 36.4421C1441.17 33.2242 1441.13 29.9962 1441.28 26.7738C1441.88 25.9345 1444.51 25.2219 1446.9 26.7738L1448.81 21.8797L1448.81 21.8788Z" fill="white"/>
      </g>
    </mask>
    <g mask="url(#mask7_407_147)">
      <rect x="1359.02" y="-22.3498" width="204.095" height="111.399" fill="#BDA67C"/>
    </g>
  </g>
  <defs>
    <filter id="filter0_i_407_147" x="0.5" y="0.713074" width="1500" height="56.7103" filterUnits="userSpaceOnUse" color-interpolation-filters="sRGB">
      <feFlood flood-opacity="0" result="BackgroundImageFix"/>
      <feBlend mode="normal" in="SourceGraphic" in2="BackgroundImageFix" result="shape"/>
      <feColorMatrix in="SourceAlpha" type="matrix" values="0 0 0 0 0 0 0 0 0 0 0 0 0 0 0 0 0 0 127 0" result="hardAlpha"/>
      <feOffset dy="3.63432"/>
      <feGaussianBlur stdDeviation="1.81716"/>
      <feComposite in2="hardAlpha" operator="arithmetic" k2="-1" k3="1"/>
      <feColorMatrix type="matrix" values="0 0 0 0 0 0 0 0 0 0 0 0 0 0 0 0 0 0 0.25 0"/>
      <feBlend mode="normal" in2="shape" result="effect1_innerShadow_407_147"/>
    </filter>
    <clipPath id="clip0_407_147">
      <rect width="104.08" height="26.0201" fill="white" transform="translate(608.635 14.241)"/>
    </clipPath>
    <clipPath id="clip1_407_147">
      <rect width="104.08" height="26.0201" fill="white" transform="translate(1396.42 14.241)"/>
    </clipPath>
  </defs>
</svg>
